<svg width="54" height="16" viewBox="0 0 54 16" fill="none" xmlns="http://www.w3.org/2000/svg">
    <path d="M35.0122 11.8037V3.35227H36.4362V4.02838C36.891 3.46848 37.5838 3.15507 38.3045 3.18676C39.9385 3.18676 41.1036 4.50025 41.1036 6.38422C41.1036 8.26818 39.9245 9.60632 38.3045 9.60632C37.5873 9.63802 36.8945 9.33165 36.4362 8.77527V11.8037H35.0122ZM36.4362 5.60598V7.15893C36.7091 7.82096 37.3494 8.25058 38.0596 8.24705C39.0043 8.24705 39.6341 7.54277 39.6341 6.37718C39.6341 5.21158 39.0043 4.52843 38.0596 4.52843C37.3494 4.51434 36.7021 4.94395 36.4362 5.60598Z" fill="#00C48C"/>
    <path d="M42.0339 7.7189C41.9884 6.73642 42.7371 5.90185 43.7133 5.84902L46.1309 5.53914V5.21869C46.1694 4.95458 45.991 4.70456 45.7251 4.66583C45.6866 4.65878 45.6446 4.65878 45.6061 4.6623H42.5692V3.35938H45.6656C46.8902 3.35938 47.5654 3.96506 47.5654 5.04262V9.43384H46.1309V8.6873C45.6621 9.31059 44.9134 9.65921 44.1366 9.61343C42.8876 9.61343 42.0374 8.84224 42.0374 7.70482M44.4865 8.45136C45.1863 8.46897 45.83 8.07104 46.1309 7.43367V6.66247L44.2871 6.92306C43.7728 6.99701 43.4929 7.2752 43.4929 7.70482C43.4929 8.13443 43.8427 8.45136 44.4865 8.45136Z" fill="#00C48C"/>
    <path d="M48.6014 10.5008H49.651C49.9869 10.5325 50.2913 10.3036 50.3508 9.96909L50.5397 9.43384L48.346 3.35938H49.8015L51.1695 7.58509H51.2045L52.5095 3.35938H54L51.5963 10.3353C51.271 11.2932 50.8371 11.8038 49.777 11.8038H48.6189L48.6014 10.5008Z" fill="#00C48C"/>
    <path d="M5.22007 15.9802C6.87498 15.9802 8.236 15.4591 9.12819 14.5717C9.81394 13.8779 10.1918 12.9377 10.1778 11.9588C10.1918 11.0538 9.84543 10.1804 9.21565 9.53251C8.46342 8.81765 7.51526 8.34931 6.49362 8.18732L4.59029 7.81405C3.79957 7.66615 3.35523 7.26823 3.35523 6.71888C3.35523 6.0146 4.05498 5.50047 5.16059 5.50047C5.77987 5.47582 6.38516 5.70119 6.83999 6.12376C7.0989 6.40548 7.26335 6.76466 7.31233 7.14498L10.0554 6.52168C9.97139 5.73288 9.61101 5.00043 9.04072 4.45461C7.97709 3.46508 6.57059 2.93687 5.1221 2.98617C3.78907 2.94391 2.49103 3.40522 1.48339 4.28206C0.738153 4.97226 0.318301 5.94769 0.321799 6.9689C0.293809 7.82461 0.615696 8.65215 1.21398 9.25783C1.94173 9.93043 2.84091 10.3882 3.81007 10.5784L5.6889 11.0256C6.63007 11.251 7.04992 11.5996 7.04992 12.2229C7.04992 12.9941 6.35017 13.4413 5.22007 13.4413C4.51682 13.48 3.82756 13.223 3.31674 12.737C3.01585 12.4306 2.83741 12.0222 2.81992 11.5925L-8.67844e-05 12.2158C0.0838835 13.0469 0.454752 13.8251 1.04954 14.4062C1.99071 15.3992 3.49868 15.9978 5.20607 15.9978M26.0797 15.9978C27.6366 16.0401 29.1446 15.4591 30.2782 14.3815C30.9885 13.6913 31.4993 12.825 31.7617 11.8672L28.8892 10.8883C28.5463 12.1454 27.3847 13.0011 26.0902 12.9553C25.2715 12.9518 24.4913 12.6278 23.9105 12.0468C23.2772 11.3496 22.9413 10.4269 22.9763 9.47968C22.9378 8.53594 23.2737 7.61333 23.9105 6.9196C24.4913 6.34561 25.275 6.0322 26.0867 6.04981C26.8144 6.0146 27.5212 6.28575 28.0425 6.79636C28.3889 7.16963 28.6443 7.62037 28.7842 8.11337L31.7267 7.12033C31.4783 6.19067 30.9955 5.34201 30.3272 4.65533C29.1656 3.54256 27.6122 2.94039 26.0097 2.98617C24.3373 2.96856 22.7244 3.62355 21.5313 4.80323C20.3242 6.05333 19.663 7.73658 19.6875 9.47968C19.663 11.2334 20.3417 12.9201 21.5698 14.1632C22.7769 15.3499 24.4073 16.0049 26.0937 15.9802M16.1012 15.9802C17.3888 15.9802 18.3019 15.5823 18.7008 15.2337V12.5468C18.211 12.8779 17.6337 13.0539 17.0424 13.0434C16.5945 13.0786 16.1502 12.9377 15.8038 12.649C15.5274 12.2968 15.3945 11.8496 15.433 11.4024V0H12.1686V3.35944H18.7008V6.54633H12.1686V12.1806C12.1231 13.1772 12.4695 14.1526 13.1343 14.8921C13.834 15.5964 14.8417 15.9485 16.1012 15.9485" fill="#4F008C"/>
</svg>
