<svg width="306" height="793" viewBox="0 0 306 793" fill="none" xmlns="http://www.w3.org/2000/svg">
<g clip-path="url(#clip0_5191_5499)">
<path d="M117.179 763C117.179 779.569 130.611 793 147.179 793H155.112C171.681 793 185.112 779.569 185.112 763V663H117.179V763Z" fill="#115444"/>
<path d="M126.17 753.025C126.17 766.818 137.352 778 151.146 778C164.939 778 176.121 766.818 176.121 753.025V695H126.17V753.025Z" fill="#126A55"/>
<path d="M225.073 750.5L207.09 576L186.111 579.5C188.609 630.5 193.704 736.1 194.103 750.5C194.503 764.9 203.927 769.833 208.589 770.5C224.173 772.1 226.072 757.833 225.073 750.5Z" fill="#555555"/>
<path d="M220.914 748.525L205.297 596.5L192.105 600.039C193.952 644.325 197.719 736.021 198.015 748.525C198.31 761.03 205.279 765.313 208.726 765.892C220.249 767.282 221.653 754.893 220.914 748.525Z" fill="#666666"/>
<rect x="129.167" y="772" width="43.9566" height="13" rx="6.5" fill="#20333A"/>
<path d="M86.2097 553V508H216.081C215.915 516 215.682 536.2 216.081 553C216.481 569.8 191.939 651.333 179.617 690C170.127 711.667 145.951 742 125.171 690C104.392 638 90.5388 577 86.2097 553Z" fill="#0F453A"/>
<path d="M99.1969 565.092V529H203.09C202.957 535.416 202.771 551.618 203.09 565.092C203.41 578.566 183.777 643.96 173.92 674.972C166.328 692.349 146.988 716.678 130.365 674.972C113.742 633.266 102.66 584.341 99.1969 565.092Z" fill="url(#paint0_linear_5191_5499)"/>
<path d="M102.693 565.092V529H198.599C198.466 535.416 198.279 551.618 198.599 565.092L195.602 575.5L107.689 577L102.693 565.092Z" fill="#0F453A"/>
<path d="M65.2307 400.5L91.2051 405.5L203.594 416C209.421 409.833 224.473 398.1 238.06 400.5C251.646 402.9 250.714 421.166 248.549 430L221.077 520.5C216.081 533.166 194.902 558.7 150.147 559.5C105.391 560.3 83.5457 527.833 78.2176 511.5C72.0571 492.833 58.4374 450.4 53.2426 430C48.0477 409.6 59.0701 401.833 65.2307 400.5Z" fill="#115444"/>
<path d="M48.7467 204C45.9162 200.667 38.357 196 30.7645 204C23.172 212 10.6177 225.333 5.28967 231" stroke="#199675" stroke-width="4" stroke-linecap="round"/>
<path d="M257.041 204C259.872 200.667 267.431 196 275.023 204C282.616 212 295.17 225.333 300.498 231" stroke="#199675" stroke-width="4" stroke-linecap="round"/>
<path d="M223.02 285.86C217.58 376 190.593 402.36 150.591 402.36C110.59 402.36 87.2089 386 78.163 285.86C75.1661 203.36 110.145 177.5 150.147 177.5C190.148 177.5 225.572 200.5 223.02 285.86Z" fill="url(#paint1_linear_5191_5499)"/>
<path d="M207.692 286.778C203.387 358.133 182.029 379 150.371 379C118.714 379 100.209 366.049 93.0503 286.778C90.6786 221.471 118.362 201 150.019 201C181.677 201 209.712 219.207 207.692 286.778Z" fill="url(#paint2_linear_5191_5499)"/>
<path d="M135.161 15.9842C135.161 7.15638 142.318 0 151.146 0C159.973 0 167.13 7.15638 167.13 15.9842V62H135.161V15.9842Z" fill="#115444"/>
<path d="M128.168 75.9773C128.168 63.2873 138.456 53 151.146 53C163.836 53 174.123 63.2873 174.123 75.9773V130H128.168V75.9773Z" fill="#199675"/>
<path d="M125.171 196V222.5H180.117V196H125.171Z" fill="#535353"/>
<ellipse cx="152.145" cy="224.5" rx="27.9724" ry="11.5" fill="#BBBBBB"/>
<path d="M105.191 147.999C112.384 125.999 139.157 122.833 151.645 123.999C186.411 121.599 198.765 138.999 200.597 147.999C210.187 177.599 190.607 197.666 179.617 204H125.671C114.682 196.5 96.1999 175.499 105.191 147.999Z" fill="#0F453A"/>
<path d="M179.617 204H125.671C115.844 197.293 100.026 179.791 103.219 156.5C128.356 162.333 172.624 170.5 201.852 152.5C208.192 179.631 190.04 197.993 179.617 204Z" fill="#115444"/>
<path d="M151.413 126.489L151.615 126.507L151.817 126.493C185.59 124.162 196.614 140.964 198.147 148.498L198.175 148.636L198.218 148.77C198.692 150.23 199.09 151.664 199.418 153.069C205.294 178.218 188.916 195.464 178.935 201.5H126.456C116.991 194.759 102.752 178.313 105.695 156.839C106.052 154.235 106.662 151.545 107.567 148.776C110.854 138.724 118.611 132.88 127.302 129.656C136.035 126.416 145.461 125.933 151.413 126.489Z" stroke="#0F453A" stroke-width="5"/>
<path d="M150.646 301C124.245 301 112.351 323.167 109.687 335C96.3665 343.667 77.4185 367.9 108.188 395.5C142.554 450.7 182.448 418.5 198.099 395.5C225.272 365.1 207.423 342.5 195.102 335C191.273 324.167 182.615 301 150.646 301Z" fill="#222222"/>
<path d="M108.188 395.5C142.554 450.7 182.448 418.5 198.099 395.5C213.812 377.922 214.471 362.951 209.849 352L203.594 360C200.763 376.5 186.91 409.1 154.143 407.5C121.375 405.9 106.19 376.833 102.693 362.5L93.9226 353.5C89.2374 364.831 90.4701 379.608 108.188 395.5Z" fill="#111111"/>
<path d="M79.7162 192.5C71.3245 192.5 59.9024 197.5 55.2404 200L59.2364 209C66.4293 204.6 75.8866 203.833 79.7162 204H232.066C236.062 204 243.721 208.667 247.051 211L254.544 201.5C248.949 197.9 231.899 194 224.074 192.5H79.7162Z" fill="#115444"/>
<rect width="74.9624" height="14.9927" rx="7.49636" transform="matrix(0.712904 -0.701261 0.700557 0.713596 0 248.842)" fill="#199675"/>
<rect width="74.9624" height="14.9927" rx="7.49636" transform="matrix(-0.712904 -0.701261 -0.700557 0.713596 306 249.568)" fill="#199675"/>
<path d="M48.7468 241V259L28.267 263.5V251L14.9441 239.664C11.3666 236.62 11.169 231.164 14.5171 227.869L32.0984 210.569C35.2308 207.486 40.2631 207.508 43.3691 210.617L50.3016 217.556C51.2106 218.466 52.4917 218.9 53.7664 218.73C60.3176 217.856 64.2099 225.825 59.4927 230.454L48.7468 241Z" fill="#EA9E7C"/>
<path d="M255.543 241V259L276.022 263.5V251L289.345 239.664C292.923 236.62 293.12 231.164 289.772 227.869L272.191 210.569C269.059 207.486 264.026 207.508 260.92 210.617L253.988 217.556C253.079 218.466 251.798 218.9 250.523 218.73C243.972 217.856 240.079 225.825 244.797 230.454L255.543 241Z" fill="#EA9E7C"/>
<path d="M27.2679 259.5L50.7448 253C49.9122 274.167 59.5361 329.4 106.689 393C111.851 402.167 128.668 421.1 152.644 423.5C176.62 421.1 192.938 402.167 198.099 393C245.253 329.4 255.875 274.167 255.043 253L278.52 259.5C278.52 347.1 238.559 407.333 218.579 426.5L203.594 513.5C162.035 545.1 118.678 526.667 102.194 513.5L87.2087 426.5C67.2285 407.333 27.2679 347.1 27.2679 259.5Z" fill="#199675"/>
<path d="M27.2679 259.5L50.7448 253C50.6417 255.619 50.7065 258.806 50.9884 262.5L27.4092 268.5C27.3158 265.533 27.2679 262.533 27.2679 259.5Z" fill="#115444"/>
<path d="M278.52 259.5L255.043 253C255.146 255.619 255.081 258.806 254.799 262.5L278.379 268.5C278.472 265.533 278.52 262.533 278.52 259.5Z" fill="#115444"/>
</g>
<defs>
<linearGradient id="paint0_linear_5191_5499" x1="151.146" y1="529" x2="151.146" y2="698" gradientUnits="userSpaceOnUse">
<stop stop-color="#115444"/>
<stop offset="1" stop-color="#0F453A"/>
</linearGradient>
<linearGradient id="paint1_linear_5191_5499" x1="150.567" y1="177.5" x2="150.567" y2="402.36" gradientUnits="userSpaceOnUse">
<stop stop-color="#115444"/>
<stop offset="1" stop-color="#126A55"/>
</linearGradient>
<linearGradient id="paint2_linear_5191_5499" x1="150.352" y1="201" x2="150.352" y2="379" gradientUnits="userSpaceOnUse">
<stop stop-color="#126A55"/>
<stop offset="1" stop-color="#199675"/>
</linearGradient>
<clipPath id="clip0_5191_5499">
<rect width="306" height="793" fill="white"/>
</clipPath>
</defs>
</svg>
