<svg viewBox="0 0 20 17" id="camera" xmlns="http://www.w3.org/2000/svg">
    <path
        d="M4.93625 1.3377V0.585938C4.93625 0.262344 4.67391 6.87225e-10 4.35031 6.87225e-10H1.84074C1.51715 6.87225e-10 1.2548 0.262344 1.2548 0.585938V1.39535C1.44777 1.35706 1.64402 1.33775 1.84074 1.3377H4.93625ZM13.0305 0.323906C12.9819 0.226574 12.9071 0.144715 12.8145 0.087505C12.7219 0.030295 12.6153 -5.26892e-06 12.5064 6.87225e-10H7.4873C7.37849 -7.84494e-07 7.27182 0.0303014 7.17926 0.0875109C7.0867 0.14472 7.0119 0.226577 6.96324 0.323906L6.45633 1.33773H13.5374L13.0305 0.323906ZM18.153 2.50957H1.84074C0.84543 2.50957 0 3.31246 0 4.35027V14.3886C0 15.4287 0.847148 16.2293 1.84074 16.2293H18.153C19.1466 16.2293 19.9937 15.4288 19.9937 14.3886V4.35027C19.9937 3.31238 19.1483 2.50957 18.153 2.50957ZM9.99687 13.7198C7.59812 13.7198 5.64656 11.7682 5.64656 9.36945C5.86527 3.60613 14.1293 3.60766 14.3472 9.36949C14.3471 11.7682 12.3956 13.7198 9.99687 13.7198ZM16.8982 6.19102H15.6434C14.8668 6.16219 14.8674 5.0477 15.6434 5.01914H16.8982C17.6748 5.04797 17.6742 6.16246 16.8982 6.19102Z" />
    <path
        d="M9.9968 6.19092C8.24422 6.19092 6.81836 7.61674 6.81836 9.36936C6.97816 13.5802 13.0161 13.5791 13.1752 9.36932C13.1752 7.61674 11.7494 6.19092 9.9968 6.19092Z" />
</svg>