<svg viewBox="0 0 32 32" id="car" xmlns="http://www.w3.org/2000/svg">
    <path fill-rule="evenodd" clip-rule="evenodd"
        d="M2.66577 19.7373V28.3333C2.66577 28.8853 3.11377 29.3333 3.66577 29.3333H5.81777C6.05459 29.3333 6.28375 29.2493 6.46443 29.0962C6.64511 28.9431 6.7656 28.7309 6.80444 28.4973L7.33244 25.3333H24.6658L25.1924 28.4973C25.2313 28.7309 25.3518 28.9431 25.5324 29.0962C25.7131 29.2493 25.9423 29.3333 26.1791 29.3333H28.3324C28.5977 29.3333 28.852 29.2279 29.0395 29.0404C29.2271 28.8528 29.3324 28.5985 29.3324 28.3333V19.7373C29.3325 18.1698 28.8686 16.6374 27.9991 15.3333L26.9591 13.7733C26.8663 13.6344 26.7869 13.487 26.7218 13.3333H28.0471C28.2329 13.3332 28.415 13.2815 28.5731 13.1837C28.7311 13.086 28.8588 12.9462 28.9418 12.7799L29.2751 12.1133C29.3512 11.9609 29.3871 11.7916 29.3794 11.6215C29.3717 11.4514 29.3207 11.2861 29.2313 11.1412C29.1418 10.9963 29.0168 10.8766 28.8681 10.7936C28.7195 10.7105 28.5521 10.6668 28.3818 10.6666H26.1324L25.7191 8.60525C25.5934 7.97746 25.2895 7.39917 24.8438 6.93951C24.398 6.47985 23.8294 6.15829 23.2058 6.01325C21.2564 5.55992 18.8538 5.33325 15.9991 5.33325C13.1431 5.33325 10.7418 5.55992 8.79244 6.01325C8.16857 6.15806 7.59963 6.47953 7.15368 6.9392C6.70772 7.39887 6.40362 7.97729 6.27777 8.60525L5.86444 10.6666H3.61777C3.44748 10.6668 3.28008 10.7105 3.13141 10.7936C2.98275 10.8766 2.85776 10.9963 2.76829 11.1412C2.67882 11.2861 2.62783 11.4514 2.62016 11.6215C2.61248 11.7916 2.64838 11.9609 2.72444 12.1133L3.05777 12.7799C3.14067 12.946 3.26813 13.0857 3.4259 13.1834C3.58367 13.2811 3.76552 13.333 3.95111 13.3333H5.27777C5.21262 13.487 5.13316 13.6343 5.04044 13.7733L3.99911 15.3333C3.12977 16.6373 2.66577 18.1693 2.66577 19.7373ZM23.9471 13.3386C24.039 13.7997 24.1914 14.2467 24.4004 14.6679H7.59777C7.80711 14.2479 7.95911 13.8013 8.05111 13.3386L8.89377 9.12925C8.91865 9.0034 8.9793 8.8874 9.06846 8.79516C9.15762 8.70293 9.2715 8.63838 9.39644 8.60925C11.1271 8.20925 13.3324 7.99992 15.9991 7.99992C18.6658 7.99992 20.8711 8.20792 22.6018 8.61059C22.7268 8.63939 22.8408 8.70364 22.9302 8.79564C23.0196 8.88764 23.0806 9.00347 23.1058 9.12925L23.9471 13.3386ZM7.33244 21.3333C7.86287 21.3333 8.37158 21.1225 8.74665 20.7475C9.12173 20.3724 9.33244 19.8637 9.33244 19.3333C9.33244 18.8028 9.12173 18.2941 8.74665 17.919C8.37158 17.544 7.86287 17.3333 7.33244 17.3333C6.80201 17.3333 6.2933 17.544 5.91823 17.919C5.54315 18.2941 5.33244 18.8028 5.33244 19.3333C5.33244 19.8637 5.54315 20.3724 5.91823 20.7475C6.2933 21.1225 6.80201 21.3333 7.33244 21.3333ZM26.6658 19.3333C26.6658 19.8637 26.4551 20.3724 26.08 20.7475C25.7049 21.1225 25.1962 21.3333 24.6658 21.3333C24.1353 21.3333 23.6266 21.1225 23.2516 20.7475C22.8765 20.3724 22.6658 19.8637 22.6658 19.3333C22.6658 18.8028 22.8765 18.2941 23.2516 17.919C23.6266 17.544 24.1353 17.3333 24.6658 17.3333C25.1962 17.3333 25.7049 17.544 26.08 17.919C26.4551 18.2941 26.6658 18.8028 26.6658 19.3333Z"
        fill="white" />
</svg>