<svg viewBox="0 0 322 322" id="location" xmlns="http://www.w3.org/2000/svg">
<path d="M255.436 46.7864C255.893 43.4569 251.192 40.7199 247.663 40.4301C245.976 40.2949 244.23 40.5525 242.633 39.9986C239.181 38.7943 237.797 34.3314 234.429 32.9146C231.904 31.852 229 32.7987 226.559 34.0287C224.118 35.2588 221.697 36.8044 218.966 36.9783C216.59 37.1328 214.014 36.2505 211.934 37.4097C210.388 38.2727 209.577 40.063 208.147 41.1127C206.717 42.1625 204.927 42.3621 203.201 42.4523C201.475 42.5424 199.672 42.5682 198.094 43.2895C196.516 44.0107 195.209 45.6787 195.518 47.3853L255.436 46.7864Z" fill="#EBEBEB"/>
<path d="M77.6342 225.31H121.021L121.021 41.8275H77.6342L77.6342 225.31Z" fill="#EBEBEB"/>
<path d="M99.7428 80.1074H112.932V54.6952H99.7428V80.1074Z" fill="rgba(var(--white), 1)"/>
<path d="M105.964 80.1076C106.06 80.1076 106.144 74.4146 106.144 67.4014C106.144 60.3883 106.06 54.6953 105.964 54.6953C105.867 54.6953 105.79 60.3818 105.79 67.4014C105.79 74.421 105.867 80.1076 105.964 80.1076Z" fill="#E0E0E0"/>
<path d="M99.7427 63.5241C101.936 63.698 104.138 63.7561 106.337 63.698C108.537 63.7562 110.738 63.6982 112.932 63.5241C110.738 63.3457 108.537 63.2855 106.337 63.3438C104.137 63.2857 101.936 63.3459 99.7427 63.5241Z" fill="#E0E0E0"/>
<path d="M99.6719 72.6108C101.885 72.7847 104.105 72.8427 106.324 72.7847C108.541 72.8428 110.76 72.7848 112.97 72.6108C110.76 72.4367 108.541 72.3787 106.324 72.4369C104.105 72.3788 101.885 72.4368 99.6719 72.6108Z" fill="#E0E0E0"/>
<path d="M99.7428 113.299H112.932V87.8866H99.7428V113.299Z" fill="rgba(var(--white), 1)"/>
<path d="M105.964 113.299C106.06 113.299 106.144 107.612 106.144 100.593C106.144 93.5732 106.06 87.8867 105.964 87.8867C105.867 87.8867 105.79 93.5732 105.79 100.593C105.79 107.612 105.867 113.299 105.964 113.299Z" fill="#E0E0E0"/>
<path d="M99.7427 96.7163C101.936 96.8902 104.138 96.9482 106.337 96.8901C108.537 96.9484 110.738 96.8903 112.932 96.7163C110.738 96.5422 108.537 96.4842 106.337 96.5424C104.138 96.4843 101.936 96.5423 99.7427 96.7163Z" fill="#E0E0E0"/>
<path d="M99.6719 105.803C101.885 105.981 104.105 106.042 106.324 105.983C108.541 106.042 110.76 105.981 112.97 105.803C110.76 105.625 108.541 105.563 106.324 105.616C104.105 105.563 101.885 105.625 99.6719 105.803Z" fill="#E0E0E0"/>
<path d="M99.7428 146.497H112.932V121.085H99.7428V146.497Z" fill="rgba(var(--white), 1)"/>
<path d="M105.964 146.49C106.06 146.49 106.144 140.804 106.144 133.784C106.144 126.765 106.06 121.078 105.964 121.078C105.867 121.078 105.79 126.771 105.79 133.784C105.79 140.797 105.867 146.49 105.964 146.49Z" fill="#E0E0E0"/>
<path d="M99.7427 129.908C101.936 130.086 104.137 130.146 106.337 130.088C108.537 130.146 110.738 130.086 112.932 129.908C110.738 129.734 108.537 129.676 106.337 129.734C104.138 129.676 101.936 129.734 99.7427 129.908Z" fill="#E0E0E0"/>
<path d="M99.6719 139.001C101.885 139.175 104.105 139.233 106.324 139.175C108.541 139.233 110.76 139.175 112.97 139.001C110.76 138.819 108.541 138.758 106.324 138.821C104.105 138.759 101.884 138.819 99.6719 139.001Z" fill="#E0E0E0"/>
<path d="M99.7428 179.683H112.932V154.27H99.7428V179.683Z" fill="rgba(var(--white), 1)"/>
<path d="M105.964 179.676C106.06 179.676 106.144 173.983 106.144 166.97C106.144 159.957 106.06 154.264 105.964 154.264C105.867 154.264 105.79 159.95 105.79 166.97C105.79 173.989 105.867 179.676 105.964 179.676Z" fill="#E0E0E0"/>
<path d="M99.7427 163.106C101.936 163.28 104.138 163.338 106.337 163.28C108.537 163.338 110.738 163.28 112.932 163.106C110.739 162.924 108.537 162.864 106.337 162.926C104.137 162.864 101.936 162.924 99.7427 163.106Z" fill="#E0E0E0"/>
<path d="M99.6719 172.193C101.885 172.367 104.105 172.425 106.324 172.367C108.541 172.425 110.76 172.367 112.97 172.193C110.76 172.015 108.541 171.954 106.324 172.013C104.105 171.955 101.885 172.015 99.6719 172.193Z" fill="#E0E0E0"/>
<path d="M59.1771 225.31H90.791L90.791 41.8275H59.1771L59.1771 225.31Z" fill="#E0E0E0"/>
<path d="M67.7874 80.1074H80.9766V54.6952H67.7874V80.1074Z" fill="rgba(var(--white), 1)"/>
<path d="M74.0085 80.1076C74.1051 80.1076 74.1824 74.4146 74.1824 67.4014C74.1824 60.3883 74.1051 54.6953 74.0085 54.6953C73.9119 54.6953 73.8346 60.3818 73.8346 67.4014C73.8346 74.421 73.9119 80.1076 74.0085 80.1076Z" fill="#E0E0E0"/>
<path d="M67.7874 63.5241C69.9809 63.6982 72.1822 63.7562 74.3819 63.698C76.5816 63.7561 78.7829 63.698 80.9765 63.5241C78.7831 63.3459 76.5817 63.2857 74.3819 63.3438C72.1821 63.2855 69.9807 63.3457 67.7874 63.5241Z" fill="#E0E0E0"/>
<path d="M67.7166 72.6108C69.9274 72.7849 72.1458 72.8429 74.3626 72.7847C76.5817 72.843 78.8022 72.7849 81.0152 72.6108C78.8022 72.4367 76.5817 72.3787 74.3626 72.4369C72.1458 72.3787 69.9274 72.4368 67.7166 72.6108Z" fill="#E0E0E0"/>
<path d="M67.7874 113.576H80.9766V88.1639H67.7874V113.576Z" fill="rgba(var(--white), 1)"/>
<path d="M74.0085 113.569C74.1051 113.569 74.1824 107.883 74.1824 100.863C74.1824 93.8437 74.1051 88.1572 74.0085 88.1572C73.9119 88.1572 73.8346 93.8502 73.8346 100.863C73.8346 107.877 73.9119 113.569 74.0085 113.569Z" fill="#E0E0E0"/>
<path d="M67.7874 96.9868C69.9807 97.1652 72.1821 97.2254 74.3819 97.1671C76.5817 97.2252 78.7831 97.165 80.9765 96.9868C78.7829 96.8128 76.5816 96.7548 74.3819 96.8129C72.1822 96.7547 69.9809 96.8127 67.7874 96.9868Z" fill="#E0E0E0"/>
<path d="M67.7166 106.074C69.9269 106.256 72.1456 106.316 74.3626 106.254C76.5818 106.316 78.8026 106.256 81.0152 106.074C78.8022 105.9 76.5817 105.842 74.3626 105.9C72.1458 105.842 69.9274 105.9 67.7166 106.074Z" fill="#E0E0E0"/>
<path d="M67.7874 147.038H80.9766V121.626H67.7874V147.038Z" fill="rgba(var(--white), 1)"/>
<path d="M74.0085 147.038C74.1051 147.038 74.1824 141.352 74.1824 134.332C74.1824 127.312 74.1051 121.626 74.0085 121.626C73.9119 121.626 73.8346 127.312 73.8346 134.332C73.8346 141.352 73.9119 147.038 74.0085 147.038Z" fill="#E0E0E0"/>
<path d="M67.7874 130.456C69.9809 130.63 72.1822 130.688 74.3819 130.629C76.5816 130.687 78.7829 130.629 80.9765 130.456C78.7829 130.282 76.5816 130.224 74.3819 130.282C72.1822 130.223 69.9809 130.281 67.7874 130.456Z" fill="#E0E0E0"/>
<path d="M67.7166 139.542C69.9274 139.716 72.1458 139.775 74.3626 139.716C76.5817 139.775 78.8022 139.717 81.0152 139.542C78.8022 139.368 76.5817 139.31 74.3626 139.369C72.1458 139.31 69.9274 139.368 67.7166 139.542Z" fill="#E0E0E0"/>
<path d="M67.7874 180.501H80.9766V155.089H67.7874V180.501Z" fill="rgba(var(--white), 1)"/>
<path d="M74.0085 180.507C74.1051 180.507 74.1824 174.814 74.1824 167.801C74.1824 160.788 74.1051 155.095 74.0085 155.095C73.9119 155.095 73.8346 160.781 73.8346 167.801C73.8346 174.82 73.9119 180.507 74.0085 180.507Z" fill="#E0E0E0"/>
<path d="M67.7874 163.917C69.9805 164.1 72.1821 164.16 74.3819 164.098C76.5817 164.16 78.7833 164.1 80.9765 163.917C78.7829 163.744 76.5816 163.685 74.3819 163.744C72.1822 163.685 69.9809 163.743 67.7874 163.917Z" fill="#E0E0E0"/>
<path d="M67.7166 173.01C69.9274 173.184 72.1458 173.242 74.3626 173.184C76.5817 173.243 78.8022 173.185 81.0152 173.01C78.8024 172.832 76.5818 172.772 74.3626 172.83C72.1456 172.772 69.9271 172.832 67.7166 173.01Z" fill="#E0E0E0"/>
<path d="M99.7428 212.881H112.932V187.469H99.7428V212.881Z" fill="rgba(var(--white), 1)"/>
<path d="M105.964 212.881C106.06 212.881 106.144 207.194 106.144 200.175C106.144 193.155 106.06 187.469 105.964 187.469C105.867 187.469 105.79 193.155 105.79 200.175C105.79 207.194 105.867 212.881 105.964 212.881Z" fill="#E0E0E0"/>
<path d="M99.7427 196.298C101.936 196.472 104.138 196.53 106.337 196.472C108.537 196.53 110.738 196.472 112.932 196.298C110.738 196.124 108.537 196.066 106.337 196.124C104.138 196.066 101.936 196.124 99.7427 196.298Z" fill="#E0E0E0"/>
<path d="M99.6719 205.384C101.885 205.562 104.105 205.623 106.324 205.565C108.541 205.623 110.76 205.563 112.97 205.384C110.76 205.21 108.541 205.152 106.324 205.21C104.105 205.152 101.885 205.21 99.6719 205.384Z" fill="#E0E0E0"/>
<path d="M67.7874 213.969H80.9766V188.557H67.7874V213.969Z" fill="rgba(var(--white), 1)"/>
<path d="M74.0085 213.969C74.1051 213.969 74.1824 208.282 74.1824 201.263C74.1824 194.243 74.1051 188.557 74.0085 188.557C73.9119 188.557 73.8346 194.243 73.8346 201.263C73.8346 208.282 73.9119 213.969 74.0085 213.969Z" fill="#E0E0E0"/>
<path d="M67.7874 197.386C69.9809 197.56 72.1822 197.618 74.3819 197.56C76.5816 197.618 78.7829 197.56 80.9765 197.386C78.7829 197.212 76.5816 197.154 74.3819 197.212C72.1822 197.154 69.9809 197.212 67.7874 197.386Z" fill="#E0E0E0"/>
<path d="M67.7166 206.473C69.9271 206.651 72.1456 206.712 74.3626 206.653C76.5818 206.712 78.8024 206.652 81.0152 206.473C78.8022 206.299 76.5817 206.241 74.3626 206.299C72.1458 206.241 69.9274 206.299 67.7166 206.473Z" fill="#E0E0E0"/>
<path d="M33.1852 225.883H62.6804L62.6804 101.166H33.1852L33.1852 225.883Z" fill="#EBEBEB"/>
<path d="M48.2226 127.184H57.1871V109.912H48.2226V127.184Z" fill="rgba(var(--white), 1)"/>
<path d="M52.4538 127.184C52.5182 127.184 52.5697 123.32 52.5697 118.548C52.5697 113.776 52.5182 109.905 52.4538 109.905C52.3894 109.905 52.3314 113.769 52.3314 118.548C52.3314 123.326 52.3829 127.184 52.4538 127.184Z" fill="#E0E0E0"/>
<path d="M48.2227 115.92C49.7219 116.045 51.2269 116.086 52.7307 116.042C54.2344 116.086 55.7395 116.045 57.2387 115.92C55.739 115.803 54.2343 115.764 52.7307 115.804C51.227 115.764 49.7223 115.803 48.2227 115.92Z" fill="#E0E0E0"/>
<path d="M48.1776 122.083C49.6769 122.207 51.1818 122.248 52.6856 122.206C54.1894 122.248 55.6943 122.207 57.1936 122.083C55.6939 121.968 54.1893 121.929 52.6856 121.968C51.182 121.929 49.6773 121.968 48.1776 122.083Z" fill="#E0E0E0"/>
<path d="M48.2226 149.743H57.1871V132.471H48.2226V149.743Z" fill="rgba(var(--white), 1)"/>
<path d="M52.4538 149.743C52.5182 149.743 52.5697 145.879 52.5697 141.107C52.5697 136.335 52.5182 132.471 52.4538 132.471C52.3894 132.471 52.3314 136.335 52.3314 141.107C52.3314 145.879 52.3829 149.743 52.4538 149.743Z" fill="#E0E0E0"/>
<path d="M48.2227 138.46C49.7223 138.577 51.227 138.616 52.7307 138.576C54.2343 138.616 55.739 138.577 57.2387 138.46C55.7392 138.339 54.2344 138.298 52.7307 138.338C51.2269 138.298 49.7221 138.339 48.2227 138.46Z" fill="#E0E0E0"/>
<path d="M48.1776 144.649C49.6771 144.769 51.1818 144.81 52.6856 144.771C54.1894 144.81 55.6941 144.769 57.1936 144.649C55.6941 144.529 54.1894 144.488 52.6856 144.527C51.1818 144.488 49.6771 144.529 48.1776 144.649Z" fill="#E0E0E0"/>
<path d="M48.2226 172.303H57.1871V155.031H48.2226V172.303Z" fill="rgba(var(--white), 1)"/>
<path d="M52.4538 172.309C52.5182 172.309 52.5697 168.445 52.5697 163.673C52.5697 158.901 52.5182 155.037 52.4538 155.037C52.3894 155.037 52.3314 158.901 52.3314 163.673C52.3314 168.445 52.3829 172.309 52.4538 172.309Z" fill="#E0E0E0"/>
<path d="M48.2227 161.032C49.7219 161.157 51.2269 161.198 52.7307 161.155C54.2344 161.198 55.7395 161.157 57.2387 161.032C55.739 160.915 54.2343 160.877 52.7307 160.916C51.227 160.877 49.7223 160.915 48.2227 161.032Z" fill="#E0E0E0"/>
<path d="M48.1776 167.215C49.6773 167.331 51.182 167.369 52.6856 167.331C54.1893 167.369 55.6939 167.33 57.1936 167.215C55.6943 167.091 54.1894 167.05 52.6856 167.092C51.1818 167.05 49.6769 167.091 48.1776 167.215Z" fill="#E0E0E0"/>
<path d="M48.2226 194.875H57.1871V177.603H48.2226V194.875Z" fill="rgba(var(--white), 1)"/>
<path d="M52.4538 194.868C52.5182 194.868 52.5697 191.004 52.5697 186.232C52.5697 181.46 52.5182 177.596 52.4538 177.596C52.3894 177.596 52.3314 181.46 52.3314 186.232C52.3314 191.004 52.3829 194.868 52.4538 194.868Z" fill="#E0E0E0"/>
<path d="M48.2227 183.598C49.7221 183.719 51.2269 183.76 52.7307 183.72C54.2344 183.76 55.7392 183.719 57.2387 183.598C55.7392 183.477 54.2344 183.436 52.7307 183.476C51.2269 183.436 49.7221 183.477 48.2227 183.598Z" fill="#E0E0E0"/>
<path d="M48.1776 189.774C49.6769 189.898 51.1818 189.939 52.6856 189.896C54.1894 189.939 55.6943 189.898 57.1936 189.774C55.6939 189.658 54.1893 189.62 52.6856 189.658C51.182 189.619 49.6773 189.658 48.1776 189.774Z" fill="#E0E0E0"/>
<path d="M20.6466 225.883H42.1368L42.1368 101.166H20.6466L20.6466 225.883Z" fill="#E0E0E0"/>
<path d="M26.5005 127.184H35.465V109.912H26.5005V127.184Z" fill="rgba(var(--white), 1)"/>
<path d="M30.7316 127.184C30.796 127.184 30.8475 123.32 30.8475 118.548C30.8475 113.776 30.796 109.905 30.7316 109.905C30.6672 109.905 30.6093 113.769 30.6093 118.548C30.6093 123.326 30.6608 127.184 30.7316 127.184Z" fill="#E0E0E0"/>
<path d="M26.5005 115.92C27.9997 116.045 29.5047 116.086 31.0085 116.042C32.5123 116.086 34.0173 116.045 35.5165 115.92C34.0169 115.803 32.5121 115.764 31.0085 115.804C29.5048 115.764 28.0001 115.803 26.5005 115.92Z" fill="#E0E0E0"/>
<path d="M26.4554 122.083C27.9547 122.207 29.4597 122.248 30.9634 122.206C32.4672 122.248 33.9722 122.207 35.4714 122.083C33.9717 121.968 32.4671 121.929 30.9634 121.968C29.4598 121.929 27.9551 121.968 26.4554 122.083Z" fill="#E0E0E0"/>
<path d="M26.5005 149.93H35.465V132.658H26.5005V149.93Z" fill="rgba(var(--white), 1)"/>
<path d="M30.7316 149.93C30.796 149.93 30.8475 146.066 30.8475 141.294C30.8475 136.522 30.796 132.664 30.7316 132.664C30.6672 132.664 30.6093 136.528 30.6093 141.3C30.6093 146.072 30.6608 149.93 30.7316 149.93Z" fill="#E0E0E0"/>
<path d="M26.5005 138.66C28.0001 138.777 29.5048 138.815 31.0085 138.776C32.5121 138.815 34.0169 138.777 35.5165 138.66C34.0173 138.535 32.5123 138.494 31.0085 138.537C29.5047 138.494 27.9997 138.535 26.5005 138.66Z" fill="#E0E0E0"/>
<path d="M26.4554 144.836C27.9551 144.951 29.4598 144.99 30.9634 144.952C32.4671 144.99 33.9717 144.951 35.4714 144.836C33.972 144.716 32.4672 144.675 30.9634 144.713C29.4597 144.675 27.9549 144.716 26.4554 144.836Z" fill="#E0E0E0"/>
<path d="M26.5005 172.676H35.465V155.404H26.5005V172.676Z" fill="rgba(var(--white), 1)"/>
<path d="M30.7316 172.676C30.796 172.676 30.8475 168.812 30.8475 164.04C30.8475 159.268 30.796 155.404 30.7316 155.404C30.6672 155.404 30.6093 159.268 30.6093 164.04C30.6093 168.812 30.6608 172.676 30.7316 172.676Z" fill="#E0E0E0"/>
<path d="M26.5005 161.406C27.9999 161.527 29.5047 161.568 31.0085 161.528C32.5123 161.568 34.0171 161.527 35.5165 161.406C34.0171 161.284 32.5123 161.244 31.0085 161.283C29.5047 161.244 27.9999 161.284 26.5005 161.406Z" fill="#E0E0E0"/>
<path d="M26.4554 167.582C27.9549 167.702 29.4597 167.742 30.9634 167.704C32.4672 167.742 33.972 167.701 35.4714 167.582C33.9717 167.466 32.4671 167.427 30.9634 167.466C29.4598 167.427 27.9551 167.466 26.4554 167.582Z" fill="#E0E0E0"/>
<path d="M26.5005 195.429H35.465V178.157H26.5005V195.429Z" fill="rgba(var(--white), 1)"/>
<path d="M30.7316 195.428C30.796 195.428 30.8475 191.564 30.8475 186.792C30.8475 182.02 30.796 178.149 30.7316 178.149C30.6672 178.149 30.6093 182.013 30.6093 186.792C30.6093 191.57 30.6608 195.428 30.7316 195.428Z" fill="#E0E0E0"/>
<path d="M26.5005 184.184C27.9997 184.309 29.5047 184.35 31.0085 184.306C32.5123 184.35 34.0173 184.309 35.5165 184.184C34.0169 184.067 32.5121 184.028 31.0085 184.068C29.5048 184.028 28.0001 184.067 26.5005 184.184Z" fill="#E0E0E0"/>
<path d="M26.4554 190.334C27.9551 190.45 29.4598 190.488 30.9634 190.45C32.4671 190.488 33.9717 190.45 35.4714 190.334C33.9722 190.21 32.4672 190.169 30.9634 190.212C29.4597 190.169 27.9547 190.21 26.4554 190.334Z" fill="#E0E0E0"/>
<path d="M48.2226 217.434H57.1871V200.162H48.2226V217.434Z" fill="rgba(var(--white), 1)"/>
<path d="M52.4538 217.434C52.5182 217.434 52.5697 213.57 52.5697 208.798C52.5697 204.026 52.5182 200.162 52.4538 200.162C52.3894 200.162 52.3314 204.026 52.3314 208.798C52.3314 213.57 52.3829 217.434 52.4538 217.434Z" fill="#E0E0E0"/>
<path d="M48.2227 206.164C49.7223 206.28 51.227 206.319 52.7307 206.28C54.2343 206.319 55.739 206.28 57.2387 206.164C55.7395 206.039 54.2344 205.998 52.7307 206.041C51.2269 205.998 49.7219 206.039 48.2227 206.164Z" fill="#E0E0E0"/>
<path d="M48.1776 212.34C49.6771 212.46 51.1818 212.5 52.6856 212.462C54.1894 212.5 55.6941 212.459 57.1936 212.34C55.6941 212.22 54.1894 212.179 52.6856 212.217C51.1818 212.179 49.6771 212.219 48.1776 212.34Z" fill="#E0E0E0"/>
<path d="M26.5005 218.175H35.465V200.903H26.5005V218.175Z" fill="rgba(var(--white), 1)"/>
<path d="M30.7316 218.174C30.796 218.174 30.8475 214.31 30.8475 209.538C30.8475 204.766 30.796 200.928 30.7316 200.928C30.6672 200.928 30.6093 204.792 30.6093 209.564C30.6093 214.336 30.6608 218.174 30.7316 218.174Z" fill="#E0E0E0"/>
<path d="M26.5005 206.905C28.0001 207.022 29.5048 207.06 31.0085 207.021C32.5121 207.06 34.0169 207.022 35.5165 206.905C34.0173 206.78 32.5123 206.739 31.0085 206.782C29.5047 206.739 27.9997 206.78 26.5005 206.905Z" fill="#E0E0E0"/>
<path d="M26.4554 213.081C27.9549 213.201 29.4597 213.242 30.9634 213.203C32.4672 213.241 33.972 213.201 35.4714 213.081C33.972 212.961 32.4672 212.92 30.9634 212.958C29.4597 212.92 27.9549 212.961 26.4554 213.081Z" fill="#E0E0E0"/>
<path d="M278.485 225.51H303.021V121.755H278.485V225.51Z" fill="#EBEBEB"/>
<path d="M290.985 143.399H298.442V129.032H290.985V143.399Z" fill="rgba(var(--white), 1)"/>
<path d="M294.501 143.4C294.559 143.4 294.604 140.18 294.604 136.213C294.604 132.246 294.559 129.032 294.501 129.032C294.443 129.032 294.405 132.252 294.405 136.213C294.405 140.173 294.45 143.4 294.501 143.4Z" fill="#E0E0E0"/>
<path d="M290.985 134.023C293.469 134.152 295.958 134.152 298.442 134.023C295.958 133.886 293.469 133.886 290.985 134.023Z" fill="#E0E0E0"/>
<path d="M290.946 139.162C293.452 139.29 295.963 139.29 298.468 139.162C295.963 139.024 293.452 139.024 290.946 139.162Z" fill="#E0E0E0"/>
<path d="M290.985 162.172H298.442V147.804H290.985V162.172Z" fill="rgba(var(--white), 1)"/>
<path d="M294.501 162.172C294.559 162.172 294.604 158.952 294.604 154.985C294.604 151.018 294.559 147.798 294.501 147.798C294.443 147.798 294.405 151.018 294.405 154.985C294.405 158.952 294.45 162.172 294.501 162.172Z" fill="#E0E0E0"/>
<path d="M290.985 152.795C293.469 152.924 295.958 152.924 298.442 152.795C295.958 152.658 293.469 152.658 290.985 152.795Z" fill="#E0E0E0"/>
<path d="M290.946 157.929C293.452 158.066 295.963 158.066 298.468 157.929C295.963 157.8 293.452 157.8 290.946 157.929Z" fill="#E0E0E0"/>
<path d="M290.985 180.938H298.442V166.571H290.985V180.938Z" fill="rgba(var(--white), 1)"/>
<path d="M294.501 180.964C294.559 180.964 294.604 177.744 294.604 173.784C294.604 169.823 294.559 166.597 294.501 166.597C294.443 166.597 294.405 169.817 294.405 173.784C294.405 177.751 294.45 180.964 294.501 180.964Z" fill="#E0E0E0"/>
<path d="M290.985 171.561C293.469 171.699 295.958 171.699 298.442 171.561C295.958 171.433 293.469 171.433 290.985 171.561Z" fill="#E0E0E0"/>
<path d="M290.946 176.701C293.452 176.838 295.963 176.838 298.468 176.701C295.963 176.572 293.452 176.572 290.946 176.701Z" fill="#E0E0E0"/>
<path d="M290.985 199.711H298.442V185.343H290.985V199.711Z" fill="rgba(var(--white), 1)"/>
<path d="M294.501 199.711C294.559 199.711 294.604 196.491 294.604 192.524C294.604 188.557 294.559 185.337 294.501 185.337C294.443 185.337 294.405 188.557 294.405 192.524C294.405 196.491 294.45 199.711 294.501 199.711Z" fill="#E0E0E0"/>
<path d="M290.985 190.334C293.469 190.463 295.958 190.463 298.442 190.334C295.958 190.197 293.469 190.197 290.985 190.334Z" fill="#E0E0E0"/>
<path d="M290.946 195.473C293.452 195.602 295.963 195.602 298.468 195.473C295.963 195.336 293.452 195.336 290.946 195.473Z" fill="#E0E0E0"/>
<path d="M268.046 225.51H285.923V121.755H268.046V225.51Z" fill="#E0E0E0"/>
<path d="M272.914 143.399H280.372V129.032H272.914V143.399Z" fill="rgba(var(--white), 1)"/>
<path d="M276.437 143.4C276.489 143.4 276.534 140.18 276.534 136.213C276.534 132.246 276.489 129.032 276.437 129.032C276.386 129.032 276.334 132.252 276.334 136.213C276.334 140.173 276.379 143.4 276.437 143.4Z" fill="#E0E0E0"/>
<path d="M272.914 134.023C275.398 134.152 277.888 134.152 280.372 134.023C277.888 133.886 275.398 133.886 272.914 134.023Z" fill="#E0E0E0"/>
<path d="M272.875 139.162C275.381 139.29 277.892 139.29 280.397 139.162C277.892 139.024 275.381 139.024 272.875 139.162Z" fill="#E0E0E0"/>
<path d="M272.914 162.327H280.372V147.96H272.914V162.327Z" fill="rgba(var(--white), 1)"/>
<path d="M276.437 162.327C276.489 162.327 276.534 159.107 276.534 155.14C276.534 151.173 276.489 147.953 276.437 147.953C276.386 147.953 276.334 151.173 276.334 155.14C276.334 159.107 276.379 162.327 276.437 162.327Z" fill="#E0E0E0"/>
<path d="M272.914 152.943C275.398 153.081 277.888 153.081 280.372 152.943C277.888 152.814 275.398 152.814 272.914 152.943Z" fill="#E0E0E0"/>
<path d="M272.875 158.083C275.381 158.22 277.892 158.22 280.397 158.083C277.892 157.954 275.381 157.954 272.875 158.083Z" fill="#E0E0E0"/>
<path d="M272.914 181.247H280.372V166.879H272.914V181.247Z" fill="rgba(var(--white), 1)"/>
<path d="M276.437 181.248C276.489 181.248 276.534 178.028 276.534 174.06C276.534 170.093 276.489 166.88 276.437 166.88C276.386 166.88 276.334 170.1 276.334 174.06C276.334 178.021 276.379 181.248 276.437 181.248Z" fill="#E0E0E0"/>
<path d="M272.914 171.871C275.398 171.999 277.888 171.999 280.372 171.871C277.888 171.733 275.398 171.733 272.914 171.871Z" fill="#E0E0E0"/>
<path d="M272.875 177.01C275.381 177.139 277.892 177.139 280.397 177.01C277.892 176.873 275.381 176.873 272.875 177.01Z" fill="#E0E0E0"/>
<path d="M272.914 200.175H280.372V185.807H272.914V200.175Z" fill="rgba(var(--white), 1)"/>
<path d="M276.437 200.175C276.489 200.175 276.534 196.955 276.534 192.988C276.534 189.021 276.489 185.801 276.437 185.801C276.386 185.801 276.334 189.021 276.334 192.988C276.334 196.955 276.379 200.175 276.437 200.175Z" fill="#E0E0E0"/>
<path d="M272.914 190.792C275.398 190.929 277.888 190.929 280.372 190.792C277.888 190.663 275.398 190.663 272.914 190.792Z" fill="#E0E0E0"/>
<path d="M272.875 195.931C275.381 196.068 277.892 196.068 280.397 195.931C277.892 195.802 275.381 195.802 272.875 195.931Z" fill="#E0E0E0"/>
<path d="M290.985 218.478H298.442V204.11H290.985V218.478Z" fill="rgba(var(--white), 1)"/>
<path d="M294.501 218.477C294.559 218.477 294.604 215.257 294.604 211.296C294.604 207.336 294.559 204.109 294.501 204.109C294.443 204.109 294.405 207.329 294.405 211.296C294.405 215.263 294.45 218.477 294.501 218.477Z" fill="#E0E0E0"/>
<path d="M290.985 209.101C293.469 209.238 295.958 209.238 298.442 209.101C295.958 208.972 293.469 208.972 290.985 209.101Z" fill="#E0E0E0"/>
<path d="M290.946 214.239C293.452 214.377 295.963 214.377 298.468 214.239C295.963 214.11 293.452 214.11 290.946 214.239Z" fill="#E0E0E0"/>
<path d="M272.914 219.096H280.372V204.728H272.914V219.096Z" fill="rgba(var(--white), 1)"/>
<path d="M276.437 219.095C276.489 219.095 276.534 215.875 276.534 211.908C276.534 207.941 276.489 204.728 276.437 204.728C276.386 204.728 276.334 207.948 276.334 211.908C276.334 215.869 276.379 219.095 276.437 219.095Z" fill="#E0E0E0"/>
<path d="M272.914 209.718C275.398 209.847 277.888 209.847 280.372 209.718C277.888 209.581 275.398 209.581 272.914 209.718Z" fill="#E0E0E0"/>
<path d="M272.875 214.858C275.381 214.987 277.892 214.987 280.397 214.858C277.892 214.721 275.381 214.721 272.875 214.858Z" fill="#E0E0E0"/>
<path d="M239.471 226.083H268.967V101.366H239.471V226.083Z" fill="#EBEBEB"/>
<path d="M254.509 127.377H263.473V110.105H254.509V127.377Z" fill="rgba(var(--white), 1)"/>
<path d="M258.733 127.377C258.798 127.377 258.856 123.513 258.856 118.741C258.856 113.968 258.798 110.104 258.733 110.104C258.669 110.104 258.611 113.968 258.611 118.741C258.611 123.513 258.669 127.377 258.733 127.377Z" fill="#E0E0E0"/>
<path d="M254.502 116.107C257.488 116.261 260.481 116.261 263.467 116.107C260.481 115.944 257.488 115.944 254.502 116.107Z" fill="#E0E0E0"/>
<path d="M254.457 122.283C257.46 122.445 260.47 122.445 263.473 122.283C260.47 122.121 257.46 122.121 254.457 122.283Z" fill="#E0E0E0"/>
<path d="M254.509 149.942H263.473V132.67H254.509V149.942Z" fill="rgba(var(--white), 1)"/>
<path d="M258.733 149.943C258.798 149.943 258.856 146.079 258.856 141.307C258.856 136.535 258.798 132.664 258.733 132.664C258.669 132.664 258.611 136.528 258.611 141.307C258.611 146.085 258.669 149.943 258.733 149.943Z" fill="#E0E0E0"/>
<path d="M254.502 138.667C257.488 138.83 260.481 138.83 263.467 138.667C260.481 138.512 257.488 138.512 254.502 138.667Z" fill="#E0E0E0"/>
<path d="M254.457 144.848C257.461 145.002 260.47 145.002 263.473 144.848C260.47 144.686 257.46 144.686 254.457 144.848Z" fill="#E0E0E0"/>
<path d="M254.509 172.502H263.473V155.23H254.509V172.502Z" fill="rgba(var(--white), 1)"/>
<path d="M258.733 172.502C258.798 172.502 258.856 168.638 258.856 163.866C258.856 159.093 258.798 155.229 258.733 155.229C258.669 155.229 258.611 159.093 258.611 163.866C258.611 168.638 258.669 172.502 258.733 172.502Z" fill="#E0E0E0"/>
<path d="M254.502 161.232C257.488 161.395 260.481 161.395 263.467 161.232C260.481 161.069 257.488 161.069 254.502 161.232Z" fill="#E0E0E0"/>
<path d="M254.457 167.441C257.46 167.603 260.47 167.603 263.473 167.441C260.47 167.287 257.461 167.287 254.457 167.441Z" fill="#E0E0E0"/>
<path d="M254.509 195.067H263.473V177.795H254.509V195.067Z" fill="rgba(var(--white), 1)"/>
<path d="M258.733 195.068C258.798 195.068 258.856 191.204 258.856 186.432C258.856 181.66 258.798 177.796 258.733 177.796C258.669 177.796 258.611 181.66 258.611 186.432C258.611 191.204 258.669 195.068 258.733 195.068Z" fill="#E0E0E0"/>
<path d="M254.502 183.798C257.488 183.953 260.481 183.953 263.467 183.798C260.481 183.635 257.488 183.635 254.502 183.798Z" fill="#E0E0E0"/>
<path d="M254.457 189.98C257.461 190.134 260.47 190.134 263.473 189.98C260.47 189.818 257.46 189.818 254.457 189.98Z" fill="#E0E0E0"/>
<path d="M226.926 226.083H248.417L248.417 101.366H226.926V226.083Z" fill="#E0E0E0"/>
<path d="M232.78 127.377H241.745V110.105H232.78V127.377Z" fill="rgba(var(--white), 1)"/>
<path d="M236.992 127.377C237.056 127.377 237.114 123.513 237.114 118.741C237.114 113.969 237.076 110.124 236.992 110.124C236.908 110.124 236.87 113.988 236.87 118.76C236.87 123.532 236.947 127.377 236.992 127.377Z" fill="#E0E0E0"/>
<path d="M232.78 116.107C235.766 116.261 238.759 116.261 241.745 116.107C238.759 115.944 235.766 115.944 232.78 116.107Z" fill="#E0E0E0"/>
<path d="M232.735 122.283C235.738 122.445 238.748 122.445 241.751 122.283C238.748 122.121 235.738 122.121 232.735 122.283Z" fill="#E0E0E0"/>
<path d="M232.78 150.13H241.745V132.858H232.78V150.13Z" fill="rgba(var(--white), 1)"/>
<path d="M236.992 150.129C237.056 150.129 237.114 146.265 237.114 141.487C237.114 136.708 237.056 132.851 236.992 132.851C236.928 132.851 236.87 136.715 236.87 141.487C236.87 146.259 236.947 150.129 236.992 150.129Z" fill="#E0E0E0"/>
<path d="M232.78 138.853C235.766 139.016 238.759 139.016 241.745 138.853C238.759 138.69 235.766 138.69 232.78 138.853Z" fill="#E0E0E0"/>
<path d="M232.735 145.029C235.738 145.191 238.748 145.191 241.751 145.029C238.748 144.875 235.738 144.875 232.735 145.029Z" fill="#E0E0E0"/>
<path d="M232.78 172.869H241.745V155.597H232.78V172.869Z" fill="rgba(var(--white), 1)"/>
<path d="M236.992 172.876C237.056 172.876 237.114 169.012 237.114 164.24C237.114 159.468 237.056 155.604 236.992 155.604C236.928 155.604 236.87 159.468 236.87 164.24C236.87 169.012 236.947 172.876 236.992 172.876Z" fill="#E0E0E0"/>
<path d="M232.78 161.599C235.766 161.762 238.759 161.762 241.745 161.599C238.759 161.445 235.766 161.445 232.78 161.599Z" fill="#E0E0E0"/>
<path d="M232.735 167.781C235.738 167.935 238.748 167.935 241.751 167.781C238.748 167.619 235.738 167.619 232.735 167.781Z" fill="#E0E0E0"/>
<path d="M232.78 195.622H241.745V178.35H232.78V195.622Z" fill="rgba(var(--white), 1)"/>
<path d="M236.992 195.622C237.056 195.622 237.114 191.758 237.114 186.986C237.114 182.214 237.056 178.35 236.992 178.35C236.928 178.35 236.87 182.214 236.87 186.986C236.87 191.758 236.947 195.622 236.992 195.622Z" fill="#E0E0E0"/>
<path d="M232.78 184.352C235.766 184.506 238.759 184.506 241.745 184.352C238.759 184.189 235.766 184.189 232.78 184.352Z" fill="#E0E0E0"/>
<path d="M232.735 190.528C235.738 190.691 238.748 190.691 241.751 190.528C238.748 190.366 235.738 190.366 232.735 190.528Z" fill="#E0E0E0"/>
<path d="M254.509 217.634H263.473V200.362H254.509V217.634Z" fill="rgba(var(--white), 1)"/>
<path d="M258.733 217.634C258.798 217.634 258.856 213.77 258.856 208.992C258.856 204.213 258.798 200.355 258.733 200.355C258.669 200.355 258.611 204.219 258.611 208.992C258.611 213.764 258.669 217.634 258.733 217.634Z" fill="#E0E0E0"/>
<path d="M254.502 206.357C257.488 206.52 260.481 206.52 263.467 206.357C260.481 206.203 257.488 206.203 254.502 206.357Z" fill="#E0E0E0"/>
<path d="M254.457 212.52C257.46 212.682 260.47 212.682 263.473 212.52C260.47 212.366 257.461 212.366 254.457 212.52Z" fill="#E0E0E0"/>
<path d="M232.78 218.374H241.745V201.102H232.78V218.374Z" fill="rgba(var(--white), 1)"/>
<path d="M236.992 218.374C237.056 218.374 237.114 214.51 237.114 209.732C237.114 204.953 237.056 201.096 236.992 201.096C236.928 201.096 236.87 204.96 236.87 209.732C236.87 214.504 236.947 218.374 236.992 218.374Z" fill="#E0E0E0"/>
<path d="M232.78 207.097C235.766 207.261 238.759 207.261 241.745 207.097C238.759 206.943 235.766 206.943 232.78 207.097Z" fill="#E0E0E0"/>
<path d="M232.735 213.274C235.738 213.436 238.748 213.436 241.751 213.274C238.748 213.12 235.738 213.12 232.735 213.274Z" fill="#E0E0E0"/>
<path d="M208.321 308.586C208.321 309.797 199.048 310.776 187.604 310.776C176.16 310.776 166.886 309.797 166.886 308.586C166.886 307.375 176.16 306.396 187.604 306.396C199.048 306.396 208.321 307.382 208.321 308.586Z" fill="#E0E0E0"/>
<path d="M50.1869 63.0224C50.1817 60.3533 49.5622 57.7213 48.3763 55.3301C47.1903 52.939 45.4699 50.853 43.3481 49.2336C41.2264 47.6143 38.7603 46.5052 36.141 45.9922C33.5217 45.4792 30.8194 45.576 28.2436 46.2753C25.6677 46.9745 23.2874 48.2574 21.287 50.0245C19.2867 51.7916 17.72 53.9954 16.7083 56.4653C15.6967 58.9353 15.2672 61.6049 15.4532 64.2675C15.6391 66.9301 16.4356 69.5142 17.7808 71.8195L17.8323 71.8839C18.4763 73.0044 19.3328 73.8159 20.1765 74.9944L30.2679 88.3831C30.5617 88.7701 30.941 89.0839 31.3761 89.2999C31.8113 89.5159 32.2905 89.6283 32.7763 89.6283C33.2621 89.6283 33.7414 89.5159 34.1765 89.2999C34.6117 89.0839 34.991 88.7701 35.2847 88.3831L45.2216 75.2133C46.1264 74.1462 46.9692 73.0281 47.7461 71.8645L47.7847 71.8195C49.3585 69.155 50.1881 66.1169 50.1869 63.0224ZM32.7989 70.6023C31.2821 70.6061 29.7982 70.1598 28.5353 69.3197C27.2723 68.4797 26.2871 67.2837 25.7042 65.8834C25.1214 64.483 24.9673 62.9412 25.2613 61.4531C25.5554 59.9651 26.2844 58.5978 27.356 57.5243C28.4276 56.4509 29.7937 55.7196 31.2813 55.423C32.7688 55.1265 34.3109 55.278 35.7123 55.8585C37.1136 56.4389 38.3112 57.4222 39.1534 58.6837C39.9955 59.9453 40.4444 61.4283 40.4431 62.9451C40.4431 63.9512 40.2449 64.9475 39.8597 65.8769C39.4744 66.8063 38.9098 67.6507 38.1981 68.3619C37.4864 69.073 36.6415 69.6369 35.7118 70.0213C34.782 70.4057 33.7856 70.6031 32.7795 70.6023H32.7989Z" fill="rgba(var(--white), 1)"/>
<path d="M301.682 71.3682C301.971 69.2301 298.951 67.4655 296.684 67.2852C295.602 67.2015 294.475 67.3625 293.464 67.0083C291.242 66.229 290.354 63.3632 288.183 62.4488C286.567 61.7661 284.699 62.3715 283.128 63.1636C281.557 63.9557 280.005 64.9475 278.246 65.0956C276.72 65.1922 275.065 64.6255 273.738 65.3725C272.747 65.9264 272.225 67.0727 271.304 67.7489C270.35 68.3384 269.244 68.6382 268.123 68.6118C267.004 68.5854 265.89 68.7689 264.838 69.1528C263.827 69.6165 262.99 70.6855 263.196 71.7803L301.682 71.3682Z" fill="rgba(var(--white), 1)"/>
<path d="M156.846 25.0389C157.149 22.8171 154.013 20.9881 151.656 20.7949C150.535 20.7048 149.369 20.8787 148.3 20.5051C145.995 19.7001 145.08 16.7249 142.82 15.7717C141.139 15.0633 139.201 15.6945 137.571 16.5188C135.942 17.3431 134.351 18.3735 132.503 18.4894C130.919 18.586 129.199 18 127.808 18.7728C126.778 19.3524 126.237 20.5438 125.284 21.2457C124.292 21.8564 123.145 22.1673 121.98 22.1409C120.819 22.1135 119.664 22.3035 118.573 22.7012C117.517 23.1842 116.641 24.2919 116.867 25.4317L156.846 25.0389Z" fill="rgba(var(--white), 1)"/>
<path d="M307.652 300.915C307.652 301.012 241.964 301.083 161.006 301.083C80.0491 301.083 14.3483 301.012 14.3483 300.915C14.3483 300.819 79.9976 300.748 161 300.748C242.002 300.748 307.652 300.825 307.652 300.915Z" fill="#1F1F1F"/>
<path d="M78.568 273.771C79.1883 274.066 79.7425 274.483 80.1974 274.998C80.6522 275.512 80.9983 276.114 81.2149 276.766C81.6418 278.075 81.763 279.465 81.5691 280.829C81.2664 283.463 79.7723 286.123 78.1623 288.222C75.9405 286.29 75.4317 282.909 75.2836 281.183C75.0389 278.446 76.2689 273.365 78.568 273.771Z" fill="rgba(var(--content-color), 1)"/>
<path d="M80.719 292.569C80.5676 291.817 80.6184 291.038 80.8661 290.312C81.1139 289.585 81.5497 288.938 82.1293 288.435C82.7151 287.939 83.3941 287.566 84.1262 287.337C84.8584 287.108 85.629 287.028 86.3926 287.102C86.7471 287.096 87.0985 287.168 87.4222 287.313C87.7459 287.458 88.0341 287.671 88.2666 287.939C88.4342 288.225 88.5225 288.551 88.5225 288.882C88.5225 289.214 88.4342 289.539 88.2666 289.826C87.9305 290.4 87.4484 290.876 86.8692 291.204C84.9372 292.408 82.8699 293.226 80.6932 292.569" fill="rgba(var(--content-color), 1)"/>
<path d="M77.8724 300.652C77.8844 300.469 77.9124 300.288 77.9562 300.111C78.027 299.724 78.1172 299.235 78.2202 298.642C78.4689 297.015 78.98 295.438 79.7336 293.973C80.5159 292.51 81.6712 291.279 83.0824 290.406C83.5144 290.153 83.9749 289.952 84.4541 289.807C84.5826 289.764 84.7138 289.729 84.847 289.704C84.8938 289.695 84.9418 289.695 84.9886 289.704C84.3515 289.923 83.7369 290.204 83.1532 290.541C81.7897 291.431 80.6715 292.649 79.901 294.083C79.1591 295.534 78.6382 297.089 78.3554 298.694C78.2202 299.338 78.1107 299.802 78.027 300.143C77.9917 300.317 77.9399 300.487 77.8724 300.652Z" fill="#1F1F1F"/>
<path d="M77.9562 277.726C77.9654 277.805 77.9654 277.885 77.9562 277.964C77.9562 278.136 77.9691 278.361 77.9948 278.64C77.9948 279.233 78.0592 280.083 78.0914 281.139C78.1623 283.251 78.2138 286.168 78.2009 289.388C78.188 292.608 78.1108 295.532 78.0206 297.638C77.982 298.694 77.9369 299.57 77.8982 300.137C77.8982 300.42 77.866 300.639 77.8532 300.819C77.8601 300.897 77.8601 300.974 77.8532 301.051C77.8431 300.972 77.8431 300.892 77.8532 300.813C77.8532 300.639 77.8532 300.414 77.8532 300.137C77.8532 299.493 77.8532 298.675 77.9111 297.638C77.9626 295.526 78.0206 292.608 78.0335 289.388C78.0464 286.168 78.0335 283.258 77.982 281.145C77.982 280.108 77.982 279.258 77.9433 278.647V277.964C77.9407 277.884 77.945 277.804 77.9562 277.726Z" fill="#1F1F1F"/>
<path d="M76.8807 294.173C76.6125 292.577 75.9679 291.068 75.0003 289.771C74.0327 288.474 72.7698 287.427 71.3165 286.715C70.5759 286.361 69.6099 286.129 68.9981 286.677C68.3863 287.224 68.528 288.222 68.8242 288.989C69.477 290.578 70.5853 291.939 72.0096 292.901C73.4339 293.862 75.1108 294.381 76.8292 294.392" fill="rgba(var(--content-color), 1)"/>
<path d="M71.6772 289.214C71.8407 289.263 71.9984 289.33 72.1473 289.414C72.331 289.497 72.5095 289.592 72.6818 289.697C72.8814 289.826 73.1197 289.948 73.3258 290.122C73.5948 290.302 73.8528 290.497 74.0986 290.708C74.3876 290.941 74.6628 291.19 74.9229 291.455C75.5207 292.066 76.0478 292.742 76.4943 293.471C76.9224 294.208 77.268 294.989 77.5247 295.802C77.6305 296.158 77.7165 296.519 77.7823 296.884C77.8464 297.203 77.8915 297.526 77.9175 297.85C77.9562 298.14 77.9175 298.41 77.9562 298.648C77.9669 298.848 77.9669 299.048 77.9562 299.247C77.9526 299.418 77.9332 299.589 77.8982 299.756C77.8531 299.756 77.8982 299.028 77.8016 297.863C77.7685 297.544 77.7169 297.228 77.647 296.916C77.5891 296.575 77.4796 296.227 77.3766 295.854C77.1165 295.057 76.771 294.29 76.3462 293.567C75.9057 292.854 75.3943 292.188 74.8199 291.577C74.543 291.307 74.2854 291.049 74.0149 290.83C73.7764 290.62 73.5271 290.422 73.2678 290.238C72.3276 289.555 71.6578 289.246 71.6772 289.214Z" fill="#1F1F1F"/>
<path d="M313.692 225.503C313.692 225.6 246.201 225.671 162.996 225.671C79.7916 225.671 12.236 225.6 12.236 225.503C12.236 225.407 79.7078 225.336 162.971 225.336C246.233 225.336 313.692 225.4 313.692 225.503Z" fill="#E0E0E0"/>
<path d="M206.08 300.915L117.15 300.864C114.609 300.87 112.092 300.374 109.743 299.406C107.393 298.438 105.258 297.016 103.46 295.221C101.661 293.427 100.234 291.295 99.2599 288.948C98.2861 286.601 97.7849 284.085 97.7849 281.544L97.7978 59.2479C97.7978 56.7032 98.3005 54.1835 99.277 51.8336C100.254 49.4837 101.685 47.3499 103.488 45.5547C105.292 43.7595 107.432 42.3382 109.787 41.3726C112.141 40.407 114.663 39.9161 117.208 39.9279L206.144 39.9859C208.685 39.9808 211.201 40.4768 213.55 41.4454C215.898 42.4141 218.033 43.8364 219.831 45.6309C221.629 47.4255 223.055 49.557 224.029 51.9035C225.002 54.2501 225.503 56.7655 225.503 59.3059L225.458 281.621C225.455 284.161 224.95 286.675 223.974 289.02C222.998 291.365 221.569 293.494 219.77 295.286C217.97 297.078 215.834 298.498 213.485 299.464C211.136 300.43 208.62 300.923 206.08 300.915Z" fill="#1F1F1F"/>
<path d="M206.672 46.5932L189.368 46.5095C188.231 46.5315 187.148 47.0033 186.357 47.8216C185.567 48.6399 185.133 49.7381 185.15 50.8758V54.0185C185.169 55.1573 184.736 56.2571 183.945 57.0769C183.154 57.8966 182.07 58.3693 180.932 58.3913L147.205 58.2303C146.066 58.1999 144.984 57.7182 144.199 56.891C143.414 56.0638 142.99 54.9588 143.019 53.8189V50.6826C143.049 49.5437 142.625 48.4397 141.842 47.6127C141.058 46.7856 139.979 46.3032 138.84 46.2712H132.754L117.607 46.2003C115.819 46.1919 114.047 46.5359 112.392 47.2127C110.737 47.8896 109.231 48.8859 107.962 50.1449C106.692 51.4039 105.683 52.9008 104.992 54.55C104.301 56.1992 103.942 57.9685 103.935 59.7565L103.04 278.111C103.023 281.717 104.437 285.182 106.973 287.745C109.509 290.309 112.958 291.761 116.564 291.783L205.629 292.195C207.418 292.204 209.19 291.86 210.845 291.183C212.501 290.506 214.007 289.51 215.277 288.251C216.547 286.992 217.557 285.496 218.249 283.846C218.94 282.197 219.3 280.428 219.308 278.639L220.248 60.2653C220.256 58.4756 219.912 56.7018 219.234 55.0455C218.556 53.3892 217.558 51.8829 216.297 50.6129C215.036 49.3429 213.536 48.3342 211.885 47.6444C210.233 46.9546 208.462 46.5974 206.672 46.5932Z" fill="#F5F5F5"/>
<path d="M168.876 250.928C168.773 253.569 168.676 256.042 168.593 258.096H181.389L179.824 250.239L168.876 250.928Z" fill="#F5F5F5"/>
<path d="M116.88 254.219L116.989 258.083H167.318C167.401 255.906 167.498 253.491 167.595 250.999L116.88 254.219Z" fill="#F5F5F5"/>
<path d="M180.462 250.194L182.039 258.096H205.623L205.339 248.623L180.462 250.194Z" fill="#F5F5F5"/>
<path d="M170.151 139.78L174.608 113.923L162.932 113.054V139.78H170.151Z" fill="#EBEBEB"/>
<path d="M115.83 239.864L103.149 244.83L103.111 253.813L116.203 252.983L115.83 239.864Z" fill="#F5F5F5"/>
<path d="M115.772 237.842L115.076 213.763H115.07V205.269L103.31 206.511L103.162 242.769L115.765 237.829L115.772 237.842Z" fill="#EBEBEB"/>
<path d="M115.07 186.309L103.401 184.77L103.323 204.585L115.07 203.342V186.309Z" fill="#F5F5F5"/>
<path d="M201.991 205.63L201.501 212.527L187.726 214.014L188.795 219.476L204.431 218.297L204.193 210.466L205.443 205.275L201.991 205.63Z" fill="#F5F5F5"/>
<path d="M177.164 220.351L188.151 219.52L185.762 207.265L176.173 208.231L177.164 220.351Z" fill="#F5F5F5"/>
<path d="M177.274 221.62L178.111 231.847L179.599 245.867L180.211 248.932L205.301 247.348L204.47 219.572L177.274 221.62Z" fill="#EBEBEB"/>
<path d="M134.087 173.365L135.053 175.02L115.733 186.309V213.081L136.155 211.632L175.509 207.658L174.067 190.115L136.47 185.202L136.715 183.302L173.88 188.158L171.439 158.463L134.628 161.998L134.506 160.71L171.336 157.168L170.048 141.674H134.628L103.529 147.335L103.381 182.819L115.154 184.371L134.087 173.365ZM117.685 210.524C117.685 210.524 117.833 188.448 117.685 187.623L133.475 179.251L135.523 209.423L117.685 210.524Z" fill="#F5F5F5"/>
<path d="M200.703 205.758L186.399 207.2L187.481 212.758L200.303 211.373L200.703 205.758Z" fill="#F5F5F5"/>
<path d="M169.056 246.201C169.011 247.36 168.966 248.513 168.921 249.647L179.573 249.003L179.026 246.259L169.056 246.201Z" fill="#F5F5F5"/>
<path d="M146.124 139.78L147.998 131.273H162.288V113.009L117.594 109.699V126.849L103.639 130.005L103.568 145.403L134.487 139.78H146.124Z" fill="#EBEBEB"/>
<path d="M175.947 88.9491L175.561 87.3842L192.633 80.6287L181.531 58.3463C181.328 58.3796 181.124 58.3969 180.919 58.3978L162.056 58.3076L162.571 89.4965L175.947 88.9491Z" fill="#F5F5F5"/>
<path d="M201.81 76.9967V46.5677L189.388 46.5098C188.823 46.5182 188.265 46.6378 187.746 46.8617C187.227 47.0857 186.758 47.4097 186.364 47.8152C185.971 48.2206 185.661 48.6996 185.453 49.2248C185.244 49.75 185.141 50.3111 185.15 50.8761V54.0188C185.152 54.7208 184.987 55.4134 184.669 56.0392C184.351 56.6651 183.889 57.2065 183.321 57.6188L194.43 79.9205L201.81 76.9967Z" fill="#EBEBEB"/>
<path d="M137.649 78.3036L136.212 46.2646H132.754L119.23 46.2002L113.479 74.8518L137.649 78.3036ZM134.596 49.5104L135.06 75.6052L117.118 72.9777L121.046 49.5104H134.596Z" fill="#F5F5F5"/>
<path d="M138.299 78.4006V78.6711C138.331 81.1698 138.383 85.6714 138.415 90.4821L161.934 89.5161L161.418 58.3014L147.192 58.2306C146.053 58.2002 144.971 57.7185 144.186 56.8913C143.401 56.0641 142.977 54.9591 143.006 53.8192V50.6829C143.036 49.544 142.612 48.44 141.829 47.613C141.045 46.7859 139.966 46.3035 138.827 46.2715H136.85L138.292 78.3942L138.299 78.4006Z" fill="#F5F5F5"/>
<path d="M111.605 74.569L117.298 46.1943C113.746 46.2565 110.358 47.7064 107.861 50.2337C105.364 52.7611 103.955 56.1654 103.935 59.7183L103.871 73.8863L103.935 73.4742L111.605 74.569Z" fill="#F5F5F5"/>
<path d="M115.682 109.558L103.723 108.669L103.645 128.04L115.682 125.316V109.558Z" fill="#F5F5F5"/>
<path d="M111.476 75.1934L103.871 74.0986L103.742 105.468L105.378 105.59L111.476 75.1934Z" fill="#F5F5F5"/>
<path d="M135.626 237.475L135.826 212.295L115.714 213.718L116.422 238.39L135.626 237.475Z" fill="#F5F5F5"/>
<path d="M139.323 231.666L167.814 245.312C168.148 236.393 168.458 228.053 168.425 227.525L169.069 227.493L169.372 226.887C169.778 227.093 169.778 227.093 169.565 233.173C169.443 236.56 169.275 241.075 169.102 245.589H178.955L177.499 231.904L175.567 208.295L138.351 212.049L139.323 231.666Z" fill="#F5F5F5"/>
<path d="M209.146 189.871L208.824 186.548L174.685 190.103L176.121 207.6L205.597 204.625L209.146 189.871Z" fill="#F5F5F5"/>
<path d="M162.288 133.186H149.537L148.081 139.78H162.288V133.186Z" fill="#F5F5F5"/>
<path d="M203.877 135.414L171.948 133.205L170.66 140.746L171.948 157.136L205.636 153.916L203.877 135.414ZM173.107 140.733L174.82 135.974L202.564 137.726L204.148 151.34L174.022 154.914L173.107 140.733Z" fill="#F5F5F5"/>
<path d="M207.188 169.643L205.79 155.159L172.077 158.399L173.345 173.816L207.188 169.643Z" fill="#F5F5F5"/>
<path d="M116.242 254.257L103.162 255.088L103.111 254.231L103.092 258.095H116.352L116.242 254.257Z" fill="#F5F5F5"/>
<path d="M219.99 69.8035L220.184 70.293L220.248 60.2659C220.265 56.6602 218.85 53.1951 216.315 50.6317C213.779 48.0682 210.33 46.6159 206.724 46.5938H202.48V76.7651L219.99 69.8035Z" fill="#EBEBEB"/>
<path d="M167.781 246.008L138.711 232.078L137.681 212.114L136.464 212.237L136.258 238.087L116.442 239.027V239.6L116.822 252.931L167.62 249.711C167.691 248.494 167.736 247.244 167.781 246.008ZM117.685 240.669L145.422 238.737L163.454 247.109L117.665 249.589L117.685 240.669Z" fill="#F5F5F5"/>
<path d="M211.728 103.317L212.913 96.2331C202.486 92.5108 201.765 81.6401 201.797 78.3428L194.99 81.0411L205.236 101.61L211.728 103.317Z" fill="#F5F5F5"/>
<path d="M174.524 188.189L188.705 186.715L185.91 174.195L173.5 175.728L174.524 188.189Z" fill="#F5F5F5"/>
<path d="M205.108 115.598L178.633 115.592L176.43 115.431L173.442 132.767L204.869 134.937L204.142 127.403L207.233 116.268L205.108 115.598Z" fill="#F5F5F5"/>
<path d="M203.278 110.942L203.607 102.667L193.2 81.7881L177.1 88.1637L182.645 110.942H203.278ZM192.556 84.319L202.093 102.46L200.715 108.115L184.396 107.471L180.32 90.3404L192.556 84.319Z" fill="#F5F5F5"/>
<path d="M207.4 210.794L207.883 227.049L219.359 226.405L219.391 227.043L207.902 227.693L208.489 247.142L219.333 246.459L219.417 247.734L208.527 248.423L208.817 258.096H219.385L219.617 203.846L208.804 204.941L207.4 210.794Z" fill="#F5F5F5"/>
<path d="M137.668 78.9543L113.376 75.4639L107.303 105.732L137.777 107.992C137.9 103.33 137.816 89.0394 137.668 78.9543Z" fill="#EBEBEB"/>
<path d="M177.621 110.942H181.299L176.102 89.5801L162.578 90.1339L162.906 109.853L177.621 110.942Z" fill="#F5F5F5"/>
<path d="M138.396 108.038L162.288 109.809L161.966 90.1602L138.46 91.1262C138.46 97.7658 138.499 104.85 138.396 108.038Z" fill="#F5F5F5"/>
<path d="M207.374 171.549L186.547 174.118L189.342 186.651L208.643 184.641L207.374 171.549Z" fill="#F5F5F5"/>
<path d="M213.022 95.6206L214.355 87.7058L220.106 88.1502L220.177 71.1035L202.441 78.1231C202.081 90.1208 209.616 94.339 213.022 95.6206Z" fill="#EBEBEB"/>
<path d="M206.196 126.224L206.917 133.701L219.907 134.603L219.971 119.205L209.1 115.766L206.196 126.224Z" fill="#F5F5F5"/>
<path d="M212.378 190.095L208.965 204.263L219.604 203.207L219.668 188.331C216.397 187.468 213.544 186.766 212.011 186.47L212.378 190.095Z" fill="#F5F5F5"/>
<path d="M205.185 111.186L219.99 115.862L220.023 107.438L205.487 103.684L205.185 111.186Z" fill="#F5F5F5"/>
<path d="M211.837 184.525C213.029 184.699 215.289 185.169 219.688 186.342L219.829 153.807L208.965 154.856L211.837 184.525Z" fill="#F5F5F5"/>
<path d="M208.843 153.581L219.836 152.525L219.9 136.522L207.104 135.64L208.843 153.581Z" fill="#F5F5F5"/>
<path d="M214.246 96.0265C216.332 96.6576 218.264 97.1513 220.042 97.5077V89.4319L215.36 89.0713L214.246 96.0265Z" fill="#F5F5F5"/>
<path d="M165.225 99.2792L172.309 101.108L172.341 93.8052C170.512 93.4446 168.537 92.9444 166.416 92.3047L165.225 99.2792Z" fill="#F5F5F5"/>
<path d="M219.417 247.734L219.333 246.446L208.488 247.129L207.902 227.674L219.391 227.03L219.359 226.386L207.883 227.03L207.4 210.775L208.804 204.921L219.617 203.826V203.182L208.965 204.258L212.378 190.09L212.024 186.464C213.557 186.76 216.41 187.462 219.681 188.325V186.335C215.283 185.176 213.022 184.693 211.831 184.519L208.959 154.85L219.823 153.8V152.512L208.83 153.568L207.091 135.62L219.9 136.528V134.596L206.911 133.695L206.189 126.224L209.1 115.766L219.971 119.205V115.862L205.159 111.187L205.462 103.684L219.997 107.439V105.468L212.913 103.639L214.091 96.6582C216.212 97.3022 218.185 97.8045 220.01 98.1651V97.5211C218.211 97.1691 216.279 96.6754 214.214 96.0399L215.386 89.0847L220.068 89.4454V88.1574L214.317 87.713L212.984 95.6278C209.577 94.3398 202.036 90.128 202.403 78.1303L220.138 71.1107V70.2993L219.945 69.8098L202.403 76.7521V46.5807H201.759V77.0097L194.366 79.9399L183.308 57.6253C182.781 58.0037 182.172 58.251 181.531 58.3466L192.633 80.629L175.561 87.3846L175.947 88.9495L162.571 89.4969L162.056 58.308H161.412L161.927 89.5227L138.415 90.4822C138.383 85.6715 138.331 81.17 138.299 78.6713V78.4008L136.85 46.2716H136.206L137.642 78.3106L113.498 74.8459L119.249 46.1943H117.601H117.292L111.599 74.569L103.929 73.4677L103.864 73.8799V74.0989L111.47 75.1937L105.378 105.616L103.742 105.494V108.714L115.701 109.603V125.361L103.665 128.085V130.05L117.594 126.868V109.699L162.288 113.009V131.273H147.991L146.117 139.78H134.486L103.574 145.403V147.335L134.66 141.68H170.08L171.368 157.175L134.538 160.717L134.66 162.005L171.471 158.469L173.88 188.158L136.682 183.302L136.438 185.202L174.034 190.115L175.477 207.658L136.122 211.632L115.701 213.081V186.309L135.021 175.02L134.055 173.365L115.154 184.39L103.381 182.838V184.77L115.038 186.309V203.343L103.298 204.586V206.518L115.051 205.275V213.77L115.746 237.849L103.156 242.788V244.849L115.836 239.884L116.21 253.002L103.117 253.826V254.251L103.169 255.108L116.248 254.277L116.358 258.141H117.002L116.892 254.277L167.607 251.057C167.511 253.549 167.414 255.964 167.33 258.141H168.618C168.702 256.087 168.799 253.633 168.902 250.973L179.85 250.284L181.415 258.141H182.059L180.481 250.239L205.359 248.668L205.642 258.141H208.862M168.921 249.647C168.966 248.513 169.011 247.361 169.056 246.201H179.025L179.573 248.945L168.921 249.647ZM180.21 248.932L179.599 245.867L178.111 231.84L177.274 221.62L204.47 219.604L205.301 247.38L180.21 248.932ZM186.399 207.201L200.703 205.758L200.303 211.374L187.481 212.758L186.399 207.201ZM185.755 207.265L188.145 219.501L177.158 220.332L176.166 208.212L185.755 207.265ZM204.431 218.297L188.795 219.475L187.726 214.014L201.501 212.52L201.991 205.623L205.442 205.275L204.193 210.459L204.431 218.297ZM185.91 174.196L188.692 186.715L174.524 188.19L173.5 175.722L185.91 174.196ZM189.336 186.651L186.541 174.118L207.368 171.542L208.656 184.635L189.336 186.651ZM203.684 133.482L172.251 131.305L175.252 113.988L177.448 114.149H203.929L206.054 114.793L202.957 125.928L203.684 133.482ZM201.791 78.375C201.759 81.6723 202.48 92.543 212.906 96.2653L211.721 103.349L205.23 101.675L194.984 81.1056L201.791 78.375ZM193.2 81.7882L203.607 102.673L203.279 110.949H182.613L177.1 88.1638L193.2 81.7882ZM176.102 89.5935L181.299 110.949H177.628L162.932 109.854L162.578 90.1602L176.102 89.5935ZM161.934 90.1667L162.256 109.815L138.389 108.044C138.492 104.856 138.473 97.7723 138.389 91.1327L161.934 90.1667ZM113.37 75.4706L137.661 78.9611C137.784 89.0461 137.893 103.336 137.771 107.999L107.297 105.739L113.37 75.4706ZM174.601 113.924L170.145 139.787H162.932V113.061L174.601 113.924ZM149.537 133.186H162.288V139.78H148.081L149.537 133.186ZM170.66 140.746L171.948 133.205L203.89 135.414L205.661 153.916L171.948 157.136L170.66 140.746ZM205.822 155.159L207.22 169.643L173.378 173.816L172.09 158.398L205.822 155.159ZM174.717 190.103L208.849 186.548L209.165 189.871L205.616 204.618L176.14 207.594L174.717 190.103ZM177.506 231.905L178.961 245.59H169.108C169.282 241.082 169.449 236.574 169.572 233.173C169.784 227.094 169.784 227.094 169.378 226.888L169.076 227.493L168.432 227.525C168.432 228.053 168.155 236.393 167.82 245.313L139.329 231.666L138.325 212.05L175.541 208.296L177.506 231.905ZM135.858 212.295L135.659 237.475L116.454 238.39L115.746 213.718L135.858 212.295ZM116.493 239.613V239.04L136.309 238.1L136.515 212.25L137.732 212.127L138.763 232.091L167.781 246.008C167.736 247.245 167.691 248.494 167.64 249.731L116.841 252.951L116.493 239.613Z" fill="rgba(var(--white), 1)"/>
<path d="M145.422 238.725L117.685 240.669V249.576L163.473 247.097L145.422 238.725Z" fill="#E0E0E0"/>
<path d="M202.57 137.725L174.82 135.974L173.107 140.733L174.047 154.927L204.174 151.352L202.57 137.725Z" fill="#E0E0E0"/>
<path d="M135.575 77.2736L135.118 51.1787H121.561L117.633 74.6461L135.575 77.2736Z" fill="#E0E0E0"/>
<path d="M200.735 108.115L202.113 102.461L192.575 84.3193L180.339 90.3407L184.416 107.503L200.735 108.115Z" fill="#EBEBEB"/>
<path d="M206.421 68.8692C206.424 68.205 206.273 67.5491 205.98 66.9527C205.688 66.3563 205.262 65.8355 204.735 65.4309C204.208 65.0263 203.595 64.7488 202.943 64.62C202.291 64.4912 201.619 64.5146 200.978 64.6884C200.337 64.8621 199.744 65.1816 199.247 65.6219C198.749 66.0621 198.36 66.6113 198.11 67.2266C197.86 67.8418 197.755 68.5066 197.803 69.1691C197.852 69.8316 198.053 70.4739 198.391 71.0459C198.552 71.3229 198.764 71.5225 198.97 71.8187L201.475 75.1353C201.548 75.2314 201.642 75.3093 201.75 75.3629C201.858 75.4166 201.976 75.4445 202.097 75.4445C202.217 75.4445 202.336 75.4166 202.444 75.3629C202.552 75.3093 202.646 75.2314 202.718 75.1353L205.185 71.8703C205.415 71.6057 205.63 71.3283 205.829 71.0395C206.216 70.3817 206.42 69.6325 206.421 68.8692ZM202.113 70.7497C201.729 70.7574 201.352 70.6506 201.029 70.4431C200.707 70.2355 200.453 69.9365 200.301 69.5842C200.149 69.2319 200.105 68.8423 200.175 68.465C200.245 68.0878 200.426 67.7399 200.694 67.4658C200.963 67.1918 201.307 67.0039 201.683 66.9261C202.059 66.8484 202.449 66.8843 202.804 67.0294C203.16 67.1744 203.464 67.4219 203.678 67.7404C203.892 68.0589 204.006 68.434 204.006 68.8177C204.011 69.0693 203.965 69.3193 203.872 69.5531C203.778 69.7869 203.64 69.9999 203.464 70.1796C203.287 70.3594 203.077 70.5024 202.846 70.6002C202.614 70.6981 202.365 70.7489 202.113 70.7497Z" fill="rgba(var(--content-color), 1)"/>
<path d="M103.04 249.646H219.604V279.96C219.604 283.205 218.315 286.317 216.02 288.612C213.726 290.906 210.613 292.196 207.368 292.196H115.585C112.255 292.187 109.064 290.858 106.712 288.5C104.361 286.143 103.04 282.948 103.04 279.618V249.646Z" fill="rgba(var(--content-color), 1)"/>
<path d="M133.45 264.465V271.594H137.314V273.635H131.041V264.465H133.45Z" fill="rgba(var(--white), 1)"/>
<path d="M145.576 270.087C145.576 272.27 144.031 273.713 141.712 273.713C139.394 273.713 137.848 272.27 137.848 270.087C137.848 267.904 139.374 266.48 141.712 266.48C144.05 266.48 145.576 267.904 145.576 270.087ZM140.186 270.087C140.186 271.149 140.83 271.858 141.706 271.858C142.582 271.858 143.238 271.149 143.238 270.087C143.267 269.87 143.248 269.649 143.185 269.44C143.121 269.23 143.013 269.037 142.869 268.872C142.724 268.708 142.546 268.576 142.347 268.486C142.147 268.396 141.931 268.349 141.712 268.349C141.493 268.349 141.277 268.396 141.077 268.486C140.878 268.576 140.7 268.708 140.556 268.872C140.411 269.037 140.304 269.23 140.24 269.44C140.176 269.649 140.158 269.87 140.186 270.087Z" fill="rgba(var(--white), 1)"/>
<path d="M178.728 270.087C178.728 272.27 177.182 273.713 174.864 273.713C172.546 273.713 171 272.27 171 270.087C171 267.904 172.526 266.48 174.864 266.48C177.202 266.48 178.728 267.904 178.728 270.087ZM173.338 270.087C173.338 271.149 173.982 271.858 174.858 271.858C175.733 271.858 176.39 271.149 176.39 270.087C176.419 269.87 176.4 269.649 176.336 269.44C176.273 269.23 176.165 269.037 176.02 268.872C175.876 268.708 175.698 268.576 175.499 268.486C175.299 268.396 175.083 268.349 174.864 268.349C174.645 268.349 174.429 268.396 174.229 268.486C174.03 268.576 173.852 268.708 173.708 268.872C173.563 269.037 173.455 269.23 173.392 269.44C173.328 269.649 173.309 269.87 173.338 270.087Z" fill="rgba(var(--white), 1)"/>
<path d="M149.949 268.4C149.112 268.4 148.532 269.095 148.532 270.113C148.532 271.13 149.112 271.826 149.949 271.826C150.232 271.843 150.515 271.777 150.761 271.635C151.007 271.493 151.206 271.281 151.333 271.027L153.046 272.013C152.616 272.679 151.984 273.191 151.243 273.473C150.502 273.756 149.69 273.795 148.925 273.585C148.16 273.374 147.482 272.925 146.99 272.303C146.498 271.681 146.217 270.918 146.188 270.126C146.159 269.638 146.233 269.15 146.407 268.694C146.581 268.237 146.849 267.823 147.195 267.478C147.541 267.134 147.956 266.867 148.413 266.695C148.87 266.523 149.358 266.45 149.846 266.481C150.476 266.447 151.103 266.585 151.661 266.88C152.219 267.175 152.687 267.616 153.014 268.155L151.34 269.134C151.189 268.904 150.983 268.715 150.739 268.587C150.496 268.459 150.224 268.394 149.949 268.4Z" fill="rgba(var(--white), 1)"/>
<path d="M160.291 269.031V273.636H158.005V272.837C157.745 273.144 157.417 273.385 157.046 273.541C156.676 273.698 156.275 273.765 155.874 273.739C154.354 273.739 153.452 272.825 153.452 271.53C153.452 270.236 154.405 269.411 156.157 269.386H158.005V269.302C158.005 268.658 157.548 268.246 156.659 268.246C155.921 268.278 155.198 268.469 154.541 268.806L153.916 267.26C154.944 266.762 156.07 266.498 157.213 266.488C159.145 266.468 160.279 267.409 160.291 269.031ZM158.005 271.24V270.629H156.621C155.977 270.629 155.635 270.86 155.635 271.356C155.635 271.852 155.99 272.155 156.588 272.155C156.892 272.177 157.195 272.1 157.45 271.935C157.706 271.77 157.901 271.526 158.005 271.24Z" fill="rgba(var(--white), 1)"/>
<path d="M166.468 273.269C165.876 273.591 165.21 273.754 164.536 273.739C164.226 273.771 163.913 273.736 163.618 273.635C163.323 273.534 163.054 273.371 162.829 273.156C162.603 272.941 162.427 272.68 162.313 272.39C162.198 272.101 162.148 271.79 162.166 271.479V268.439H161.187V266.9H162.166V264.936H164.478V266.9H166.313V268.439H164.478V271.124C164.478 271.646 164.716 271.878 165.122 271.871C165.426 271.845 165.722 271.765 165.997 271.633L166.468 273.269Z" fill="rgba(var(--white), 1)"/>
<path d="M169.894 266.558V273.642H167.582V266.558H169.894ZM169.803 264.568C169.802 264.778 169.738 264.983 169.621 265.157C169.503 265.331 169.336 265.466 169.141 265.545C168.947 265.625 168.733 265.644 168.527 265.602C168.321 265.56 168.133 265.457 167.985 265.308C167.837 265.158 167.737 264.969 167.697 264.762C167.658 264.556 167.68 264.342 167.762 264.149C167.843 263.955 167.98 263.79 168.156 263.674C168.331 263.558 168.537 263.497 168.747 263.499C168.888 263.494 169.029 263.519 169.16 263.571C169.291 263.623 169.41 263.702 169.509 263.802C169.608 263.903 169.685 264.023 169.736 264.154C169.787 264.286 169.81 264.427 169.803 264.568Z" fill="rgba(var(--white), 1)"/>
<path d="M187.232 269.192V273.655H184.914V269.836C184.931 269.67 184.913 269.502 184.86 269.343C184.807 269.184 184.72 269.039 184.606 268.917C184.492 268.795 184.353 268.699 184.198 268.635C184.043 268.571 183.877 268.542 183.709 268.548C183.349 268.548 183.002 268.689 182.744 268.94C182.485 269.191 182.335 269.534 182.325 269.894V273.636H180V266.552H182.325V267.705C182.566 267.304 182.912 266.977 183.325 266.758C183.738 266.539 184.202 266.437 184.669 266.462C186.208 266.468 187.232 267.511 187.232 269.192Z" fill="rgba(var(--white), 1)"/>
<path d="M115.765 213.718L115.643 212.437L175.426 207.014L171.439 158.45L169.404 141.539L162.288 141.822L162.256 110.749L201.508 112.385L202.325 100.58L192.582 80.6421L201.875 76.9648L202.345 78.1627L194.353 81.3312L203.633 100.323L203.62 100.49L202.712 113.724L163.544 112.095L163.576 140.483L170.538 140.206L172.721 158.321L176.817 208.18L115.765 213.718Z" fill="rgba(var(--content-color), 1)"/>
<path d="M121.02 202.132C121.024 201.315 120.839 200.508 120.48 199.773C120.121 199.039 119.597 198.398 118.95 197.899C118.302 197.4 117.549 197.058 116.747 196.898C115.946 196.738 115.118 196.765 114.329 196.977C113.54 197.189 112.81 197.58 112.196 198.12C111.583 198.661 111.102 199.335 110.792 200.091C110.482 200.847 110.35 201.665 110.408 202.48C110.465 203.295 110.709 204.086 111.122 204.792C111.328 205.133 111.586 205.378 111.843 205.738L114.928 209.828C115.017 209.946 115.132 210.043 115.265 210.109C115.397 210.175 115.543 210.21 115.691 210.21C115.84 210.21 115.986 210.175 116.118 210.109C116.251 210.043 116.366 209.946 116.455 209.828L119.494 205.809C119.768 205.482 120.024 205.14 120.261 204.785C120.744 203.984 121.006 203.068 121.02 202.132ZM115.707 204.444C115.245 204.444 114.793 204.307 114.409 204.05C114.024 203.793 113.725 203.428 113.548 203.001C113.371 202.574 113.324 202.104 113.415 201.65C113.505 201.197 113.728 200.78 114.054 200.453C114.381 200.126 114.798 199.904 115.251 199.813C115.705 199.723 116.175 199.77 116.602 199.946C117.029 200.123 117.394 200.423 117.651 200.807C117.908 201.192 118.045 201.644 118.045 202.106C118.045 202.726 117.799 203.321 117.36 203.759C116.922 204.198 116.327 204.444 115.707 204.444Z" fill="rgba(var(--content-color), 1)"/>
<path d="M116.944 213.08C116.944 213.326 116.871 213.566 116.734 213.771C116.597 213.976 116.403 214.135 116.175 214.229C115.948 214.323 115.697 214.347 115.456 214.298C115.215 214.25 114.993 214.131 114.82 213.956C114.646 213.782 114.528 213.56 114.481 213.318C114.434 213.077 114.459 212.827 114.554 212.6C114.65 212.373 114.81 212.179 115.015 212.043C115.22 211.907 115.461 211.836 115.707 211.837C115.87 211.837 116.032 211.869 116.182 211.932C116.332 211.994 116.469 212.086 116.584 212.201C116.699 212.317 116.79 212.454 116.852 212.605C116.913 212.755 116.945 212.917 116.944 213.08Z" fill="rgba(var(--content-color), 1)"/>
<path d="M202.235 78.5809C202.797 78.5809 203.253 78.1254 203.253 77.5634C203.253 77.0015 202.797 76.5459 202.235 76.5459C201.673 76.5459 201.218 77.0015 201.218 77.5634C201.218 78.1254 201.673 78.5809 202.235 78.5809Z" fill="rgba(var(--content-color), 1)"/>
<path d="M175.277 82.1681H124.086C123.537 82.1681 123.011 82.3857 122.622 82.7732C122.233 83.1607 122.014 83.6865 122.012 84.2354V100.091C122.014 100.64 122.233 101.165 122.622 101.553C123.011 101.94 123.537 102.158 124.086 102.158H162.082L162.43 106.936L169.559 102.158H175.303C175.851 102.158 176.377 101.94 176.765 101.552C177.153 101.165 177.37 100.639 177.37 100.091V84.2354C177.37 83.9617 177.316 83.6908 177.211 83.4383C177.105 83.1858 176.951 82.9567 176.756 82.7644C176.561 82.5721 176.33 82.4204 176.076 82.318C175.823 82.2157 175.551 82.1647 175.277 82.1681Z" fill="rgba(var(--white), 1)"/>
<path d="M175.278 82.168C175.444 82.1558 175.612 82.171 175.773 82.2131C176.264 82.3195 176.698 82.604 176.991 83.0116C177.206 83.3114 177.339 83.6621 177.377 84.0291C177.377 84.4349 177.377 84.8599 177.377 85.3171C177.377 86.2638 177.377 87.3457 177.377 88.5371C177.377 90.9779 177.377 93.9532 177.409 97.3857C177.409 98.2487 177.409 99.1374 177.409 100.058C177.407 100.561 177.232 101.047 176.914 101.436C176.597 101.825 176.155 102.093 175.664 102.196C175.165 102.245 174.664 102.263 174.163 102.248H169.488H169.559L162.436 107.033L162.237 107.168V106.923C162.127 105.436 162.005 103.813 161.882 102.151L162.03 102.287H127.01H124.047C123.694 102.28 123.346 102.195 123.03 102.035C122.717 101.873 122.448 101.639 122.243 101.352C122.038 101.066 121.904 100.735 121.851 100.387C121.793 99.6912 121.851 99.0987 121.819 98.4547C121.819 95.8787 121.819 93.3457 121.819 90.8555V84.4155C121.805 84.0969 121.848 83.7783 121.948 83.4753C122.054 83.1725 122.223 82.896 122.446 82.6649C122.668 82.4337 122.937 82.2532 123.236 82.1358C123.529 82.0216 123.842 81.969 124.157 81.9812H128.517L152.828 82.0134L169.217 82.0714L173.674 82.1036H174.833H175.232C175.232 82.1036 175.097 82.1036 174.833 82.1036H173.674H169.217L152.828 82.1551L128.517 82.1937H124.157C123.88 82.1862 123.605 82.2321 123.345 82.329C123.09 82.4302 122.859 82.5849 122.668 82.7826C122.477 82.9803 122.33 83.2164 122.238 83.4753C122.148 83.7449 122.111 84.029 122.128 84.3125V85.2141C122.128 85.8195 122.128 86.4313 122.128 87.0366V98.4676C122.128 99.1116 122.128 99.7556 122.128 100.4C122.175 100.695 122.291 100.976 122.465 101.22C122.639 101.464 122.868 101.663 123.133 101.804C123.403 101.939 123.7 102.011 124.002 102.016H126.958H161.979H162.114V102.151C162.237 103.813 162.352 105.442 162.455 106.93L162.237 106.82L169.372 102.055H169.404H174.118C174.604 102.073 175.09 102.063 175.574 102.022C176.017 101.929 176.416 101.687 176.702 101.335C176.988 100.983 177.144 100.544 177.145 100.09C177.145 99.1696 177.145 98.2809 177.145 97.4179C177.145 93.9854 177.145 90.9779 177.145 88.5693C177.145 87.3586 177.145 86.2767 177.145 85.3493C177.145 84.8857 177.145 84.4413 177.145 84.0613C177.113 83.709 176.989 83.3713 176.784 83.0825C176.504 82.6852 176.094 82.3982 175.625 82.271C175.511 82.2324 175.395 82.198 175.278 82.168Z" fill="#1F1F1F"/>
<path d="M134.113 90.16C134.113 90.5752 133.99 90.9811 133.759 91.3264C133.528 91.6716 133.201 91.9407 132.817 92.0996C132.433 92.2585 132.011 92.3001 131.604 92.2191C131.197 92.1381 130.823 91.9381 130.529 91.6445C130.235 91.3509 130.035 90.9768 129.954 90.5696C129.873 90.1623 129.915 89.7402 130.074 89.3566C130.233 88.9729 130.502 88.6451 130.847 88.4144C131.192 88.1837 131.598 88.0605 132.014 88.0605C132.57 88.0605 133.104 88.2817 133.498 88.6755C133.892 89.0692 134.113 89.6032 134.113 90.16Z" fill="rgba(var(--content-color), 1)"/>
<path d="M132.02 91.834C131.076 91.8357 130.171 92.2114 129.504 92.879C128.836 93.5465 128.46 94.4513 128.459 95.3953H135.581C135.581 94.9276 135.489 94.4645 135.31 94.0324C135.131 93.6004 134.869 93.2078 134.538 92.8771C134.208 92.5464 133.815 92.284 133.383 92.1051C132.951 91.9261 132.488 91.834 132.02 91.834Z" fill="rgba(var(--content-color), 1)"/>
<path d="M162.932 113.795C164.508 113.795 165.785 112.517 165.785 110.942C165.785 109.366 164.508 108.089 162.932 108.089C161.356 108.089 160.079 109.366 160.079 110.942C160.079 112.517 161.356 113.795 162.932 113.795Z" fill="rgba(var(--content-color), 1)"/>
<path d="M78.8514 209.758C78.8514 209.758 85.2914 244.733 83.4174 252.03C81.8782 258.109 46.368 285.569 46.368 285.569L41.4479 280.559C41.4479 280.559 51.475 269.431 56.466 259.153C59.8148 252.249 68.2318 246.865 68.2318 246.865L58.0888 215.625L78.8514 209.758Z" fill="#FFBF9D"/>
<path d="M69.1398 251.199L67.1305 244.115L69.1398 251.199Z" fill="#FFBF9D"/>
<path d="M67.1305 244.128C67.3164 245.342 67.6051 246.537 67.9935 247.702C68.2803 248.897 68.6637 250.066 69.1398 251.199C68.9464 249.987 68.6578 248.792 68.2768 247.625C67.9887 246.43 67.6053 245.261 67.1305 244.128Z" fill="#FF9A6C"/>
<path d="M49.1693 286.844L48.6799 287.307C48.6799 287.307 53.1493 298.816 51.6487 300.361L36.1927 283.72L41.9437 278.807C42.4986 280.587 43.4315 282.227 44.6785 283.615C45.9256 285.002 47.4574 286.103 49.1693 286.844Z" fill="rgba(var(--primary-color), 1)"/>
<g opacity="0.6">
<path d="M41.7505 282.136C41.5518 282.023 41.3185 281.986 41.0945 282.032C40.8704 282.078 40.6709 282.205 40.5333 282.387C40.4136 282.581 40.3716 282.813 40.4158 283.036C40.46 283.26 40.5871 283.458 40.7716 283.592C40.9819 283.713 41.2297 283.753 41.4674 283.703C41.7051 283.653 41.916 283.517 42.0596 283.321C42.167 283.107 42.1867 282.86 42.1146 282.631C42.0424 282.403 41.8841 282.211 41.6732 282.098" fill="rgba(var(--white), 1)"/>
</g>
<g opacity="0.6">
<path d="M36.2057 283.721L37.5903 282.542L51.8806 298.919C51.8806 298.919 52.2477 299.962 51.6488 300.361L36.2057 283.721Z" fill="rgba(var(--white), 1)"/>
</g>
<path d="M48.6863 287.411C48.6026 287.482 48.1904 287.115 47.5529 286.954C46.9153 286.793 46.3679 286.902 46.3679 286.799C46.3679 286.696 46.9089 286.374 47.6559 286.58C48.403 286.786 48.7765 287.359 48.6863 287.411Z" fill="#1F1F1F"/>
<path d="M49.588 289.8C49.53 289.89 49.0664 289.671 48.461 289.71C47.8556 289.749 47.4242 290.013 47.3533 289.929C47.2825 289.845 47.6946 289.362 48.4417 289.324C49.1887 289.285 49.6588 289.755 49.588 289.8Z" fill="#1F1F1F"/>
<path d="M48.4159 292.756C48.3257 292.699 48.6284 292.209 49.266 292.003C49.9035 291.797 50.438 292.003 50.3994 292.112C50.3608 292.222 49.91 292.196 49.3883 292.37C48.8667 292.544 48.4996 292.827 48.4159 292.756Z" fill="#1F1F1F"/>
<path d="M57.7153 214.594L57.0262 248.842L53.7547 296.678H45.3827C45.3827 296.678 41.6217 274.305 41.7956 262.61C41.9695 250.915 41.86 246.613 41.7956 245.177C41.7312 243.741 37.6805 228.028 36.7917 216.3C35.903 204.573 41.7956 201.488 41.7956 201.488L57.7153 214.594Z" fill="#FFBF9D"/>
<path d="M57.7153 214.594L57.4577 214.368C57.2709 214.214 57.0133 213.988 56.6656 213.724L53.5808 211.148L41.86 201.424L41.8085 201.379L41.7634 201.411C40.7316 202.077 39.8534 202.955 39.1874 203.987C38.4628 205.087 37.8969 206.284 37.5066 207.542C36.7253 210.319 36.4547 213.214 36.708 216.088C37.2914 222.683 38.2916 229.235 39.7026 235.704C40.0761 237.449 40.4496 239.227 40.836 241.03C41.025 241.932 41.2181 242.84 41.4156 243.754C41.5058 244.205 41.6088 244.681 41.6604 245.119C41.7119 245.557 41.699 246.06 41.7119 246.536C41.7892 250.329 41.7634 254.264 41.7119 258.231C41.7119 260.228 41.6346 262.243 41.6668 264.291C41.6668 265.315 41.7312 266.346 41.757 267.376L41.9502 270.48C42.2593 274.64 42.723 278.852 43.2382 283.128C43.8242 287.752 44.5262 292.299 45.2152 296.73V296.852H53.8899V296.717C54.6885 284.989 55.4291 273.996 56.0988 264.104C56.4337 259.165 56.7428 254.496 57.0455 250.149C57.1357 249.061 57.1486 247.992 57.1614 246.929C57.1743 245.866 57.2065 244.849 57.2194 243.844C57.258 241.829 57.2967 239.897 57.3289 238.048C57.4577 230.713 57.5607 224.853 57.6316 220.808C57.6316 218.799 57.6831 217.247 57.7024 216.184C57.7024 215.669 57.7024 215.27 57.7024 214.993C57.7024 214.716 57.7024 214.594 57.7024 214.594C57.7024 214.594 57.7024 214.735 57.7024 215.006C57.7024 215.276 57.7024 215.682 57.6638 216.21C57.6638 217.273 57.5994 218.831 57.5478 220.841C57.4577 224.878 57.3224 230.739 57.155 238.068C57.1164 239.901 57.0734 241.822 57.0262 243.831C57.0262 244.836 56.9876 245.866 56.9618 246.91C56.936 247.953 56.9618 249.022 56.833 250.13C56.5303 254.477 56.189 259.146 55.8606 264.085C55.1779 273.977 54.4244 284.964 53.613 296.684L53.7611 296.549H45.3891L45.5372 296.672C44.8095 292.247 44.1462 287.707 43.5602 283.083C43.0192 278.82 42.5555 274.602 42.2722 270.454C42.2078 269.417 42.1434 268.381 42.079 267.357C42.0146 266.333 41.9824 265.302 41.9824 264.285C41.9824 262.25 42.021 260.221 42.0274 258.225C42.0661 254.226 42.0918 250.323 42.0274 246.523C42.0274 246.047 42.0274 245.577 41.9695 245.094C41.9115 244.611 41.8085 244.153 41.7183 243.69C41.5187 242.775 41.3255 241.867 41.1323 240.966L39.9924 235.646C38.5683 229.197 37.5488 222.665 36.9398 216.088C36.6911 213.247 36.9573 210.385 37.7255 207.639C38.0988 206.405 38.6429 205.23 39.342 204.148C39.9834 203.118 40.8402 202.239 41.8536 201.572H41.7505L53.4971 211.187L56.6269 213.763L57.4319 214.407L57.7153 214.594Z" fill="#FF9A6C"/>
<path d="M54.8109 294.031V294.675C54.8109 294.675 65.7138 299.003 65.8362 301.064H44.2235L44.5262 293.87C46.1287 294.633 47.8765 295.042 49.651 295.07C51.4255 295.097 53.1853 294.743 54.8109 294.031Z" fill="rgba(var(--primary-color), 1)"/>
<g opacity="0.6">
<path d="M46.7157 296.15C46.5016 296.207 46.3168 296.343 46.1976 296.53C46.0785 296.717 46.0336 296.942 46.0717 297.161C46.128 297.37 46.262 297.55 46.4463 297.663C46.6306 297.777 46.8514 297.816 47.0635 297.773C47.2846 297.706 47.4732 297.56 47.5922 297.363C47.7113 297.165 47.7524 296.93 47.7075 296.704C47.629 296.49 47.4695 296.315 47.2636 296.217C47.0576 296.12 46.8216 296.107 46.6063 296.182" fill="rgba(var(--white), 1)"/>
</g>
<g opacity="0.6">
<path d="M44.2299 301.045L44.3007 299.312L64.9924 299.956C64.9924 299.956 65.952 300.375 65.8425 301.051L44.2299 301.045Z" fill="rgba(var(--white), 1)"/>
</g>
<path d="M54.8881 294.733C54.8881 294.837 54.36 294.882 53.8384 295.223C53.3167 295.564 53.0463 296.009 52.9432 295.964C52.8402 295.918 53.0076 295.32 53.6452 294.914C54.2827 294.508 54.9139 294.637 54.8881 294.733Z" fill="#1F1F1F"/>
<path d="M57.1549 295.667C57.1549 295.77 56.7234 295.95 56.3628 296.395C56.0022 296.839 55.9056 297.316 55.7961 297.309C55.6866 297.303 55.6286 296.71 56.0794 296.163C56.5302 295.616 57.1549 295.596 57.1549 295.667Z" fill="#1F1F1F"/>
<path d="M58.443 298.385C58.3464 298.385 58.1983 297.882 58.443 297.303C58.6877 296.723 59.2094 296.491 59.2544 296.581C59.2995 296.672 58.9968 296.981 58.7779 297.457C58.5589 297.934 58.546 298.372 58.443 298.385Z" fill="#1F1F1F"/>
<path d="M67.4203 103.137C66.1615 103.925 65.1122 105.006 64.3619 106.288C63.6117 107.57 63.1828 109.014 63.112 110.498C63.054 111.934 63.2601 113.602 62.2104 114.587C61.1606 115.572 59.3768 115.315 58.3464 116.319C57.1614 117.504 57.8054 119.539 57.2451 121.124C56.9608 121.858 56.424 122.467 55.7312 122.841C55.0383 123.215 54.2348 123.33 53.4648 123.165C55.12 124.866 57.2126 126.076 59.512 126.662L61.5599 124.582C61.2106 124.978 61.0038 125.48 60.9723 126.007C60.9408 126.535 61.0864 127.058 61.386 127.493C62.0096 128.351 62.8718 129.008 63.8654 129.38C66.1791 130.398 68.697 130.867 71.222 130.749C73.747 130.632 76.2106 129.932 78.4198 128.704" fill="#1F1F1F"/>
<path d="M92.7359 118.792C92.4014 117.687 92.1262 116.565 91.9116 115.431C91.6733 112.958 93.161 110.382 92.2465 108.076C91.6025 106.434 89.9023 105.5 88.2859 104.76C86.6695 104.019 84.9113 103.407 83.7779 102.029C82.9665 101.018 82.5865 99.7171 81.7751 98.706C80.6223 97.2635 78.7483 96.6066 76.9322 96.2782C75.0666 95.8809 73.1302 95.9719 71.3101 96.5422C70.4079 96.8378 69.588 97.3416 68.9167 98.0129C68.2454 98.6841 67.7416 99.504 67.4461 100.406C67.1949 101.295 67.2013 102.254 66.8021 103.098C66.4028 103.942 65.5141 104.682 64.9667 105.526C64.3886 106.435 64.1282 107.511 64.2261 108.584C64.324 109.657 64.7746 110.667 65.5076 111.457L76.5007 129.624C79.0767 130.958 85.8065 130.475 88.1378 128.716C90.4691 126.958 93.3091 121.652 92.7359 118.792Z" fill="#1F1F1F"/>
<path d="M66.0937 109.37C67.0597 105.648 70.4536 101.501 74.1373 102.628L85.2978 107.87C85.8368 108.033 86.2944 108.394 86.5797 108.88C86.8649 109.365 86.9567 109.941 86.837 110.491L81.6206 138.183C81.6531 138.176 81.6871 138.179 81.7179 138.191C81.7486 138.204 81.7747 138.226 81.7923 138.255C81.81 138.283 81.8185 138.316 81.8165 138.349C81.8146 138.383 81.8024 138.414 81.7816 138.441C80.1523 140.308 72.5531 148.397 66.0809 144.881C64.6383 144.108 66.8601 139.522 66.8859 137.732L67.6071 133.224C68.0257 130.938 68.2061 130.004 68.1996 130.004C68.1932 130.004 63.5371 128.265 63.756 121.787C63.8655 118.605 65.044 113.511 66.0937 109.37Z" fill="#FFBF9D"/>
<path d="M67.1112 115.173C67.0696 115.386 67.114 115.607 67.2347 115.786C67.3555 115.966 67.5427 116.091 67.7552 116.133C67.8563 116.161 67.962 116.169 68.066 116.155C68.17 116.142 68.2703 116.108 68.361 116.055C68.4516 116.002 68.5307 115.932 68.5937 115.848C68.6567 115.764 68.7022 115.668 68.7276 115.566C68.7693 115.354 68.7249 115.133 68.6041 114.953C68.4834 114.773 68.2962 114.649 68.0836 114.607C67.9826 114.579 67.8769 114.571 67.7728 114.585C67.6688 114.598 67.5685 114.632 67.4779 114.685C67.3872 114.738 67.3081 114.808 67.2451 114.892C67.1822 114.976 67.1366 115.072 67.1112 115.173Z" fill="#1F1F1F"/>
<path d="M74.9294 117.208C74.8876 117.421 74.9319 117.643 75.0525 117.824C75.1731 118.005 75.3604 118.131 75.5734 118.174C75.6745 118.202 75.7802 118.21 75.8842 118.196C75.9883 118.183 76.0885 118.149 76.1792 118.096C76.2698 118.043 76.349 117.973 76.4119 117.889C76.4749 117.805 76.5204 117.709 76.5459 117.607C76.5875 117.395 76.5431 117.174 76.4223 116.994C76.3016 116.814 76.1144 116.69 75.9019 116.648C75.8012 116.619 75.6957 116.61 75.5917 116.623C75.4877 116.635 75.3873 116.669 75.2965 116.721C75.2058 116.774 75.1265 116.844 75.0634 116.927C75.0003 117.011 74.9547 117.106 74.9294 117.208Z" fill="#1F1F1F"/>
<path d="M66.332 112.294C66.4029 112.455 67.2143 112.062 68.1481 112.294C69.0819 112.526 69.61 113.26 69.7517 113.151C69.8933 113.041 69.7517 112.842 69.5456 112.507C69.246 112.087 68.8079 111.786 68.3083 111.658C67.8088 111.529 67.2799 111.581 66.815 111.805C66.4673 112.011 66.332 112.223 66.332 112.294Z" fill="#1F1F1F"/>
<path d="M74.704 114.259C74.8006 114.407 75.612 113.956 76.636 114.117C77.6599 114.278 78.3104 114.935 78.4392 114.819C78.568 114.703 78.4392 114.51 78.1365 114.207C77.7595 113.817 77.2642 113.562 76.7275 113.481C76.1907 113.401 75.6425 113.5 75.1677 113.763C74.7748 113.988 74.6267 114.188 74.704 114.259Z" fill="#1F1F1F"/>
<path d="M70.7884 119.887C70.3582 119.659 69.9019 119.484 69.4296 119.365C69.2106 119.294 69.011 119.211 69.0045 119.056C69.0242 118.818 69.1189 118.593 69.275 118.412L70.2603 116.854C71.6321 114.625 72.6753 112.784 72.5852 112.726C71.5998 113.964 70.7127 115.277 69.9319 116.654L68.9788 118.232C68.7856 118.472 68.6851 118.774 68.6954 119.082C68.7123 119.166 68.7484 119.245 68.8009 119.314C68.8534 119.382 68.9209 119.437 68.9981 119.475C69.1122 119.532 69.2335 119.573 69.3587 119.597C69.8203 119.757 70.3011 119.854 70.7884 119.887Z" fill="#1F1F1F"/>
<path d="M68.1996 130.043C71.154 130.651 74.2191 130.428 77.0546 129.399C77.0546 129.399 74.0857 133.405 67.9033 131.595L68.1996 130.043Z" fill="#FF9A6C"/>
<path d="M73.1648 122.753C73.0872 122.529 72.9544 122.327 72.7784 122.167C72.556 122.028 72.2916 121.971 72.0314 122.006C71.6487 122.017 71.2799 122.153 70.9817 122.393C70.8338 122.513 70.7211 122.671 70.6554 122.85C70.5897 123.029 70.5734 123.223 70.6082 123.41C70.6661 123.79 71.1878 124.054 71.5548 124.164C71.927 124.259 72.3205 124.222 72.669 124.061C72.8204 124.014 72.9582 123.93 73.0704 123.818C73.1826 123.706 73.2658 123.568 73.313 123.417C73.3276 123.186 73.2762 122.956 73.1648 122.753Z" fill="#FF9A6C"/>
<path d="M73.1261 121.497C72.9909 121.497 72.8041 122.405 71.8381 122.92C70.8721 123.436 69.9061 123.133 69.9061 123.262C69.9061 123.39 70.0929 123.487 70.5115 123.584C71.0637 123.696 71.6378 123.612 72.1344 123.345C72.6078 123.09 72.9634 122.66 73.1261 122.148C73.2549 121.761 73.1905 121.504 73.1261 121.497Z" fill="#1F1F1F"/>
<path d="M74.9874 111.896C75.026 112.147 75.9147 112.205 76.9194 112.54C77.924 112.874 78.6839 113.293 78.8514 113.106C78.9286 113.016 78.8514 112.771 78.5422 112.462C78.157 112.092 77.689 111.818 77.177 111.664C76.6671 111.503 76.127 111.464 75.5992 111.548C75.1934 111.625 74.9745 111.773 74.9874 111.896Z" fill="#1F1F1F"/>
<path d="M67.6522 108.875C67.7874 109.107 68.5087 109.036 69.333 109.184C70.1573 109.332 70.8207 109.609 71.0203 109.435C71.1105 109.351 71.0203 109.132 70.7756 108.888C70.4094 108.576 69.9632 108.373 69.4876 108.302C69.0142 108.211 68.5248 108.258 68.0772 108.437C67.723 108.579 67.62 108.765 67.6522 108.875Z" fill="#1F1F1F"/>
<path d="M87.7579 109.075C87.1772 108.153 86.3242 107.435 85.3171 107.02C81.1825 104.847 76.802 103.178 72.2697 102.049C71.587 102.925 71.967 104.271 72.7527 105.056C73.6089 105.765 74.5718 106.335 75.6056 106.744C76.5974 107.252 77.5891 107.967 77.8918 109.036C78.1945 110.105 77.6922 111.413 77.9626 112.559C78.4263 114.542 81.0088 115.457 81.466 117.44C81.8073 118.935 80.822 120.377 80.4163 121.865C80.2196 122.621 80.1869 123.411 80.3203 124.181C80.4538 124.952 80.7502 125.684 81.1899 126.331C81.6295 126.977 82.2022 127.522 82.8696 127.929C83.537 128.336 84.2836 128.596 85.0595 128.691C85.9998 123.273 86.9421 117.859 87.8867 112.449C88.0863 111.316 88.2666 110.125 87.7579 109.075Z" fill="#1F1F1F"/>
<path d="M97.1538 124.112C96.381 123.242 95.3828 122.45 95.1638 121.304C94.8483 119.642 96.3617 117.897 95.6983 116.339C95.093 114.915 92.8519 114.729 92.298 113.28C91.873 112.153 92.6136 111.283 92.5105 110.324C92.3774 109.802 92.0841 109.334 91.6717 108.988C91.2592 108.641 90.7486 108.433 90.2115 108.392L81.5239 118.322C80.4162 121.864 79.4953 123.712 80.0298 125.915C80.411 127.101 80.6615 128.326 80.7769 129.566C80.8296 130.191 80.7155 130.818 80.4462 131.384C80.1769 131.95 79.762 132.434 79.2441 132.786C83.6491 133.649 88.0927 131.801 92.2079 129.991L96.5613 128.059C97.0323 127.898 97.4553 127.622 97.7913 127.254C98.5319 126.34 97.9266 124.981 97.1538 124.112Z" fill="#1F1F1F"/>
<path d="M92.4462 128.903C92.2848 128.932 92.1208 128.945 91.9568 128.942C91.4879 128.932 91.0242 128.842 90.5851 128.678C90.0425 128.474 89.5466 128.163 89.1273 127.763C88.708 127.363 88.3741 126.883 88.1454 126.35C87.9168 125.818 87.7983 125.244 87.797 124.665C87.7957 124.085 87.9116 123.512 88.1379 122.978C88.4066 122.416 88.7488 121.892 89.1554 121.42C89.5829 120.933 89.9366 120.386 90.2051 119.797C90.351 119.496 90.4268 119.165 90.4268 118.831C90.4268 118.496 90.351 118.166 90.2051 117.865C89.8638 117.279 89.1232 117.053 88.4599 116.693C88.0821 116.526 87.7727 116.235 87.5829 115.869C87.3932 115.502 87.3345 115.082 87.4166 114.677C87.6062 113.902 87.8648 113.145 88.1894 112.417C88.3209 112.054 88.3693 111.667 88.3311 111.283C88.2752 110.902 88.083 110.554 87.7901 110.304C87.1418 109.839 86.3818 109.555 85.5876 109.48C84.7821 109.357 84.0203 109.034 83.3723 108.54C82.7507 108.048 82.2762 107.396 82.0006 106.653C81.7741 105.943 81.6611 105.202 81.6657 104.457C81.6677 103.767 81.5986 103.078 81.4596 102.402C81.2964 101.781 81.0022 101.201 80.5966 100.702C79.848 99.8059 78.8171 99.1906 77.6729 98.957C76.7273 98.7731 75.7488 98.8624 74.8522 99.2146C74.1686 99.4695 73.5361 99.8447 72.9846 100.322C72.519 100.736 72.1059 101.205 71.7545 101.72C71.7545 101.72 71.7545 101.675 71.806 101.604C71.8576 101.533 71.9091 101.43 71.9992 101.295C72.2645 100.91 72.5736 100.558 72.9202 100.245C73.4705 99.7432 74.1078 99.346 74.8006 99.0729C75.7231 98.6996 76.7328 98.5968 77.7115 98.7767C78.9041 99.0061 79.9817 99.6381 80.7641 100.567C81.1909 101.089 81.5045 101.695 81.685 102.344C81.8327 103.034 81.9061 103.738 81.904 104.444C81.9039 105.165 82.0147 105.882 82.2324 106.569C82.4967 107.263 82.9413 107.875 83.5204 108.34C84.1389 108.808 84.8655 109.111 85.6327 109.222C86.4678 109.318 87.2618 109.636 87.9318 110.143C88.2765 110.431 88.5054 110.833 88.5758 111.277C88.6219 111.701 88.5712 112.13 88.4277 112.533C88.1039 113.246 87.8474 113.987 87.6613 114.748C87.5991 115.104 87.6486 115.471 87.803 115.798C87.9814 116.107 88.2483 116.356 88.5694 116.512C88.8849 116.686 89.2134 116.828 89.5611 117.008C89.9031 117.185 90.1919 117.45 90.3983 117.775C90.5571 118.105 90.6395 118.467 90.6395 118.834C90.6395 119.201 90.5571 119.563 90.3983 119.893C90.1198 120.504 89.7507 121.068 89.3035 121.568C88.9032 122.02 88.5672 122.525 88.3053 123.068C88.0852 123.579 87.9671 124.128 87.9576 124.685C87.9428 125.647 88.2613 126.584 88.8592 127.338C89.3205 127.908 89.9188 128.351 90.598 128.626C91.1909 128.835 91.8181 128.929 92.4462 128.903Z" fill="rgba(var(--primary-color), 1)"/>
<path d="M99.2661 121.916C99.3285 122.033 99.3637 122.163 99.3692 122.295C99.3984 122.682 99.2862 123.067 99.0536 123.377C98.8849 123.605 98.664 123.788 98.4096 123.912C98.1026 124.048 97.7639 124.098 97.4307 124.054C97.0237 124 96.6393 123.836 96.32 123.578C96.0007 123.32 95.7588 122.978 95.6211 122.592C95.4568 122.148 95.4016 121.671 95.4601 121.201C95.5363 120.702 95.7044 120.221 95.956 119.784C96.4197 118.857 97.1667 117.994 97.3148 116.873C97.367 116.599 97.3637 116.316 97.305 116.043C97.2464 115.77 97.1337 115.511 96.9735 115.282C96.5641 114.857 96.0051 114.607 95.415 114.587C94.7512 114.564 94.0968 114.422 93.483 114.168C93.1696 113.998 92.9191 113.732 92.7682 113.408C92.6223 113.089 92.5497 112.742 92.5557 112.391C92.5978 111.722 92.7277 111.062 92.9421 110.427C93.1095 109.825 93.1468 109.195 93.0515 108.578C92.8624 107.405 92.2337 106.348 91.2934 105.622C90.3917 105.031 89.3594 104.669 88.2859 104.566C87.3283 104.454 86.3939 104.194 85.5167 103.793C84.8083 103.427 84.1799 102.924 83.6685 102.312C83.2825 101.852 82.9697 101.335 82.7411 100.779C82.5303 100.314 82.4059 99.8145 82.374 99.3047C82.4816 99.7965 82.6347 100.277 82.8313 100.741C83.397 101.993 84.3743 103.013 85.6005 103.632C86.4668 104.008 87.3854 104.249 88.3246 104.347C89.4341 104.449 90.5019 104.821 91.4351 105.429C92.4341 106.188 93.1029 107.301 93.3027 108.54C93.4019 109.184 93.3646 109.842 93.1932 110.472C92.9921 111.086 92.8646 111.721 92.8133 112.365C92.7911 112.672 92.8531 112.98 92.9927 113.254C93.1323 113.529 93.3441 113.76 93.6054 113.923C94.1838 114.157 94.7981 114.29 95.4215 114.316C95.746 114.329 96.065 114.405 96.36 114.541C96.655 114.677 96.9204 114.87 97.1409 115.108C97.3212 115.364 97.4483 115.653 97.5146 115.958C97.581 116.263 97.5853 116.579 97.5273 116.886C97.4327 117.456 97.2294 118.003 96.9284 118.496C96.6515 118.972 96.3553 119.417 96.1234 119.861C95.8835 120.281 95.7221 120.742 95.6469 121.22C95.5921 121.654 95.6384 122.095 95.7821 122.508C95.9062 122.867 96.1259 123.186 96.4175 123.43C96.709 123.674 97.0616 123.834 97.4372 123.893C97.7448 123.938 98.0589 123.898 98.3452 123.777C98.5828 123.666 98.7904 123.501 98.9506 123.294C99.1816 123.005 99.3046 122.646 99.2983 122.276C99.2961 122.155 99.2853 122.035 99.2661 121.916Z" fill="#1F1F1F"/>
<path d="M52.0417 119.172C51.8729 119.537 51.8321 119.947 51.9257 120.338C51.9742 120.562 52.0722 120.771 52.2127 120.952C52.3531 121.133 52.5324 121.279 52.7372 121.381C53.0146 121.499 53.3194 121.538 53.6174 121.492C53.9155 121.447 54.1949 121.319 54.4245 121.124C54.688 120.895 54.8615 120.58 54.9139 120.235C54.9715 119.854 54.9584 119.465 54.8753 119.089C54.7271 118.309 54.3407 117.433 54.5275 116.455C54.6177 115.959 54.8111 115.488 55.0951 115.072C55.3791 114.656 55.7474 114.304 56.1762 114.04C56.626 113.759 57.1238 113.565 57.6445 113.466C58.1793 113.384 58.7223 113.369 59.2609 113.421C59.7791 113.473 60.3012 113.473 60.8194 113.421C61.3071 113.379 61.7639 113.165 62.1074 112.816C62.4191 112.45 62.6221 112.004 62.6934 111.528C62.7705 111.071 62.7835 110.605 62.7321 110.143C62.5887 109.267 62.5562 108.375 62.6355 107.49C62.7706 106.711 63.1336 105.989 63.6787 105.416C64.1385 104.968 64.678 104.61 65.2694 104.36C65.7157 104.181 66.1465 103.966 66.5574 103.716C66.8889 103.49 67.1733 103.201 67.3946 102.866C67.3969 102.892 67.3969 102.918 67.3946 102.943C67.3655 103.016 67.3288 103.085 67.2852 103.15C67.1144 103.404 66.8956 103.623 66.6412 103.794C66.2441 104.064 65.8264 104.303 65.3918 104.508C64.7991 104.775 64.2617 105.151 63.8076 105.616C63.2973 106.165 62.9611 106.853 62.8416 107.593C62.7797 108.454 62.823 109.319 62.9704 110.169C63.0248 110.654 63.0118 111.144 62.9317 111.625C62.8527 112.142 62.6295 112.626 62.2877 113.022C61.9048 113.413 61.3964 113.657 60.8516 113.711C60.3162 113.763 59.777 113.763 59.2416 113.711C58.7268 113.659 58.2075 113.672 57.696 113.75C57.205 113.839 56.7353 114.021 56.3114 114.284C55.91 114.524 55.563 114.845 55.2925 115.227C55.022 115.608 54.8338 116.042 54.74 116.5C54.5597 117.388 54.9139 118.226 55.0685 119.043C55.1455 119.45 55.1455 119.867 55.0685 120.274C54.9986 120.659 54.7986 121.009 54.5017 121.265C54.245 121.478 53.9335 121.613 53.6032 121.657C53.2728 121.7 52.937 121.649 52.6342 121.51C52.2775 121.318 52.0015 121.004 51.8562 120.626C51.7108 120.248 51.7058 119.831 51.842 119.449C51.8892 119.344 51.9571 119.25 52.0417 119.172Z" fill="#1F1F1F"/>
<path d="M80.6545 189.336L44.3523 181.917C44.3523 181.917 39.123 186.76 37.0622 193C32.7925 205.912 40.031 240.212 40.031 240.212L58.1918 238.924L84.8277 237.436C84.8277 223.912 80.9057 197.315 80.9057 197.315L80.6545 189.336Z" fill="#1F1F1F"/>
<path d="M90.8555 139.871L82.1486 136.045C82.1486 136.045 77.2155 140.631 71.4968 138.873C68.1609 137.849 67.4396 134.307 67.4396 134.307L57.2451 134.886L52.8079 154.271L52.6598 165.315L42.9612 181.608C42.9612 181.608 55.1972 198.829 82.7089 194.205L84.4412 172.638C84.4412 172.638 88.6787 161.084 88.8719 157.233C89.0651 153.382 88.8719 148.764 88.8719 148.764L90.8555 139.871Z" fill="rgba(var(--primary-color), 1)"/>
<path d="M73.577 195.004C70.658 195.011 67.7448 194.741 64.8766 194.199C60.5276 193.375 56.3451 191.836 52.4989 189.646C49.8777 188.149 47.4545 186.329 45.2861 184.23C44.4389 183.419 43.6572 182.543 42.9484 181.609L52.6534 165.328L52.808 154.264L57.2452 134.874L67.4526 134.294C67.6193 134.959 67.8817 135.597 68.2318 136.187C68.9497 137.453 70.1176 138.403 71.5033 138.847C73.9956 139.541 76.6577 139.272 78.9608 138.094C80.1099 137.549 81.18 136.851 82.1422 136.02L90.8555 139.884L88.872 148.765C88.872 148.887 89.0588 153.459 88.872 157.24C88.6852 161.02 84.5186 172.438 84.4413 172.651L82.7089 194.225C79.6916 194.736 76.6373 194.996 73.577 195.004ZM42.9806 181.609C43.6895 182.527 44.4689 183.388 45.3118 184.185C47.4786 186.282 49.8996 188.099 52.5182 189.594C58.443 192.995 68.483 196.543 82.696 194.16L84.4284 172.599C84.4735 172.483 88.6659 161.007 88.8591 157.201C89.0523 153.395 88.8591 148.771 88.8591 148.726L90.8362 139.858L82.1551 136.046C81.1905 136.872 80.1208 137.567 78.9737 138.113C77.9023 138.634 76.758 138.99 75.5798 139.169C74.2138 139.376 72.8187 139.275 71.4969 138.873C70.1007 138.428 68.9249 137.471 68.206 136.194C67.855 135.606 67.5924 134.971 67.4268 134.307L57.258 134.886L52.808 154.271L52.6663 165.315L42.9806 181.609Z" fill="#1F1F1F"/>
<path d="M58.7393 164.98C58.889 165.196 59.0618 165.395 59.2545 165.573C59.5893 165.94 60.1045 166.449 60.7679 167.054C64.2337 170.208 68.2742 172.666 72.669 174.293C73.5062 174.602 74.2017 174.827 74.6847 174.937C74.929 175.022 75.1815 175.083 75.4382 175.117C75.2081 174.996 74.9665 174.899 74.7169 174.827C74.2468 174.66 73.5706 174.409 72.7463 174.074C68.4278 172.351 64.4272 169.92 60.9095 166.88C60.2655 166.294 59.6988 165.811 59.3317 165.47C59.1515 165.287 58.953 165.123 58.7393 164.98Z" fill="#1F1F1F"/>
<g opacity="0.3">
<path d="M48.6929 171.987C49.3408 172.264 50.0523 172.359 50.7504 172.262C51.4485 172.164 52.1066 171.878 52.6535 171.433C53.6183 170.493 54.3886 169.373 54.9204 168.135L59.1192 159.905C64.0428 158.434 69.3248 158.72 74.06 160.717C74.7931 160.979 75.4546 161.409 75.992 161.972C76.6079 162.862 76.9545 163.911 76.9902 164.993C77.3058 167.569 77.5827 170.228 78.5938 172.637C79.6049 175.046 81.4854 177.242 84.0034 177.937L85.3751 166.242L81.5562 156.949L63.1893 153.549L55.5966 156.395L50.4446 168.986L48.6929 171.987Z" fill="#1F1F1F"/>
</g>
<path d="M89.8058 139.587C89.8058 139.587 94.1399 140.057 95.8723 145.789C97.1603 149.988 98.1134 158.07 98.1134 158.07L87.4552 158.636V148.332L89.8058 139.587Z" fill="rgba(var(--primary-color), 1)"/>
<path d="M87.4359 158.656V148.352L89.7865 139.581C90.6431 139.727 91.4594 140.052 92.1822 140.534C94.0084 141.78 95.318 143.648 95.8659 145.789C97.1539 149.943 98.1006 157.993 98.1134 158.077L87.4359 158.656ZM87.4359 148.352V158.618L98.0619 158.057C98.0104 157.632 97.0444 149.853 95.8208 145.789C95.2779 143.654 93.9722 141.792 92.15 140.553C91.4352 140.08 90.6308 139.757 89.7865 139.607L87.4359 148.352Z" fill="#1F1F1F"/>
<path d="M57.2452 134.886C55.2101 134.882 53.2443 135.624 51.7197 136.972C49.4077 139.181 44.3523 147.637 44.3523 147.637L54.6563 151.108L57.96 140.869L57.2452 134.886Z" fill="rgba(var(--primary-color), 1)"/>
<path d="M54.6434 151.134L44.3394 147.65C44.3909 147.56 49.427 139.169 51.7196 136.986C52.7462 136.032 54.0129 135.375 55.384 135.086C56.0044 134.94 56.64 134.869 57.2773 134.873L57.96 140.869L54.6434 151.134ZM44.3716 147.631L54.624 151.089L57.9149 140.869L57.2322 134.905C55.2071 134.908 53.2521 135.647 51.7325 136.986C49.4978 139.104 44.6292 147.199 44.3716 147.631Z" fill="#1F1F1F"/>
<path d="M90.3275 150.432C90.1105 150.818 89.9336 151.226 89.7994 151.649C89.4581 152.512 89.0717 153.516 88.6402 154.618C88.2087 155.719 87.803 156.711 87.4552 157.574C87.2637 157.973 87.1148 158.392 87.0109 158.823C87.2737 158.463 87.4901 158.071 87.6549 157.657C88.0091 156.923 88.4663 155.886 88.9429 154.727C89.4194 153.568 89.7736 152.499 90.0248 151.72C90.1773 151.304 90.279 150.872 90.3275 150.432Z" fill="#1F1F1F"/>
<path d="M55.9829 142.91C55.4014 144.515 54.9112 146.151 54.5146 147.811C54.021 149.443 53.6253 151.103 53.3296 152.783C53.9105 151.18 54.4008 149.546 54.7979 147.888C55.291 146.254 55.6867 144.592 55.9829 142.91Z" fill="#1F1F1F"/>
<path d="M77.1126 137.218L75.6764 152.674C75.6488 152.93 75.521 153.165 75.3208 153.328C75.1206 153.491 74.8642 153.568 74.6074 153.543L64.6705 152.79C64.4108 152.773 64.1678 152.656 63.9924 152.464C63.817 152.272 63.723 152.019 63.7302 151.759L64.6705 135.511C64.6785 135.373 64.7156 135.238 64.7792 135.115C64.8428 134.992 64.9315 134.884 65.0397 134.798C65.1478 134.712 65.2729 134.649 65.4068 134.615C65.5407 134.58 65.6804 134.574 65.8168 134.597L76.2496 136.136C76.5047 136.171 76.7365 136.303 76.8971 136.504C77.0577 136.706 77.1348 136.961 77.1126 137.218Z" fill="#1F1F1F"/>
<path d="M71.2007 144.521C71.4583 144.591 77.0611 146.614 77.0611 146.614L84.5057 152.236L87.4552 158.637L82.0263 165.251L80.9444 158.502C79.6576 158.683 78.3486 158.631 77.0804 158.347C75.348 157.871 69.8418 156.454 69.8418 156.454L67.2658 154.406C66.9812 153.761 66.782 153.081 66.6733 152.384C66.6844 152.261 66.7308 152.143 66.807 152.045C66.8831 151.948 66.9858 151.874 67.1026 151.834C67.2195 151.793 67.3456 151.787 67.4659 151.816C67.5863 151.845 67.6956 151.908 67.781 151.997C68.3091 152.429 72.3277 153.227 73.4031 153.008C73.4031 153.008 67.6071 151.547 67.0147 150.484C66.4222 149.421 66.8086 148.739 67.7295 148.906C68.6504 149.074 71.9219 150.156 72.9459 150.252C73.9699 150.349 75.2257 150.581 75.567 150.143C75.9083 149.705 75.2192 149.164 75.2192 149.164L74.2725 148.159C74.2725 148.159 70.1252 146.665 70.0286 145.731C70.0048 145.57 70.0184 145.406 70.0683 145.251C70.1182 145.096 70.2031 144.954 70.3164 144.837C70.4296 144.72 70.5683 144.631 70.7216 144.576C70.875 144.521 71.0389 144.502 71.2007 144.521Z" fill="#FFBF9D"/>
<path d="M69.2879 143.883C69.2879 143.883 64.2454 143.773 63.8783 144.011C63.5112 144.25 56.028 150.438 56.028 150.438L54.2827 151.546L57.2451 157.284L58.1145 156.969L64.1552 155.075C64.7644 154.937 65.3856 154.86 66.01 154.843C66.01 154.843 71.7416 154.998 72.2181 154.418C72.6947 153.839 72.5208 153.652 72.1215 153.478C70.6104 153.24 69.085 153.104 67.5556 153.072C66.8043 153.007 66.0606 152.874 65.3338 152.673C65.3338 152.673 67.7423 152.564 68.3026 152.486C68.8629 152.409 74.2467 152.216 74.324 151.308C74.4013 150.4 73.8152 149.955 70.4149 150.219C68.5398 150.392 66.651 150.346 64.7864 150.084L72.3984 148.957C72.3984 148.957 75.451 148.584 74.6653 147.618C73.8796 146.652 67.3817 147.186 67.3817 147.186L64.4644 147.689L65.527 146.24C65.527 146.24 69.6228 145.827 70.1895 145.538C70.8915 145.19 71.0525 144.771 70.6596 144.308C70.2709 144.001 69.782 143.849 69.2879 143.883Z" fill="#FFBF9D"/>
<path d="M45.2345 147.934L53.6065 150.78L53.1879 152.712L54.8495 151.166L57.2451 157.265C57.2451 157.265 55.3582 160.794 54.3343 162.752C51.5908 167.981 47.6367 173.7 44.2106 172.74C40.1019 171.613 38.8654 166.899 39.4901 163.828C40.0632 161.052 45.2345 147.934 45.2345 147.934Z" fill="#FFBF9D"/>
<path d="M97.4822 158.103L89.7929 158.573L87.4551 158.637L85.9353 155.308L81.4659 161.001C81.4659 161.001 81.994 164.968 82.2709 167.157C83.0051 173.018 84.7181 179.741 88.2537 180.037C92.4977 180.417 96.4196 176.205 96.9026 173.108C97.347 170.326 97.4822 158.103 97.4822 158.103Z" fill="#FFBF9D"/>
<path d="M56.028 150.412C56.028 150.412 56.0924 150.348 56.234 150.232L56.878 149.71L59.248 147.74L63.0025 144.649L63.5692 144.198L63.8654 143.966C63.9901 143.905 64.126 143.87 64.2647 143.863C64.7799 143.811 65.3144 143.799 65.8618 143.786C66.9566 143.786 68.1158 143.786 69.333 143.786C69.6425 143.776 69.9515 143.817 70.2475 143.908C70.4053 143.959 70.5518 144.04 70.679 144.146C70.8003 144.259 70.8949 144.398 70.9559 144.552C70.9863 144.634 70.9986 144.721 70.9919 144.807C70.9853 144.894 70.9598 144.978 70.9172 145.054C70.8305 145.198 70.7114 145.319 70.5695 145.409C70.4374 145.51 70.2894 145.588 70.1316 145.64C69.9729 145.688 69.8116 145.727 69.6486 145.756C68.3606 145.995 66.9888 146.143 65.5785 146.297L65.6429 146.259L64.5867 147.714L64.4901 147.572L67.4074 147.07C68.6375 146.98 69.8997 146.922 71.1877 146.928C71.833 146.927 72.4779 146.959 73.1197 147.025C73.4525 147.055 73.7822 147.113 74.105 147.199C74.2758 147.242 74.4388 147.311 74.588 147.405C74.671 147.454 74.7418 147.521 74.7953 147.602C74.8489 147.682 74.8836 147.773 74.8972 147.869C74.9009 147.966 74.879 148.062 74.8338 148.148C74.7886 148.234 74.7216 148.306 74.6396 148.358C74.4988 148.461 74.3451 148.546 74.1823 148.609C73.8629 148.734 73.5332 148.831 73.197 148.899C72.553 149.041 71.851 149.112 71.1748 149.221L67.0468 149.82L64.8057 150.148V149.955C66.5319 150.19 68.2778 150.246 70.0156 150.123C70.8722 150.049 71.7321 150.021 72.5916 150.039C73.0309 150.037 73.4671 150.113 73.8796 150.264C74.0945 150.344 74.2746 150.497 74.3884 150.696C74.4775 150.898 74.5044 151.122 74.4657 151.34C74.4351 151.459 74.3587 151.561 74.2532 151.623C74.1637 151.683 74.0688 151.735 73.9698 151.778C73.7797 151.855 73.5838 151.918 73.3838 151.964C72.9932 152.061 72.5976 152.137 72.1988 152.19C71.4067 152.306 70.6274 152.377 69.8546 152.435L68.7083 152.518C68.3412 152.518 67.9613 152.602 67.5878 152.615C66.8407 152.66 66.113 152.699 65.3917 152.724V152.557C66.1804 152.796 66.9962 152.935 67.8196 152.969C68.6375 153.001 69.4232 153.059 70.196 153.124C70.5824 153.124 70.9623 153.195 71.3423 153.24L71.9026 153.317C71.9983 153.335 72.0929 153.359 72.1859 153.388C72.2764 153.426 72.3627 153.474 72.4435 153.529C72.4893 153.56 72.528 153.6 72.5569 153.646C72.5858 153.693 72.6042 153.745 72.611 153.8C72.6173 153.901 72.595 154.001 72.5466 154.09C72.5085 154.172 72.4609 154.25 72.4049 154.322L72.3212 154.431C72.2863 154.47 72.2449 154.503 72.1988 154.528C71.8681 154.663 71.5182 154.745 71.162 154.772C69.877 154.881 68.5872 154.922 67.298 154.895H66.4221C66.1454 154.878 65.868 154.878 65.5914 154.895C65.0745 154.913 64.5619 154.996 64.0651 155.139L59.6537 156.492L58.5009 156.84L58.2047 156.923H58.1016L58.1982 156.885L58.488 156.788L59.6344 156.415C60.6519 156.099 62.1202 155.629 63.9878 155.036C65.0549 154.774 66.1571 154.682 67.2529 154.766C68.5425 154.787 69.8323 154.739 71.1169 154.624C71.4529 154.601 71.7833 154.525 72.0958 154.399C72.1263 154.381 72.1544 154.359 72.1795 154.334L72.2568 154.231C72.3057 154.167 72.3488 154.098 72.3856 154.025C72.4076 153.996 72.4234 153.963 72.4321 153.927C72.4408 153.891 72.4422 153.854 72.4362 153.818C72.4301 153.782 72.4168 153.748 72.3971 153.717C72.3773 153.686 72.3515 153.659 72.3212 153.639C72.2497 153.592 72.1743 153.551 72.0958 153.517C72.0133 153.492 71.9294 153.473 71.8446 153.459C71.6643 153.426 71.484 153.407 71.2972 153.381C70.9237 153.336 70.5437 153.304 70.1573 153.272C69.391 153.207 68.5988 153.156 67.7938 153.124C66.9557 153.093 66.1248 152.957 65.3209 152.718C65.3097 152.716 65.2992 152.711 65.2898 152.705C65.2805 152.698 65.2725 152.69 65.2665 152.68C65.2605 152.671 65.2565 152.66 65.2548 152.649C65.253 152.637 65.2536 152.626 65.2565 152.615C65.2595 152.597 65.269 152.58 65.2832 152.568C65.2974 152.557 65.3153 152.55 65.3338 152.551L67.5234 152.435C67.8969 152.435 68.2575 152.357 68.6439 152.332L69.7838 152.248C70.5566 152.19 71.3294 152.119 72.1151 152.003C72.5075 151.95 72.8967 151.875 73.2807 151.778C73.4724 151.734 73.6599 151.674 73.841 151.597C74.002 151.527 74.2016 151.417 74.2274 151.295C74.2562 151.118 74.2315 150.936 74.1566 150.773C74.0717 150.61 73.9258 150.487 73.7508 150.432C73.3681 150.297 72.9653 150.227 72.5594 150.226C71.7149 150.209 70.8701 150.237 70.0285 150.309C68.2758 150.436 66.5146 150.38 64.7735 150.142C64.7604 150.141 64.7476 150.138 64.7359 150.132C64.7243 150.126 64.7141 150.117 64.7062 150.107C64.6982 150.096 64.6926 150.084 64.6898 150.071C64.6869 150.059 64.6869 150.045 64.6898 150.032C64.6924 150.011 64.7021 149.991 64.7173 149.976C64.7324 149.961 64.7522 149.951 64.7735 149.949L67.0146 149.62L71.1426 149.021C71.8188 148.912 72.5015 148.841 73.1519 148.706C73.4751 148.642 73.7919 148.549 74.0986 148.429C74.2446 148.371 74.383 148.295 74.5108 148.204C74.5669 148.17 74.6139 148.123 74.6476 148.067C74.6813 148.01 74.7006 147.947 74.704 147.882C74.6653 147.617 74.3562 147.456 74.06 147.379C73.7475 147.295 73.4288 147.237 73.1068 147.205C72.4628 147.134 71.8188 147.115 71.1748 147.109C69.8868 147.109 68.6375 147.16 67.4139 147.244L64.4966 147.74C64.4847 147.743 64.4724 147.743 64.4604 147.741C64.4484 147.739 64.4369 147.734 64.4267 147.728C64.4164 147.721 64.4076 147.713 64.4008 147.702C64.394 147.692 64.3894 147.681 64.3871 147.669C64.382 147.659 64.3793 147.648 64.3793 147.637C64.3793 147.626 64.382 147.615 64.3871 147.605L65.4497 146.156C65.4562 146.144 65.4656 146.135 65.4769 146.128C65.4881 146.121 65.5009 146.117 65.5141 146.117C66.918 145.969 68.2833 145.827 69.5648 145.595C69.7258 145.563 69.8804 145.531 70.0285 145.486C70.1704 145.433 70.3047 145.362 70.4278 145.273C70.679 145.112 70.8657 144.855 70.7562 144.591C70.703 144.461 70.6208 144.344 70.5159 144.25C70.411 144.157 70.2862 144.088 70.1509 144.05C69.8743 143.961 69.5847 143.92 69.2944 143.927C68.0836 143.927 66.9244 143.889 65.8361 143.895C65.2887 143.895 64.7542 143.895 64.2454 143.966C64.1297 143.969 64.0158 143.995 63.9105 144.043L63.6207 144.262L63.054 144.713L59.248 147.804L56.8523 149.736C56.5754 149.949 56.3693 150.116 56.2083 150.239L56.028 150.412Z" fill="#FF9A6C"/>
<path d="M54.5274 151.481C54.5789 151.539 51.4813 154.135 47.6108 157.277C43.7404 160.42 40.5655 162.938 40.5268 162.88C40.4882 162.822 43.573 160.227 47.4434 157.084C51.3138 153.942 54.4823 151.423 54.5274 151.481Z" fill="#FF9A6C"/>
<path d="M92.678 169.843C92.6329 169.843 92.4719 169.109 92.034 167.956C91.4767 166.451 90.8183 164.986 90.0634 163.57C89.1875 161.896 88.3375 160.408 87.7643 159.307C87.4745 158.76 87.2491 158.309 87.1203 158.019C87.0363 157.859 86.9694 157.691 86.9207 157.517C87.0387 157.654 87.1363 157.808 87.2105 157.974L87.9446 159.262C88.5886 160.337 89.4387 161.838 90.3081 163.493C91.0763 164.915 91.7226 166.399 92.2401 167.93C92.3882 168.396 92.5129 168.869 92.6136 169.347C92.6565 169.509 92.6781 169.675 92.678 169.843Z" fill="#FF9A6C"/>
</svg>
