<svg viewBox="0 0 322 214" id="noRide" xmlns="http://www.w3.org/2000/svg">
<path d="M294.72 76.4715C295.246 77.0518 295.649 77.7317 295.906 78.4707C296.163 79.2097 296.268 79.9927 296.214 80.7729C296.097 82.3349 295.621 83.8491 294.823 85.1984C293.363 87.8435 290.633 89.992 288.014 91.5114C286.511 88.5154 287.439 84.7362 288.014 82.853C288.946 79.857 292.449 75.0505 294.703 76.4715" fill="#EBEBEB"/>
<path d="M288.851 97.2035C289.018 96.3453 289.41 95.5465 289.987 94.888C290.564 94.2296 291.305 93.7349 292.136 93.4542C292.969 93.1859 293.848 93.0856 294.72 93.1591C295.593 93.2326 296.442 93.4784 297.219 93.8822C297.94 94.2418 298.653 94.7896 298.829 95.5942C298.886 95.9672 298.842 96.3486 298.704 96.6996C298.565 97.0506 298.336 97.3588 298.039 97.593C297.437 98.0559 296.723 98.3513 295.97 98.449C293.394 98.877 290.865 98.8428 288.851 97.2164" fill="#EBEBEB"/>
<path d="M282.343 104.475C282.433 104.288 282.539 104.109 282.66 103.94L283.579 102.519C284.369 101.338 285.459 99.6303 287.203 98.2393C288.662 97.0336 290.419 96.2387 292.29 95.9367C292.859 95.8535 293.435 95.8391 294.008 95.8939C294.162 95.9062 294.315 95.9276 294.467 95.9581C294.574 95.9581 294.626 95.988 294.626 95.9966C293.857 95.9506 293.086 95.9821 292.325 96.0908C290.489 96.44 288.772 97.2485 287.336 98.4405C285.618 99.7887 284.528 101.462 283.708 102.622C283.3 103.208 282.969 103.683 282.729 104.004C282.616 104.174 282.487 104.331 282.343 104.475Z" fill="#E0E0E0"/>
<path d="M292.376 80.3789C292.357 80.4679 292.332 80.5552 292.299 80.64L292.05 81.3719C291.826 82.0096 291.492 82.9212 291.071 84.0469C290.212 86.2981 289.014 89.3926 287.602 92.7781C286.189 96.1635 284.841 99.1981 283.832 101.389C283.33 102.481 282.914 103.358 282.622 103.957C282.48 104.24 282.364 104.471 282.278 104.651C282.241 104.733 282.197 104.812 282.145 104.886C282.165 104.799 282.196 104.714 282.235 104.634C282.317 104.45 282.415 104.206 282.544 103.919L283.691 101.317C284.661 99.1167 285.988 96.0737 287.4 92.6882C288.813 89.3027 290.045 86.2211 290.925 83.9827L291.968 81.3333C292.088 81.0423 292.183 80.8026 292.26 80.6186C292.29 80.5346 292.329 80.4542 292.376 80.3789Z" fill="#E0E0E0"/>
<path d="M284.103 97.2335C284.514 95.4358 284.49 93.566 284.031 91.7796C283.573 89.9931 282.694 88.3414 281.467 86.9615C280.84 86.2639 279.917 85.6048 279.032 85.9215C278.148 86.2382 277.864 87.3382 277.847 88.2755C277.845 90.2317 278.424 92.1449 279.51 93.774C280.597 95.4031 282.142 96.6753 283.952 97.4304" fill="#EBEBEB"/>
<path d="M280.784 89.7559C280.936 89.8827 281.073 90.0263 281.192 90.1839C281.347 90.3491 281.491 90.525 281.621 90.7103C281.78 90.9286 281.978 91.1597 282.154 91.4507C282.358 91.7574 282.545 92.0746 282.716 92.4009C282.92 92.771 283.102 93.1526 283.261 93.5437C283.628 94.444 283.89 95.3832 284.043 96.3428C284.18 97.3039 284.206 98.2776 284.12 99.2446C284.081 99.6661 284.016 100.085 283.927 100.499C283.856 100.861 283.763 101.218 283.648 101.569C283.561 101.859 283.46 102.145 283.343 102.425C283.263 102.639 283.168 102.848 283.059 103.05C282.984 103.23 282.89 103.402 282.78 103.563C282.733 103.563 283.132 102.806 283.502 101.522C283.602 101.174 283.684 100.821 283.746 100.464C283.826 100.056 283.883 99.6426 283.918 99.2275C283.993 98.2755 283.963 97.3181 283.828 96.3727C283.675 95.4316 283.423 94.5092 283.077 93.6207C282.905 93.2141 282.746 92.8289 282.557 92.4822C282.395 92.1565 282.216 91.8394 282.02 91.5321C281.299 90.3936 280.724 89.7858 280.784 89.7559Z" fill="#E0E0E0"/>
<path d="M27.9324 49.7934C27.9324 49.7934 23.9825 51.0774 27.8122 59.509C31.6419 67.9406 34.3767 72.1693 34.3767 72.1693C34.3767 72.1693 35.0336 74.1167 33.4021 74.3392C31.7707 74.5618 28.2501 73.8299 27.4258 75.7687C26.5671 77.7761 27.9839 79.7748 30.9249 81.6109C33.8658 83.4471 40.1641 87.6971 40.7308 88.0823C41.2976 88.4675 41.8213 89.3663 40.7308 89.7087C39.6403 90.0511 31.5989 90.4962 32.0454 94.2883C32.4919 98.0804 41.5337 101.864 42.504 102.292C43.4743 102.72 43.7018 103.148 43.5945 103.696C43.4872 104.244 40.7695 104.124 38.4854 104.363C36.2014 104.603 33.5953 105.245 34.0375 107.411C34.4797 109.576 39.7133 114.332 52.8767 116.24L59.0333 116.728L62.6311 111.691C69.6808 100.447 69.4232 93.3938 68.0536 91.6561C66.684 89.9184 64.4902 91.4763 62.8458 93.0685C61.2015 94.6607 59.5142 96.7921 59.0333 96.5225C58.5525 96.2528 58.3593 95.8077 58.6598 94.7848C58.9603 93.7619 61.927 84.4529 59.3124 81.6623C56.6977 78.8717 51.1551 84.6925 50.1933 85.3089C49.2316 85.9252 48.8839 84.9237 48.9526 84.2517C49.0213 83.5797 49.837 76.0341 50.335 72.6101C50.8331 69.1861 50.2105 66.8321 48.1283 66.1901C46.119 65.5567 44.3931 68.7153 43.1695 69.811C41.9459 70.9067 40.8811 69.1476 40.8811 69.1476C40.8811 69.1476 39.4171 64.3454 35.4329 55.9737C31.4487 47.6021 27.8465 49.8576 27.8465 49.8576" fill="#EBEBEB"/>
<path d="M59.2909 118.18C56.3886 112.017 51.4169 100.983 47.0978 91.5326C42.7787 82.0824 38.8632 73.5309 35.991 67.3592L32.5864 60.0489L31.6633 58.063L31.4272 57.5409C31.3948 57.4799 31.3661 57.417 31.3413 57.3525C31.3413 57.3525 31.3757 57.4082 31.4358 57.5237L31.6891 58.0373C31.908 58.4953 32.23 59.1587 32.6465 60.0104C33.4751 61.7224 34.6558 64.2091 36.1069 67.2864C39.0092 73.4453 42.9462 81.9882 47.2696 91.4385C51.593 100.889 56.5432 111.948 59.4154 118.129" fill="#E0E0E0"/>
<path d="M32.3287 76.9893C32.476 77.0226 32.6198 77.0699 32.7581 77.1305C33.0243 77.2289 33.4107 77.3873 33.8829 77.5842C34.8275 77.9822 36.1197 78.5643 37.5365 79.232L41.1515 80.944L42.2506 81.4576C42.3886 81.5132 42.5209 81.582 42.6456 81.663C42.4973 81.6355 42.3531 81.5895 42.2163 81.5261C41.9458 81.4276 41.5637 81.2693 41.0914 81.0681C40.1469 80.6401 38.8632 80.0623 37.4507 79.3946L33.8228 77.6826L32.7237 77.1733C32.5855 77.127 32.453 77.0652 32.3287 76.9893Z" fill="#E0E0E0"/>
<path d="M43.0792 81.3199C43.032 81.3199 44.1182 78.5893 45.505 75.2723C46.8917 71.9553 48.081 69.2803 48.1067 69.2803C48.1325 69.2803 47.072 72.0109 45.681 75.3322C44.29 78.6535 43.1308 81.3199 43.0792 81.3199Z" fill="#E0E0E0"/>
<path d="M49.0557 96.1076C49.1327 95.9772 49.2233 95.8552 49.3261 95.7438C49.5322 95.4827 49.7941 95.1617 50.1032 94.7808C50.7558 93.9676 51.6574 92.8377 52.6062 91.558C53.5551 90.2783 54.3751 89.097 54.9633 88.2324L55.6588 87.2095C55.7376 87.0802 55.8281 86.9584 55.9293 86.8457C55.8777 86.9886 55.8069 87.124 55.7189 87.248C55.5729 87.5048 55.354 87.8643 55.0749 88.3052C54.5168 89.1911 53.7139 90.3938 52.7565 91.6735C51.7991 92.9533 50.8889 94.0746 50.2063 94.8664C49.8628 95.2602 49.5837 95.5769 49.382 95.7909C49.2866 95.9093 49.177 96.0157 49.0557 96.1076Z" fill="#E0E0E0"/>
<path d="M38.4683 94.3484C38.6119 94.339 38.7561 94.3476 38.8976 94.3741L40.0353 94.5153C40.9927 94.648 42.3151 94.8406 43.7748 95.0632C45.2346 95.2857 46.5526 95.4912 47.5057 95.6624L48.6349 95.8678C48.7744 95.8839 48.9113 95.9169 49.0427 95.9663C48.8991 95.9757 48.7549 95.967 48.6134 95.9406L47.48 95.7993C46.5183 95.6667 45.1959 95.4741 43.7362 95.2515C42.2765 95.0289 40.9584 94.8235 40.0053 94.6523L38.8804 94.4469C38.7398 94.4294 38.6016 94.3964 38.4683 94.3484Z" fill="#E0E0E0"/>
<path d="M42.0747 108.092C42.2544 108.087 42.4342 108.1 42.6114 108.13L44.0711 108.31C45.299 108.468 46.9949 108.699 48.8668 108.969C50.7387 109.239 52.4345 109.491 53.6581 109.688L55.1093 109.924C55.2881 109.948 55.4647 109.987 55.6373 110.039C55.4562 110.044 55.275 110.031 55.0964 110.001L53.6409 109.821C52.4131 109.662 50.7129 109.427 48.841 109.157C46.9691 108.888 45.2732 108.635 44.0496 108.443L42.6028 108.203C42.4237 108.182 42.2469 108.145 42.0747 108.092Z" fill="#E0E0E0"/>
<path d="M55.3281 109.903C55.424 109.735 55.5346 109.576 55.6587 109.427C55.8991 109.102 56.2168 108.683 56.599 108.173C57.3932 107.112 58.4837 105.644 59.6429 103.988C60.8021 102.331 61.8154 100.808 62.5366 99.7076L63.3953 98.3937C63.4925 98.2281 63.6031 98.0706 63.7259 97.9229C63.6508 98.1002 63.5603 98.2706 63.4554 98.4322C63.2708 98.7532 62.996 99.2154 62.6483 99.7761C61.9527 100.906 60.9567 102.447 59.7932 104.103C58.6297 105.76 57.5263 107.223 56.702 108.263C56.2727 108.781 55.9507 109.201 55.7102 109.483C55.5967 109.635 55.4688 109.775 55.3281 109.903Z" fill="#E0E0E0"/>
<path d="M155.62 100.431C144.621 94.9137 140.482 82.3219 139.194 70.6546C138.979 68.7072 138.469 66.6956 139.147 64.8638C139.825 63.0319 141.813 61.5553 143.672 62.1246C145.213 62.5911 146.085 64.1747 147.107 65.4416C148.453 67.1341 150.253 68.4118 152.297 69.1267C153.628 69.5889 155.217 69.7601 156.342 68.9127C157.883 67.7485 157.746 65.4116 157.454 63.4856C156.91 59.8933 156.366 56.3038 155.822 52.7171C155.53 50.7911 155.243 48.8266 155.577 46.9092C155.912 44.9917 156.994 43.1043 158.759 42.3253C160.523 41.5463 162.953 42.2739 163.615 44.1058C163.889 44.8676 163.846 45.7065 164.018 46.4983C164.19 47.2901 164.688 48.1204 165.482 48.236C166.276 48.3515 166.985 47.6924 167.479 47.0419C169.196 44.812 170.183 42.107 171.089 39.432C171.995 36.757 172.85 34.0264 174.352 31.6424C175.855 29.2585 178.118 27.2169 180.861 26.6605C183.604 26.1041 186.807 27.3838 187.898 29.9946C188.988 32.6054 187.803 35.5971 186.391 38.0453C184.305 41.6815 181.702 44.9973 178.663 47.8893C178.113 48.4072 177.521 48.9679 177.375 49.7169C177.143 51.0608 178.547 52.1607 179.882 52.4004C181.393 52.6701 182.935 52.2977 184.467 52.2549C186 52.2121 187.73 52.6444 188.507 53.9669C189.585 55.8244 188.233 58.1271 186.79 59.7149C183.927 62.8931 180.535 65.5557 176.765 67.5859C175.417 68.3092 173.987 68.9811 172.983 70.1539C171.978 71.3266 171.54 73.1499 172.429 74.4039C173.318 75.6579 175.159 75.842 176.611 75.3498C178.062 74.8576 179.277 73.8603 180.621 73.1242C183.132 71.7417 186.588 71.4122 188.623 73.4709C189.959 74.8148 190.362 76.8949 190.057 78.7738C189.752 80.6527 188.829 82.3561 187.816 83.9569C184.278 89.5508 179.41 94.3487 173.554 97.3661C167.698 100.383 162.073 101.783 155.625 100.435" fill="#F5F5F5"/>
<path d="M157.565 92.7181C158.584 86.1155 159.98 79.5764 161.747 73.1328L163.112 68.0524C163.563 66.3875 164.01 64.7354 164.546 63.1475C165.583 60.0986 166.788 57.1094 168.157 54.1938C169.445 51.4032 170.763 48.801 172.021 46.3742C173.279 43.9475 174.503 41.7133 175.696 39.7231C177.569 36.5731 179.689 33.5762 182.037 30.7608C182.866 29.7636 183.536 29.0103 183.995 28.5095L184.519 27.9403C184.576 27.872 184.639 27.8089 184.708 27.752C184.663 27.8275 184.61 27.8979 184.549 27.9617L184.047 28.5566C183.617 29.0745 182.956 29.8406 182.145 30.8507C179.845 33.6876 177.761 36.692 175.911 39.8387C174.73 41.8332 173.528 44.0716 172.283 46.4984C171.038 48.9251 169.728 51.5316 168.453 54.3179C167.094 57.232 165.895 60.2182 164.864 63.2631C164.332 64.8467 163.889 66.4817 163.439 68.1509C162.988 69.8201 162.541 71.5149 162.082 73.227C160.316 79.6577 158.913 86.1821 157.879 92.7694" fill="#E0E0E0"/>
<path d="M164.645 63.1217C164.513 62.8684 164.409 62.6015 164.336 62.3256C164.16 61.8078 163.907 61.0416 163.649 60.1129C163.099 58.2297 162.425 55.6103 161.695 52.717C160.966 49.8238 160.253 47.2172 159.678 45.3512C159.39 44.4181 159.15 43.6648 158.978 43.147C158.872 42.882 158.794 42.6065 158.746 42.3252C158.895 42.5673 159.017 42.8258 159.107 43.0956C159.321 43.6006 159.596 44.3454 159.918 45.2741C160.558 47.1231 161.309 49.7296 162.043 52.6272L163.894 60.0444C164.12 60.9346 164.313 61.6822 164.473 62.2871C164.562 62.5579 164.62 62.8379 164.645 63.1217Z" fill="#E0E0E0"/>
<path d="M188.829 54.9082C188.513 55.0255 188.187 55.1129 187.855 55.1693C187.228 55.3191 186.313 55.5288 185.197 55.8241C182.956 56.3976 179.886 57.2964 176.546 58.4349C173.206 59.5734 170.226 60.7504 168.097 61.6535C167.028 62.0815 166.173 62.4838 165.581 62.7449C165.282 62.9 164.968 63.0261 164.645 63.1215C164.915 62.9268 165.202 62.7577 165.504 62.6165C166.079 62.3169 166.92 61.8974 167.977 61.4181C170.089 60.4508 173.064 59.2438 176.413 58.0925C179.27 57.1048 182.176 56.2648 185.12 55.5759C186.249 55.3105 187.172 55.1479 187.812 55.0323C188.146 54.9582 188.487 54.9167 188.829 54.9082Z" fill="#E0E0E0"/>
<path d="M157.81 92.2171C157.726 92.1359 157.654 92.0437 157.595 91.9431C157.445 91.7163 157.265 91.4381 157.042 91.0871C156.561 90.3595 155.895 89.2895 155.092 87.9584C153.482 85.292 151.374 81.5384 149.103 77.3654C146.832 73.1924 144.758 69.4432 143.204 66.7682L141.358 63.5838L140.86 62.7278C140.795 62.6294 140.743 62.5229 140.705 62.4111C140.79 62.4932 140.862 62.5869 140.92 62.6893L141.474 63.5453C141.955 64.2729 142.62 65.3429 143.423 66.6783C145.033 69.3447 147.145 73.0983 149.434 77.2713C151.722 81.4443 153.774 85.2064 155.329 87.9028L157.175 91.0914C157.376 91.4381 157.54 91.7291 157.673 91.9474C157.729 92.0317 157.775 92.1222 157.81 92.2171Z" fill="#E0E0E0"/>
<path d="M189.302 76.8477C189.207 76.9203 189.103 76.9807 188.992 77.0274L188.082 77.4683L184.712 79.1203C181.866 80.5199 177.954 82.493 173.64 84.6843C169.325 86.8757 165.388 88.8103 162.511 90.1499C161.073 90.8176 159.905 91.3483 159.077 91.6993L158.136 92.093C158.03 92.1488 157.916 92.1878 157.797 92.2086C157.893 92.1372 157.997 92.0769 158.106 92.0288L159.016 91.5709L162.391 89.9188C165.237 88.5235 169.144 86.5504 173.463 84.3548C177.783 82.1591 181.711 80.2289 184.588 78.8892C186.026 78.2215 187.194 77.6908 188.022 77.3399L188.962 76.9461C189.07 76.8962 189.184 76.863 189.302 76.8477Z" fill="#E0E0E0"/>
<path d="M243.956 47.7862C243.956 40.8013 236.597 36.38 229.092 39.8768C227.396 40.6697 226.009 41.996 225.142 43.6517C223.258 47.2983 224.09 51.4585 225.804 54.9167L231.642 69.6699C231.826 70.1404 232.149 70.5447 232.567 70.8297C232.985 71.1147 233.48 71.2672 233.987 71.2672C234.493 71.2672 234.988 71.1147 235.406 70.8297C235.825 70.5447 236.147 70.1404 236.331 69.6699L242.058 54.8354C244.037 50.3029 243.956 47.7862 243.956 47.7862ZM236.906 53.8638C231.861 56.7871 226.748 51.3814 229.513 46.0485C229.874 45.3371 230.431 44.7431 231.119 44.3365C236.163 41.4133 241.272 46.8189 238.508 52.1518C238.148 52.863 237.593 53.457 236.906 53.8638Z" fill="#F5F5F5"/>
<path d="M304.827 190.066C304.827 190.131 240.427 190.178 161.026 190.178C81.6249 190.178 17.1991 190.131 17.1991 190.066C17.1991 190.002 81.5733 189.955 161.026 189.955C240.478 189.955 304.827 190.006 304.827 190.066Z" fill="#263238"/>
<path d="M270.552 135.749H49.7092V168.053H270.552V135.749Z" fill="rgba(var(--primary-color), 1)"/>
<g opacity="0.5">
<path d="M270.552 135.749H49.7092V168.053H270.552V135.749Z" fill="rgba(var(--title-color), 1)"/>
</g>
<path d="M80.8177 189.015C92.5523 188.228 101.425 178.107 100.635 166.409C99.8455 154.71 89.6926 145.865 77.958 146.653C66.2234 147.44 57.3509 157.561 58.1406 169.259C58.9303 180.958 69.0832 189.803 80.8177 189.015Z" fill="rgba(var(--title-color), 1)"/>
<path d="M58.096 167.474C58.096 167.493 58.096 167.513 58.096 167.529C58.0555 170.317 58.5662 173.086 59.5989 175.677C60.6317 178.268 62.1663 180.631 64.1151 182.631C66.0639 184.63 68.3888 186.228 70.957 187.332C73.5251 188.436 76.2863 189.026 79.0829 189.066C81.8794 189.106 84.6566 188.597 87.2557 187.568C89.8549 186.538 92.2252 185.008 94.2313 183.065C96.2374 181.123 97.84 178.805 98.9476 176.245C100.055 173.685 100.646 170.932 100.687 168.144C100.687 168.124 100.687 168.105 100.687 168.089L58.096 167.474Z" fill="rgba(var(--title-color), 1)"/>
<path d="M64.4369 167.621C64.3931 170.569 65.2273 173.463 66.8339 175.938C68.4405 178.414 70.7473 180.358 73.4626 181.526C76.1779 182.694 79.1797 183.033 82.0883 182.5C84.9969 181.967 87.6817 180.586 89.8029 178.532C91.9242 176.478 93.3867 173.843 94.0055 170.96C94.6242 168.077 94.3715 165.076 93.2791 162.336C92.1868 159.597 90.3039 157.242 87.8688 155.569C85.4336 153.896 82.5555 152.981 79.5984 152.939C75.6352 152.883 71.8118 154.398 68.9688 157.151C66.1257 159.904 64.4956 163.67 64.4369 167.621Z" fill="#FAFAFA"/>
<path d="M79.5985 152.935C75.635 152.878 71.811 154.393 68.9677 157.146C66.1244 159.899 64.4947 163.666 64.437 167.617L94.3341 168.05C94.3905 164.097 92.8697 160.285 90.1062 157.45C87.3428 154.616 83.5631 152.992 79.5985 152.935Z" fill="#E0E0E0"/>
<path d="M70.2802 167.704C70.2536 169.5 70.7618 171.263 71.7406 172.77C72.7193 174.278 74.1247 175.463 75.7788 176.174C77.4329 176.886 79.2616 177.092 81.0334 176.767C82.8052 176.442 84.4405 175.601 85.7326 174.35C87.0247 173.098 87.9155 171.493 88.2923 169.737C88.669 167.98 88.5149 166.152 87.8493 164.483C87.1837 162.815 86.0366 161.38 84.553 160.361C83.0694 159.342 81.3161 158.785 79.5148 158.76C78.3193 158.742 77.1321 158.96 76.021 159.4C74.9099 159.84 73.8966 160.494 73.0391 161.325C72.1815 162.155 71.4965 163.146 71.0231 164.241C70.5498 165.335 70.2973 166.512 70.2802 167.704Z" fill="rgba(var(--title-color), 1)"/>
<path d="M243.468 189.007C255.209 188.328 264.175 178.289 263.494 166.584C262.813 154.879 252.743 145.941 241.001 146.62C229.26 147.299 220.294 157.338 220.975 169.043C221.656 180.748 231.726 189.686 243.468 189.007Z" fill="rgba(var(--title-color), 1)"/>
<path d="M220.936 167.474C220.936 167.493 220.936 167.513 220.936 167.529C220.895 170.317 221.406 173.086 222.439 175.677C223.472 178.268 225.006 180.631 226.955 182.631C228.904 184.63 231.229 186.228 233.797 187.332C236.365 188.436 239.126 189.026 241.923 189.066C244.719 189.106 247.496 188.597 250.096 187.568C252.695 186.538 255.065 185.008 257.071 183.065C259.077 181.123 260.68 178.805 261.787 176.245C262.895 173.685 263.486 170.932 263.527 168.144C263.527 168.124 263.527 168.105 263.527 168.089L220.936 167.474Z" fill="rgba(var(--title-color), 1)"/>
<path d="M227.277 167.621C227.233 170.569 228.067 173.463 229.674 175.938C231.28 178.414 233.587 180.358 236.302 181.526C239.018 182.694 242.02 183.033 244.928 182.5C247.837 181.967 250.522 180.586 252.643 178.532C254.764 176.478 256.227 173.843 256.845 170.96C257.464 168.077 257.211 165.076 256.119 162.336C255.027 159.597 253.144 157.242 250.709 155.569C248.273 153.896 245.395 152.981 242.438 152.939C238.475 152.883 234.652 154.398 231.809 157.151C228.966 159.904 227.335 163.67 227.277 167.621Z" fill="#FAFAFA"/>
<path d="M242.438 152.935C238.475 152.878 234.651 154.393 231.808 157.146C228.964 159.899 227.334 163.666 227.277 167.617L257.174 168.05C257.23 164.097 255.709 160.285 252.946 157.45C250.183 154.616 246.403 152.992 242.438 152.935Z" fill="#E0E0E0"/>
<path d="M233.108 167.704C233.081 169.5 233.59 171.263 234.568 172.77C235.547 174.278 236.953 175.463 238.607 176.174C240.261 176.886 242.089 177.092 243.861 176.767C245.633 176.442 247.268 175.601 248.561 174.35C249.853 173.098 250.743 171.493 251.12 169.737C251.497 167.98 251.343 166.152 250.677 164.483C250.012 162.815 248.864 161.38 247.381 160.361C245.897 159.342 244.144 158.785 242.343 158.76C241.147 158.742 239.96 158.96 238.849 159.4C237.738 159.84 236.724 160.494 235.867 161.325C235.009 162.155 234.324 163.146 233.851 164.241C233.378 165.335 233.125 166.512 233.108 167.704Z" fill="rgba(var(--title-color), 1)"/>
<path d="M107.298 117.575C107.298 117.575 75.9404 119.881 64.3095 122.48C56.1178 124.309 40.3234 127.472 40.5144 137.376L41.7683 144.479C41.7683 144.479 35.9131 147.145 35.9131 153.955C35.9131 160.764 34.4841 171.319 48.1609 171.744C50.4138 171.811 54.6928 171.744 54.6928 171.744C54.6928 171.744 52.0697 142.705 78.8262 141.856C106.048 140.991 104.241 171.478 104.241 171.478H217.855C217.855 171.478 213.19 141.777 242.494 141.717C271.798 141.658 267.34 171.672 267.34 171.672C267.34 171.672 278.119 172.601 283.134 163.569C288.15 154.538 286.848 148.094 286.848 148.094L286.681 142.384C286.649 141.447 286.262 140.557 285.596 139.894C284.931 139.231 284.039 138.844 283.099 138.813C283.099 138.813 285.057 124.44 282.052 121.952C279.046 119.464 262.579 104.453 262.579 104.453L263.375 103.965C263.671 103.779 263.907 103.513 264.057 103.199C264.207 102.885 264.264 102.534 264.222 102.189C264.181 101.843 264.042 101.517 263.821 101.247C263.601 100.977 263.308 100.774 262.977 100.663C256.724 98.5206 244.361 94.2787 241.455 93.2669C241.02 93.1127 240.566 93.0166 240.106 92.9812C238.37 92.8502 233.458 92.5407 224.443 92.4455C213.461 92.3264 169.859 92.4455 169.859 92.4455C169.859 92.4455 154.853 93.6756 146.494 97.3421C137.729 101.199 107.298 117.575 107.298 117.575Z" fill="rgba(var(--primary-color), 1)"/>
<g opacity="0.4">
<path d="M43.866 153.161C42.7276 152.931 40.9842 152.911 40.1164 153.677C39.4716 154.249 39.3005 155.173 39.2049 156.026C39.0221 157.195 39.0491 158.387 39.2845 159.546C39.4046 160.125 39.6434 160.673 39.9858 161.156C40.3283 161.639 40.7671 162.046 41.2748 162.352C42.3176 162.915 43.7426 162.824 44.5507 161.955C45.291 161.161 45.3746 159.971 45.3467 158.911C45.3189 157.38 45.4423 156.082 45.1597 154.578C45.0973 154.259 44.961 153.959 44.7616 153.701C44.6625 153.547 44.529 153.418 44.3716 153.324C44.2142 153.229 44.0371 153.172 43.8541 153.157" fill="rgba(var(--title-color), 1)"/>
</g>
<path d="M41.7762 144.479C45.1038 144.479 48.332 144.297 51.6556 144.082C52.0177 144.098 52.3744 143.99 52.6667 143.777C52.8004 143.611 52.8998 143.421 52.9593 143.216C53.0187 143.012 53.0369 142.798 53.013 142.586C53.013 140.809 52.9413 138.785 51.588 137.626C50.76 136.92 49.6256 136.698 48.5389 136.599C45.8404 136.308 43.1108 136.578 40.5223 137.392L41.7762 144.479Z" fill="#FAFAFA"/>
<path d="M110.909 170.568C110.909 170.568 110.909 170.473 110.885 170.283C110.861 170.092 110.853 169.811 110.829 169.449C110.789 168.711 110.729 167.636 110.654 166.247C110.578 164.858 110.483 163.156 110.284 161.188C110.078 158.959 109.685 156.752 109.109 154.589C108.383 151.976 107.305 149.474 105.905 147.149C104.32 144.465 102.213 142.123 99.7076 140.26C94.338 136.451 87.0817 134.308 79.491 134.205C71.9003 134.102 64.6399 136.495 59.4017 140.506C56.8908 142.358 54.6913 144.596 52.8857 147.137C51.3091 149.343 50.0273 151.744 49.0724 154.28C48.2848 156.375 47.7438 158.555 47.4603 160.775C47.2384 162.449 47.1731 164.14 47.2653 165.827C47.3306 166.892 47.4635 167.952 47.6633 169.001C47.727 169.354 47.7788 169.628 47.8106 169.819C47.8425 170.009 47.8544 170.1 47.8544 170.1C47.8544 170.1 47.8305 170.009 47.7907 169.826L47.6196 169.033C47.4029 167.986 47.2593 166.925 47.1897 165.858C47.0814 164.167 47.1347 162.469 47.3489 160.787C47.6232 158.556 48.1575 156.364 48.9411 154.256C49.8926 151.7 51.1745 149.279 52.7543 147.054C54.5641 144.492 56.7733 142.237 59.2982 140.371C64.5603 136.34 71.8366 133.923 79.487 134.022C87.1374 134.122 94.4057 136.284 99.8191 140.129C102.339 142.01 104.457 144.374 106.048 147.081C107.447 149.424 108.518 151.946 109.233 154.577C109.805 156.749 110.19 158.966 110.383 161.204C110.57 163.188 110.654 164.878 110.718 166.267C110.781 167.656 110.825 168.735 110.857 169.473C110.857 169.834 110.881 170.112 110.889 170.307C110.897 170.501 110.909 170.568 110.909 170.568Z" fill="white"/>
<path d="M112.103 171.062V170.824L112.079 170.121C112.059 169.494 112.031 168.578 111.991 167.379C111.924 164.971 111.824 161.451 111.697 156.971C111.569 152.491 111.422 147.051 111.251 140.821C111.207 139.262 111.167 137.647 111.12 136C111.092 135.158 111.129 134.316 111.231 133.48L111.41 132.202L111.673 130.921C112.085 129.17 112.679 127.466 113.444 125.838C114.232 124.13 115.207 122.515 116.35 121.02L136.025 108.664L141.339 105.331C143.13 104.144 145.011 103.097 146.963 102.2C148.961 101.262 151.01 100.439 153.101 99.7356C154.144 99.3705 155.215 99.0729 156.286 98.7554C157.356 98.438 158.447 98.1761 159.554 97.9618C163.726 97.072 167.968 96.5409 172.231 96.3746C176.323 96.1791 180.421 96.1924 184.511 96.4143H184.626L184.599 96.5293L179.312 120.104C178.336 121.702 177.535 123.401 176.924 125.171C176.323 126.849 176.053 128.628 176.128 130.409C176.263 132.151 176.311 133.857 176.355 135.512C176.399 137.166 176.419 138.77 176.451 140.329C176.542 146.559 176.566 151.991 176.582 156.467C176.598 160.943 176.582 164.463 176.582 166.868C176.582 168.058 176.582 168.983 176.582 169.609C176.582 169.915 176.582 170.149 176.582 170.312C176.582 170.475 176.582 170.55 176.582 170.55C176.582 170.55 176.582 170.467 176.582 170.312C176.582 170.157 176.582 169.915 176.582 169.609C176.582 168.983 176.582 168.066 176.582 166.868C176.582 164.463 176.546 160.943 176.518 156.471C176.49 151.999 176.451 146.551 176.343 140.329C176.311 138.774 176.277 137.169 176.24 135.516C176.192 133.861 176.144 132.163 176.005 130.421C175.924 128.618 176.194 126.816 176.801 125.115C177.408 123.331 178.209 121.619 179.189 120.008V120.036C180.809 112.779 182.58 104.858 184.455 96.4579L184.547 96.577C180.466 96.3578 176.377 96.3472 172.295 96.5452C168.042 96.7093 163.811 97.2404 159.649 98.1324C158.547 98.3507 157.472 98.6562 156.393 98.9261C155.314 99.1959 154.26 99.5411 153.209 99.9022C151.117 100.607 149.068 101.431 147.071 102.37C145.128 103.262 143.257 104.302 141.474 105.481L136.157 108.815L116.481 121.143V121.124C115.34 122.608 114.368 124.214 113.583 125.913C112.819 127.529 112.226 129.221 111.816 130.96C110.921 134.361 111.37 137.706 111.378 140.821L111.776 156.971C111.884 161.447 111.967 164.971 112.023 167.375C112.051 168.566 112.067 169.494 112.083 170.121C112.083 170.426 112.083 170.66 112.083 170.824C112.103 170.982 112.103 171.062 112.103 171.062Z" fill="rgba(var(--title-color), 1)"/>
<path d="M184.368 97.0681H184.555L185.1 97.0483L187.214 96.9967L195.051 96.8459L221.473 96.3936H221.525L221.557 96.4332L225.259 100.953C229.008 105.544 232.583 109.909 235.831 113.877L237.025 115.345C237.411 115.837 237.744 116.369 238.016 116.932C238.509 117.976 238.777 119.112 238.802 120.266C238.828 121.42 238.61 122.566 238.163 123.63L236.969 126.408L233.315 134.836L232.312 137.122L232.045 137.717C231.986 137.848 231.95 137.916 231.95 137.916C231.95 137.916 231.974 137.844 232.025 137.709C232.077 137.574 232.169 137.364 232.272 137.106C232.499 136.574 232.821 135.797 233.239 134.805L236.822 126.353C237.506 124.559 238.713 122.67 238.629 120.369C238.611 119.199 238.34 118.047 237.833 116.992C237.566 116.444 237.24 115.926 236.862 115.448L235.667 113.98L225.084 101.068L221.386 96.5483L221.465 96.588L195.039 96.9848L187.202 97.0761H185.088H184.547L184.368 97.0681Z" fill="rgba(var(--title-color), 1)"/>
<path d="M171.013 132.098C171.013 132.098 171.125 132.098 171.328 132.051C171.626 131.998 171.911 131.884 172.164 131.717C172.565 131.456 172.865 131.067 173.015 130.614C173.107 130.333 173.145 130.037 173.127 129.741C173.118 129.412 173.033 129.089 172.88 128.797C172.702 128.464 172.438 128.185 172.115 127.989C171.793 127.793 171.423 127.687 171.045 127.682H168.362H162.213C161.693 127.683 161.193 127.878 160.811 128.229C160.439 128.567 160.201 129.028 160.143 129.527C160.082 130.009 160.171 130.498 160.397 130.928C160.628 131.332 160.987 131.648 161.416 131.828C161.842 131.974 162.294 132.029 162.742 131.991H164.044H166.384L169.771 132.023L170.691 132.043C170.799 132.04 170.907 132.048 171.013 132.066C170.906 132.079 170.799 132.086 170.691 132.086H169.771L166.384 132.118H164.044H162.742C162.515 132.118 162.296 132.118 162.053 132.118C161.81 132.103 161.57 132.048 161.345 131.955C160.873 131.762 160.479 131.417 160.226 130.975C159.974 130.511 159.875 129.979 159.944 129.455C160.006 128.899 160.272 128.384 160.69 128.01C161.109 127.637 161.651 127.429 162.213 127.428H168.362H171.049C171.455 127.436 171.852 127.554 172.196 127.768C172.541 127.983 172.821 128.286 173.008 128.646C173.167 128.959 173.253 129.303 173.258 129.654C173.271 129.964 173.227 130.273 173.127 130.566C172.959 131.038 172.634 131.438 172.207 131.701C171.944 131.868 171.646 131.973 171.336 132.007C171.232 132.05 171.124 132.081 171.013 132.098Z" fill="rgba(var(--title-color), 1)"/>
<path d="M229.924 132.098C229.924 132.098 230.035 132.098 230.238 132.051C230.537 131.998 230.821 131.884 231.074 131.717C231.475 131.456 231.776 131.067 231.926 130.614C232.017 130.333 232.055 130.037 232.037 129.741C232.028 129.412 231.944 129.089 231.791 128.797C231.613 128.464 231.349 128.185 231.026 127.989C230.703 127.793 230.334 127.687 229.956 127.682H227.273H221.123C220.604 127.683 220.103 127.878 219.722 128.229C219.349 128.567 219.112 129.028 219.053 129.527C218.993 130.009 219.082 130.498 219.308 130.928C219.539 131.332 219.897 131.648 220.327 131.828C220.753 131.974 221.204 132.029 221.652 131.991H222.954H225.294L228.682 132.023L229.601 132.043C229.709 132.04 229.817 132.048 229.924 132.066C229.817 132.079 229.709 132.086 229.601 132.086H228.682L225.294 132.118H222.954H221.652C221.425 132.118 221.207 132.118 220.964 132.118C220.72 132.103 220.481 132.048 220.255 131.955C219.783 131.762 219.39 131.417 219.137 130.975C218.884 130.511 218.785 129.979 218.854 129.455C218.917 128.899 219.182 128.384 219.601 128.01C220.019 127.637 220.561 127.429 221.123 127.428H227.273H229.96C230.366 127.436 230.762 127.554 231.107 127.768C231.451 127.983 231.732 128.286 231.918 128.646C232.077 128.959 232.163 129.303 232.169 129.654C232.182 129.964 232.137 130.273 232.037 130.566C231.869 131.038 231.545 131.438 231.118 131.701C230.855 131.868 230.556 131.973 230.246 132.007C230.143 132.05 230.034 132.081 229.924 132.098Z" fill="rgba(var(--title-color), 1)"/>
<path d="M281.546 122.52H269.764C268.972 122.519 268.195 122.735 267.517 123.142C266.838 123.55 266.285 124.135 265.915 124.833C265.611 125.411 265.442 126.049 265.42 126.701C265.398 127.353 265.524 128.002 265.788 128.599L270.405 139.062L282.203 138.947C282.203 138.947 284.715 125.682 281.546 122.52Z" fill="#FAFAFA"/>
<path d="M117.914 121.039L178.707 119.92L218.273 119.198L231.321 111.686C231.569 111.542 231.784 111.347 231.95 111.114C232.117 110.881 232.232 110.616 232.288 110.335C232.345 110.055 232.34 109.765 232.276 109.487C232.211 109.208 232.088 108.946 231.914 108.718L223.79 98.0796C223.373 97.5318 222.835 97.0868 222.218 96.7786C221.601 96.4704 220.921 96.3073 220.231 96.3019L175.977 95.9447C175.977 95.9447 159.315 94.9765 146.183 102.294C132.375 110.02 117.914 121.039 117.914 121.039Z" fill="rgba(var(--title-color), 1)"/>
<path d="M145.773 97.0449C145.773 97.0449 148.822 98.4298 146.84 99.7115C144.858 100.993 114.057 120.345 114.057 120.345L106.976 117.151C119.518 110.195 132.184 103.43 145.773 97.0449Z" fill="rgba(var(--title-color), 1)"/>
<path d="M115.052 120.837L114.861 120.885L114.3 121.008L112.138 121.452C110.26 121.825 107.537 122.349 104.178 122.928C97.4108 124.087 88.0488 125.436 77.632 126.333C75.0248 126.559 72.4575 126.73 70.0214 126.904C67.5854 127.079 65.1892 127.218 62.9362 127.42C58.4264 127.817 54.3902 128.468 51.1103 129.44C48.5034 130.162 45.9944 131.199 43.6391 132.527C42.7912 132.971 42.1862 133.408 41.7603 133.67L41.2747 133.975L41.1035 134.074C41.1546 134.033 41.2077 133.995 41.2627 133.959L41.7364 133.634C42.1583 133.36 42.7554 132.912 43.5993 132.444C45.9404 131.079 48.4436 130.013 51.0506 129.269C54.3385 128.273 58.3866 127.602 62.9004 127.202C65.1573 126.987 67.5297 126.837 69.9896 126.674C72.4495 126.511 74.993 126.321 77.5962 126.095C88.009 125.198 97.383 123.872 104.138 122.75C107.517 122.19 110.24 121.69 112.123 121.341L114.292 120.944L114.857 120.841L115.052 120.837Z" fill="rgba(var(--title-color), 1)"/>
<path d="M286.255 147.974C286.255 148.034 282.203 148.077 277.208 148.077C272.212 148.077 268.156 148.034 268.156 147.974C268.156 147.915 272.208 147.871 277.208 147.871C282.207 147.871 286.255 147.919 286.255 147.974Z" fill="rgba(var(--title-color), 1)"/>
<path d="M212.127 158.284C212.127 158.343 189.256 158.387 161.046 158.387C132.837 158.387 109.961 158.343 109.961 158.284C109.961 158.224 132.829 158.181 161.046 158.181C189.264 158.181 212.127 158.228 212.127 158.284Z" fill="rgba(var(--title-color), 1)"/>
<path d="M51.9981 148.316C51.9981 148.376 48.762 148.419 44.7736 148.419C40.7852 148.419 37.5491 148.376 37.5491 148.316C37.5491 148.257 40.7852 148.213 44.7736 148.213C48.762 148.213 51.9981 148.261 51.9981 148.316Z" fill="rgba(var(--title-color), 1)"/>
<path d="M262.273 104.04C262.273 104.04 259.558 107.068 260.625 109.29C261.692 111.512 272.721 119.297 272.721 119.297L280.726 120.793L262.273 104.04Z" fill="rgba(var(--title-color), 1)"/>
<path d="M186.167 98.6162L184.368 117.996L216.577 117.08L229.558 109.556L221.155 98.6162H186.167Z" fill="rgba(var(--title-color), 1)"/>
<path d="M125.541 118.989C125.541 118.989 144.973 104.997 152.639 102.215C160.039 99.5331 163.896 98.8585 170.846 98.6442C177.489 98.4538 181.538 98.6442 181.538 98.6442L176.403 118.346L125.541 118.989Z" fill="rgba(var(--title-color), 1)"/>
<path d="M122.699 119.036C122.699 118.433 122.86 117.842 123.165 117.322C123.47 116.801 123.908 116.371 124.434 116.075L128.9 113.576C130.172 112.862 131.608 112.487 133.068 112.488C133.967 112.489 134.86 112.631 135.715 112.909C136.645 113.23 137.455 113.826 138.037 114.618C138.619 115.41 138.945 116.36 138.971 117.341C138.996 118 138.887 118.658 138.652 119.274C138.416 119.89 138.058 120.453 137.599 120.928C137.14 121.403 136.589 121.78 135.98 122.038C135.371 122.296 134.716 122.429 134.055 122.428H126.094C125.193 122.426 124.329 122.068 123.693 121.432C123.056 120.796 122.699 119.934 122.699 119.036Z" fill="rgba(var(--primary-color), 1)"/>
<path d="M122.699 119.035C122.699 119.035 122.699 119.186 122.75 119.464C122.811 119.873 122.945 120.267 123.149 120.627C123.47 121.194 123.944 121.66 124.518 121.972C124.875 122.158 125.264 122.279 125.664 122.329C126.121 122.363 126.579 122.372 127.037 122.357L133.848 122.333C134.493 122.35 135.136 122.245 135.743 122.023C136.382 121.785 136.964 121.414 137.45 120.935C137.936 120.457 138.314 119.881 138.561 119.246C138.811 118.576 138.913 117.86 138.859 117.147C138.806 116.444 138.598 115.762 138.251 115.148C137.903 114.534 137.425 114.004 136.849 113.595C136.293 113.212 135.667 112.942 135.006 112.802C133.191 112.374 131.285 112.556 129.585 113.321C129.071 113.552 128.602 113.841 128.136 114.091L126.807 114.829L124.518 116.091C123.942 116.4 123.467 116.867 123.149 117.436C122.948 117.797 122.813 118.191 122.75 118.599C122.711 118.877 122.715 119.028 122.703 119.028C122.688 118.882 122.688 118.736 122.703 118.591C122.747 118.175 122.872 117.77 123.069 117.401C123.382 116.808 123.862 116.32 124.45 115.996L126.723 114.706L128.044 113.956C128.506 113.702 128.976 113.409 129.501 113.163C131.233 112.368 133.182 112.172 135.038 112.607C135.723 112.743 136.373 113.013 136.953 113.401C137.555 113.826 138.055 114.378 138.418 115.018C138.781 115.658 138.999 116.37 139.054 117.103C139.113 117.847 139.007 118.595 138.744 119.293C138.487 119.957 138.091 120.558 137.584 121.058C137.076 121.557 136.467 121.943 135.798 122.19C135.17 122.416 134.504 122.522 133.836 122.504L127.025 122.484C126.562 122.494 126.098 122.479 125.636 122.44C125.217 122.382 124.812 122.248 124.442 122.043C123.856 121.716 123.375 121.229 123.057 120.639C122.862 120.268 122.74 119.864 122.695 119.448C122.685 119.311 122.686 119.173 122.699 119.035Z" fill="rgba(var(--title-color), 1)"/>
<path d="M272.411 170.748C272.411 170.748 272.411 170.657 272.411 170.474C272.411 170.292 272.443 170.018 272.467 169.681C272.491 169.343 272.53 168.887 272.554 168.371C272.578 167.855 272.594 167.252 272.614 166.582C272.634 165.911 272.614 165.157 272.614 164.34C272.614 163.522 272.554 162.629 272.443 161.677C272.262 159.519 271.877 157.382 271.293 155.296C270.948 154.079 270.524 152.886 270.023 151.725C269.49 150.47 268.848 149.265 268.104 148.122C266.445 145.603 264.335 143.41 261.879 141.654C259.175 139.697 256.158 138.213 252.955 137.265C249.635 136.254 246.021 135.884 242.343 135.857C238.755 135.824 235.184 136.342 231.755 137.392C230.131 137.904 228.554 138.553 227.042 139.333C225.6 140.097 224.23 140.989 222.95 141.999C220.57 143.858 218.449 146.025 216.645 148.443C215.852 149.553 215.151 150.727 214.551 151.951C214.004 153.086 213.52 154.251 213.102 155.439C211.831 159.021 211.056 162.759 210.802 166.55C210.738 167.895 210.746 168.931 210.782 169.653C210.802 170.002 210.818 170.268 210.826 170.446C210.834 170.625 210.826 170.72 210.826 170.72C210.826 170.72 210.826 170.629 210.794 170.446C210.762 170.264 210.754 169.99 210.726 169.653C210.673 168.618 210.673 167.581 210.726 166.546C210.946 162.734 211.701 158.971 212.967 155.368C213.385 154.174 213.866 153.003 214.408 151.86C215.013 150.626 215.716 149.443 216.51 148.32C218.32 145.886 220.447 143.703 222.835 141.829C224.123 140.811 225.5 139.91 226.95 139.138C228.473 138.352 230.06 137.698 231.695 137.182C235.144 136.119 238.737 135.596 242.347 135.631C246.041 135.658 249.671 136.027 253.018 137.051C256.242 138.008 259.279 139.505 261.998 141.479C263.257 142.403 264.435 143.434 265.517 144.559C266.545 145.614 267.461 146.772 268.251 148.015C268.998 149.168 269.641 150.384 270.174 151.65C270.674 152.811 271.096 154.004 271.436 155.221C272.017 157.317 272.394 159.465 272.562 161.633C272.67 162.586 272.67 163.479 272.714 164.3C272.757 165.121 272.714 165.887 272.714 166.546C272.714 167.205 272.654 167.82 272.63 168.339C272.606 168.859 272.554 169.292 272.523 169.649C272.491 170.006 272.467 170.264 272.451 170.442C272.435 170.621 272.411 170.748 272.411 170.748Z" fill="white"/>
<path d="M175.459 121.039H175.189L174.15 121.063L170.333 121.13C167.108 121.19 162.658 121.309 157.738 121.444C152.819 121.579 148.364 121.67 145.14 121.694C143.528 121.694 142.223 121.694 141.319 121.694H140.28H140.013C139.982 121.7 139.95 121.7 139.918 121.694C139.95 121.689 139.982 121.689 140.013 121.694H140.28L141.319 121.67L145.136 121.603C148.36 121.543 152.815 121.424 157.734 121.293C162.654 121.162 167.108 121.063 170.333 121.039C171.925 121.039 173.25 121.039 174.15 121.039H175.189H175.459Z" fill="white"/>
<path d="M170.273 127.003C169.114 127.108 167.949 127.142 166.786 127.106C165.623 127.142 164.458 127.108 163.299 127.003C164.458 126.901 165.623 126.867 166.786 126.9C167.949 126.867 169.114 126.901 170.273 127.003Z" fill="white"/>
<path d="M171.555 105.77C171.575 105.821 167.248 107.619 161.886 109.781C156.524 111.944 152.162 113.658 152.138 113.603C152.114 113.547 156.445 111.754 161.807 109.591C167.168 107.428 171.531 105.718 171.555 105.77Z" fill="white"/>
<path d="M162.782 107.131C162.806 107.187 158.682 108.996 153.575 111.175C148.468 113.353 144.312 115.079 144.289 115.028C144.265 114.976 148.388 113.167 153.495 110.984C158.602 108.802 162.758 107.072 162.782 107.131Z" fill="white"/>
<path d="M218.412 105.021C218.436 105.072 214.105 106.87 208.744 109.033C203.382 111.195 199.02 112.905 198.996 112.854C198.972 112.802 203.303 111.005 208.668 108.842C214.034 106.68 218.38 104.965 218.412 105.021Z" fill="white"/>
<path d="M209.623 106.374C209.647 106.429 205.524 108.239 200.421 110.417C195.318 112.596 191.154 114.322 191.13 114.27C191.106 114.218 195.23 112.409 200.337 110.227C205.444 108.044 209.623 106.338 209.623 106.374Z" fill="white"/>
<path d="M219.26 121.02C219.26 121.076 210.65 121.175 200.031 121.238C189.411 121.302 180.801 121.306 180.801 121.238C180.801 121.171 189.407 121.084 200.031 121.024C210.654 120.965 219.26 120.977 219.26 121.02Z" fill="white"/>
<path d="M228.793 126.675C228.793 126.73 226.381 126.798 223.4 126.825C220.418 126.853 218.006 126.825 218.006 126.774C218.006 126.722 220.418 126.647 223.4 126.619C226.381 126.591 228.793 126.615 228.793 126.675Z" fill="white"/>
<path d="M63.9393 123.738C63.8634 123.764 63.7845 123.78 63.7045 123.786L63.0318 123.873C62.7373 123.905 62.379 123.949 61.965 124.02C61.5511 124.091 61.0774 124.143 60.5599 124.246C59.5211 124.429 58.2911 124.699 56.9457 125.04C55.4883 125.441 54.0522 125.915 52.6428 126.46C51.1462 127.052 49.757 127.698 48.5151 128.337C47.2732 128.976 46.1985 129.619 45.3308 130.194C44.881 130.468 44.4909 130.746 44.1366 130.988C43.7824 131.23 43.4918 131.428 43.253 131.603L42.6997 132C42.6363 132.049 42.5683 132.091 42.4967 132.127C42.5495 132.068 42.6081 132.015 42.6718 131.968L43.2052 131.543C43.4361 131.361 43.7227 131.147 44.069 130.897C44.4153 130.647 44.7934 130.369 45.2631 130.103C46.1388 129.512 47.2215 128.865 48.4475 128.202C51.1314 126.772 53.9743 125.66 56.9178 124.889C58.2712 124.54 59.5091 124.282 60.556 124.119C61.0774 124.024 61.5511 123.976 61.969 123.921C62.387 123.865 62.7651 123.83 63.0398 123.81L63.7204 123.758C63.7928 123.746 63.866 123.74 63.9393 123.738Z" fill="white"/>
<path d="M135.022 114.377C135.022 114.377 134.907 114.222 134.624 114.008C134.242 113.716 133.788 113.534 133.311 113.48C132.594 113.42 131.873 113.497 131.185 113.706C128.761 114.315 126.51 115.47 124.605 117.083C123.658 117.877 123.156 118.46 123.129 118.432C123.225 118.281 123.337 118.14 123.463 118.012C123.792 117.647 124.14 117.3 124.506 116.972C125.722 115.892 127.103 115.013 128.598 114.369C129.418 114.011 130.269 113.728 131.141 113.524C131.851 113.318 132.595 113.253 133.33 113.333C133.83 113.401 134.298 113.615 134.676 113.948C134.776 114.038 134.866 114.139 134.942 114.25C135.006 114.329 135.03 114.373 135.022 114.377Z" fill="white"/>
<path d="M263.176 103.898C262.622 104.031 262.051 104.09 261.481 104.072C260.811 104.052 260.145 103.97 259.491 103.826C258.627 103.624 257.78 103.358 256.955 103.032C256.035 102.687 255.056 102.239 253.997 101.798L252.346 101.136C251.776 100.91 251.175 100.715 250.57 100.493C247.913 99.596 245.204 98.8605 242.458 98.2906C237.465 97.2546 232.396 96.6282 227.301 96.4177C226.321 96.3661 225.438 96.3661 224.658 96.3463H222.667L221.41 96.374H220.968C221.005 96.3671 221.042 96.3671 221.079 96.374L221.406 96.3502L222.667 96.2828L224.658 96.2471C225.454 96.2471 226.321 96.2471 227.301 96.2947C232.41 96.461 237.495 97.0717 242.498 98.12C245.25 98.6836 247.964 99.4205 250.622 100.326C251.227 100.548 251.816 100.747 252.401 100.977L254.053 101.656C255.112 102.112 256.087 102.556 256.999 102.909C257.812 103.236 258.649 103.502 259.502 103.703C260.148 103.857 260.806 103.95 261.469 103.981C261.887 103.995 262.306 103.981 262.723 103.937L263.045 103.898H263.176Z" fill="rgba(var(--title-color), 1)"/>
<path d="M22.1536 162.366C22.8261 162.574 23.4495 162.915 23.9866 163.369C24.5237 163.823 24.9633 164.38 25.2791 165.007C25.905 166.267 26.2326 167.654 26.2366 169.06C26.3224 171.765 25.1976 174.676 23.8709 177.042C21.3336 175.416 20.3203 172.056 19.9082 170.344C19.2642 167.614 19.7579 162.289 22.1536 162.362" fill="rgba(var(--primary-color), 1)"/>
<path d="M27.1296 181.066C26.8651 180.326 26.8012 179.53 26.9445 178.758C27.0877 177.987 27.433 177.266 27.9453 176.67C28.4681 176.083 29.1031 175.607 29.8131 175.268C30.523 174.929 31.2936 174.735 32.0798 174.697C32.8011 174.646 33.6082 174.74 34.1019 175.27C34.3189 175.532 34.462 175.846 34.5163 176.181C34.5707 176.516 34.5343 176.859 34.4111 177.175C34.1544 177.805 33.7352 178.355 33.196 178.771C31.4229 180.278 29.4308 181.408 27.1296 181.066Z" fill="rgba(var(--primary-color), 1)"/>
<path d="M25.438 189.656C25.4185 189.471 25.4185 189.284 25.438 189.099C25.438 188.701 25.4723 188.192 25.4938 187.58C25.5106 185.894 25.8005 184.222 26.3524 182.628C26.9296 181.031 27.9224 179.616 29.229 178.528C29.6255 178.208 30.0577 177.935 30.517 177.715C30.6801 177.633 30.8175 177.595 30.9034 177.556C30.9892 177.518 31.0408 177.509 31.0451 177.518C29.9858 178.04 29.0411 178.767 28.2658 179.656C27.4905 180.545 26.9 181.578 26.5285 182.696C25.9912 184.274 25.6917 185.923 25.6397 187.589C25.5968 188.226 25.5582 188.744 25.5238 189.104C25.5105 189.29 25.4818 189.474 25.438 189.656Z" fill="rgba(var(--title-color), 1)"/>
<path d="M22.1365 166.454C22.1622 166.531 22.1823 166.61 22.1966 166.689C22.2338 166.866 22.281 167.093 22.3383 167.37C22.4585 167.961 22.6216 168.821 22.8105 169.882C23.1926 172.022 23.6692 174.954 24.1372 178.216C24.6051 181.477 24.9529 184.439 25.1761 186.587C25.2878 187.662 25.3693 188.53 25.4209 189.134C25.4409 189.419 25.4581 189.65 25.4724 189.827C25.4847 189.907 25.4847 189.987 25.4724 190.067C25.451 189.988 25.4366 189.908 25.4295 189.827C25.408 189.652 25.3779 189.425 25.3393 189.138C25.262 188.518 25.159 187.657 25.0302 186.604C24.7726 184.464 24.3991 181.503 23.9397 178.241C23.4803 174.98 23.0166 172.057 22.6731 169.917C22.5014 168.868 22.364 168.012 22.2438 167.391C22.2009 167.109 22.1665 166.882 22.1365 166.707C22.1252 166.623 22.1252 166.538 22.1365 166.454Z" fill="rgba(var(--title-color), 1)"/>
<path d="M23.4716 183.253C22.9666 181.68 22.0929 180.249 20.9231 179.079C19.7532 177.909 18.3206 177.033 16.744 176.525C15.9368 176.272 14.9236 176.183 14.3827 176.829C13.8417 177.475 14.1336 178.46 14.5501 179.191C15.4459 180.703 16.771 181.917 18.3581 182.679C19.9452 183.44 21.7231 183.716 23.4674 183.471" fill="rgba(var(--primary-color), 1)"/>
<path d="M17.461 178.998C17.6337 179.028 17.8033 179.074 17.9676 179.135C18.165 179.193 18.3585 179.263 18.5472 179.345C18.7705 179.443 19.0324 179.529 19.2985 179.674C19.5928 179.818 19.8794 179.976 20.1572 180.149C20.4842 180.346 20.8009 180.558 21.106 180.787C22.511 181.839 23.637 183.217 24.3861 184.802C24.5489 185.146 24.6922 185.499 24.8155 185.859C24.9283 186.169 25.0216 186.487 25.0945 186.809C25.1612 187.074 25.2128 187.343 25.2491 187.614C25.2864 187.816 25.3108 188.02 25.3221 188.226C25.3398 188.399 25.3427 188.574 25.3307 188.748C25.2834 188.748 25.2534 187.999 24.9486 186.839C24.8673 186.525 24.7699 186.215 24.6566 185.91C24.5334 185.557 24.3901 185.211 24.2273 184.874C23.8465 184.114 23.3845 183.396 22.8491 182.734C22.2986 182.075 21.6798 181.475 21.003 180.945C20.7065 180.717 20.3984 180.504 20.0799 180.308C19.8029 180.128 19.5162 179.964 19.2213 179.816C18.1694 179.246 17.4438 179.037 17.461 178.998Z" fill="rgba(var(--title-color), 1)"/>
</svg>
