<svg viewBox="0 0 322 322" id="noWallet" xmlns="http://www.w3.org/2000/svg">
<g clip-path="url(#clip0_8864_11555)">
<path d="M225.168 145.248C227.523 143.827 230.057 142.727 232.703 141.976L234.255 134.519L246.845 134.3L248.661 141.68C251.335 142.341 253.908 143.357 256.312 144.7L262.681 140.527L271.742 149.279L267.795 155.784C269.218 158.137 270.318 160.672 271.066 163.318L278.511 164.864L278.73 177.454L271.337 179.27C270.679 181.939 269.667 184.508 268.329 186.908L272.502 193.277L263.75 202.345L257.246 198.397C254.892 199.82 252.358 200.921 249.711 201.669L248.159 209.126L235.569 209.345L233.772 201.952C231.104 201.293 228.535 200.282 226.134 198.945L219.765 203.118L210.704 194.366L214.652 187.861C213.22 185.507 212.113 182.971 211.361 180.32L203.903 178.774L203.684 166.178L211.077 164.362C211.736 161.694 212.748 159.125 214.085 156.724L209.944 150.368L218.696 141.3L225.2 145.248H225.168ZM231.885 162.024C230.025 163.947 228.777 166.379 228.3 169.012C227.822 171.645 228.136 174.36 229.202 176.814C230.269 179.268 232.039 181.351 234.289 182.799C236.539 184.247 239.168 184.995 241.844 184.948C244.519 184.901 247.12 184.061 249.318 182.536C251.516 181.01 253.212 178.866 254.192 176.376C255.171 173.886 255.39 171.162 254.821 168.547C254.251 165.933 252.919 163.546 250.993 161.689C248.413 159.202 244.952 157.841 241.37 157.904C237.787 157.967 234.376 159.448 231.885 162.024Z" fill="#E0E0E0"/>
<path d="M242.144 96.1178C243.351 95.3872 244.651 94.8219 246.008 94.437L246.807 90.6052L253.279 90.4893L254.213 94.2889C255.582 94.6281 256.901 95.1479 258.134 95.8345L261.406 93.6899L266.062 98.1979L264.034 101.54C264.763 102.749 265.33 104.048 265.721 105.404L269.546 106.203L269.662 112.643L265.862 113.577C265.523 114.947 265.003 116.265 264.317 117.499L266.461 120.77L261.953 125.426L258.611 123.398C257.404 124.128 256.104 124.693 254.747 125.078L253.948 128.942L247.476 129.058L246.549 125.259C245.176 124.921 243.855 124.401 242.621 123.713L239.349 125.858L234.693 121.35L236.721 118.007C235.991 116.8 235.426 115.501 235.041 114.143L231.196 113.345L231.067 106.905L234.867 105.971C235.206 104.601 235.726 103.282 236.412 102.049L234.268 98.7775L238.776 94.1214L242.125 96.15L242.144 96.1178ZM245.589 104.735C244.636 105.723 243.998 106.971 243.754 108.322C243.511 109.673 243.674 111.066 244.222 112.325C244.77 113.583 245.678 114.651 246.833 115.394C247.988 116.136 249.337 116.519 250.71 116.495C252.082 116.47 253.417 116.04 254.545 115.257C255.672 114.474 256.543 113.375 257.046 112.098C257.549 110.82 257.662 109.423 257.371 108.081C257.08 106.74 256.398 105.514 255.41 104.561C254.753 103.924 253.976 103.422 253.124 103.086C252.273 102.75 251.363 102.585 250.448 102.601C249.532 102.618 248.629 102.814 247.79 103.18C246.95 103.546 246.192 104.075 245.557 104.735H245.589Z" fill="#F5F5F5"/>
<path d="M78.1752 93.5861C80.5331 92.1607 83.0716 91.0582 85.7228 90.3081L87.2749 82.8377L99.8973 82.6123L101.713 90.0247C104.388 90.6842 106.964 91.6978 109.371 93.0387L115.746 88.8527L124.827 97.6239L120.872 104.141C122.299 106.499 123.401 109.037 124.15 111.689L131.621 113.241L131.84 125.857L124.434 127.679C123.772 130.352 122.759 132.925 121.42 135.33L125.599 141.712L116.834 150.786L110.311 146.832C107.952 148.252 105.417 149.354 102.77 150.11L101.211 157.574L88.5951 157.799L86.779 150.387C84.1043 149.729 81.5293 148.718 79.1218 147.379L72.7462 151.559L63.6658 142.794L67.62 136.277C66.1934 133.92 65.0909 131.381 64.342 128.729L56.8716 127.177L56.672 114.561L64.078 112.745C64.7352 110.069 65.7489 107.494 67.0919 105.088L62.9124 98.7123L71.6772 89.6319L78.1945 93.5861H78.1752ZM84.905 110.394C83.0494 112.32 81.806 114.751 81.3321 117.383C80.8582 120.014 81.1749 122.727 82.2422 125.179C83.3096 127.63 85.0796 129.71 87.3288 131.156C89.5779 132.602 92.2052 133.349 94.8785 133.302C97.5519 133.255 100.151 132.417 102.349 130.893C104.546 129.37 106.242 127.229 107.223 124.742C108.204 122.254 108.425 119.532 107.86 116.919C107.294 114.305 105.966 111.919 104.045 110.06C102.767 108.823 101.258 107.851 99.6035 107.199C97.9495 106.547 96.1831 106.227 94.4054 106.258C92.6276 106.289 90.8735 106.671 89.2433 107.38C87.6131 108.09 86.1389 109.114 84.905 110.394Z" fill="#EBEBEB"/>
<path d="M142.704 46.0726C144.46 45.0143 146.348 44.1935 148.32 43.6318L149.472 38.0805L158.862 37.9131L160.214 43.4257C162.204 43.9144 164.119 44.6682 165.907 45.6668L170.66 42.5563L177.409 49.08L174.472 53.9294C175.532 55.6816 176.35 57.5683 176.907 59.5386L182.465 60.6978L182.632 70.0809L177.119 71.4333C176.631 73.4228 175.877 75.3375 174.878 77.1262L177.989 81.8725L171.465 88.6281L166.616 85.685C164.864 86.7461 162.977 87.567 161.006 88.1258L159.847 93.6771L150.464 93.8445L149.112 88.3319C147.122 87.8443 145.207 87.0905 143.419 86.0907L138.673 89.2012L131.917 82.684L134.86 77.8346C133.799 76.0803 132.978 74.1916 132.419 72.219L126.862 71.0598L126.701 61.6767L132.213 60.3243C132.702 58.3348 133.456 56.42 134.454 54.6313L131.344 49.885L137.855 43.1488L142.704 46.0854V46.0726ZM147.708 58.6048C146.324 60.0379 145.396 61.8492 145.041 63.8097C144.687 65.7702 144.922 67.7917 145.716 69.6187C146.511 71.4457 147.829 72.996 149.505 74.0736C151.181 75.1511 153.139 75.7075 155.131 75.6724C157.122 75.6372 159.059 75.0121 160.696 73.8762C162.333 72.7402 163.596 71.1443 164.325 69.2905C165.055 67.4366 165.218 65.408 164.795 63.4613C164.372 61.5145 163.38 59.737 161.947 58.3536C160.025 56.4993 157.445 55.4841 154.775 55.5312C152.105 55.5783 149.563 56.6838 147.708 58.6048Z" fill="#EBEBEB"/>
<path d="M261.284 210.337C262.632 209.523 264.083 208.893 265.598 208.463L266.487 204.2L273.693 204.071L274.73 208.302C276.259 208.679 277.73 209.259 279.103 210.028L282.748 207.639L287.939 212.643L285.678 216.385C286.493 217.73 287.123 219.179 287.552 220.693L291.816 221.582L291.944 228.794L287.713 229.831C287.335 231.358 286.757 232.829 285.994 234.204L288.377 237.849L283.36 243.02L279.631 240.76C278.285 241.574 276.836 242.205 275.323 242.634L274.434 246.904L267.228 247.033L266.197 242.789C264.67 242.411 263.2 241.832 261.825 241.069L258.18 243.458L253.028 238.448L255.288 234.726C254.473 233.378 253.843 231.926 253.414 230.411L249.144 229.522L249.022 222.316L253.253 221.279C253.63 219.752 254.208 218.281 254.972 216.906L252.583 213.261L257.593 208.077L261.316 210.331L261.284 210.337ZM265.148 219.939C264.088 221.04 263.379 222.429 263.109 223.932C262.838 225.435 263.02 226.985 263.629 228.385C264.239 229.785 265.25 230.973 266.534 231.799C267.819 232.625 269.319 233.052 270.846 233.026C272.373 233 273.858 232.522 275.114 231.653C276.37 230.784 277.34 229.562 277.901 228.141C278.463 226.721 278.591 225.166 278.27 223.673C277.948 222.18 277.192 220.816 276.096 219.753C275.365 219.041 274.501 218.482 273.553 218.106C272.605 217.73 271.593 217.546 270.573 217.563C269.554 217.58 268.548 217.799 267.613 218.207C266.679 218.615 265.834 219.204 265.128 219.939H265.148Z" fill="#F5F5F5"/>
<path d="M88.872 35.6587C90.2201 34.8442 91.6713 34.2139 93.1868 33.7847L94.0755 29.5149L101.282 29.3926L102.319 33.6237C103.846 34.0006 105.316 34.5788 106.691 35.3431L110.337 32.9539L115.534 37.9964L113.28 41.7187C114.093 43.0674 114.723 44.5185 115.154 46.0335L119.417 46.9223L119.546 54.1286L115.315 55.1655C114.938 56.696 114.358 58.169 113.589 59.5447L115.978 63.1833L110.974 68.3739L107.245 66.1135C105.899 66.9279 104.45 67.5582 102.937 67.9875L102.048 72.2572L94.8354 72.3796L93.7986 68.1485C92.2716 67.7705 90.8013 67.1923 89.4258 66.429L85.7808 68.8183L80.6288 63.8079L82.8892 60.0856C82.0747 58.7375 81.4444 57.2863 81.0152 55.7708L76.7455 54.8821L76.5845 47.6564L80.822 46.6196C81.2 45.0905 81.7781 43.6181 82.5415 42.2404L80.1522 38.6018L85.1626 33.4111L88.872 35.6587ZM92.736 45.2607C91.6774 46.3615 90.9687 47.7513 90.6994 49.2546C90.43 50.7578 90.6121 52.3072 91.2227 53.7071C91.8333 55.1069 92.8449 56.2945 94.1299 57.1198C95.4149 57.9451 96.9156 58.3712 98.4426 58.3443C99.9696 58.3173 101.454 57.8385 102.709 56.9684C103.964 56.0982 104.934 54.8757 105.494 53.4552C106.055 52.0347 106.182 50.4799 105.86 48.987C105.538 47.4942 104.781 46.1303 103.684 45.0675C102.953 44.3596 102.09 43.8029 101.144 43.4293C100.198 43.0558 99.187 42.8727 98.1699 42.8907C97.1527 42.9086 96.1491 43.1272 95.2166 43.5339C94.2842 43.9406 93.4412 44.5275 92.736 45.2607Z" fill="#F5F5F5"/>
<path d="M25.161 148.649C26.5075 147.836 27.9564 147.205 29.4694 146.775L30.3581 142.512L37.5709 142.383L38.64 146.614C40.1681 146.991 41.6388 147.572 43.0127 148.34L46.6578 145.951L51.8098 150.961L49.588 154.683C50.402 156.029 51.0302 157.478 51.4556 158.992L55.7253 159.88L55.8541 167.093L51.6166 168.13C51.2439 169.659 50.6655 171.13 49.8971 172.503L52.2863 176.148L47.276 181.332L43.5537 179.078C42.204 179.888 40.7531 180.516 39.2389 180.946L38.3566 185.215L31.1438 185.344L30.107 181.107C28.5791 180.731 27.1084 180.153 25.7342 179.387L22.0892 181.776L16.9372 176.766L19.1912 173.044C18.3766 171.696 17.7464 170.244 17.3171 168.729L13.0538 167.847L12.925 160.634L17.1626 159.597C17.5117 158.064 18.0685 156.587 18.8176 155.205L16.4284 151.56L21.4387 146.376L25.161 148.63V148.649ZM29.025 158.257C27.9665 159.358 27.2577 160.748 26.9884 162.251C26.7191 163.755 26.9012 165.304 27.5118 166.704C28.1223 168.104 29.134 169.291 30.419 170.116C31.7039 170.942 33.2047 171.368 34.7316 171.341C36.2586 171.314 37.7434 170.835 38.9984 169.965C40.2535 169.095 41.2226 167.872 41.7834 166.452C42.3442 165.031 42.4715 163.477 42.1493 161.984C41.8271 160.491 41.0698 159.127 39.973 158.064C39.2416 157.349 38.3755 156.787 37.4251 156.409C36.4746 156.032 35.4587 155.847 34.4362 155.865C33.4136 155.883 32.4048 156.103 31.4682 156.514C30.5316 156.925 29.6859 157.517 28.98 158.257H29.025Z" fill="#F5F5F5"/>
<path d="M305.582 315.644C305.582 315.734 241.742 315.811 163.006 315.811C84.271 315.811 20.4185 315.734 20.4185 315.644C20.4185 315.554 84.2453 315.477 163.006 315.477C241.768 315.477 305.582 315.528 305.582 315.644Z" fill="#263238"/>
<path d="M243.748 75.5411L249.544 74.8971C253.232 77.1877 257.643 78.0158 261.91 77.2187C266.178 76.4215 269.993 74.0568 272.605 70.5895C275.218 67.1221 276.438 62.8029 276.028 58.481C275.617 54.1592 273.604 50.1473 270.385 47.2342C267.167 44.321 262.974 42.7174 258.633 42.7385C254.292 42.7596 250.116 44.4039 246.925 47.3482C243.735 50.2925 241.761 54.3238 241.393 58.6494C241.024 62.9751 242.287 67.2822 244.933 70.724L243.748 75.5411Z" fill="rgba(var(--white), 1)"/>
<path d="M243.748 75.5416L243.838 75.2196L244.07 74.2858C244.276 73.455 244.578 72.2572 244.965 70.7116L244.862 70.7502C244.874 70.7607 244.89 70.7664 244.907 70.7664C244.923 70.7664 244.939 70.7607 244.952 70.7502C244.961 70.7396 244.967 70.7258 244.967 70.7116C244.967 70.6973 244.961 70.6835 244.952 70.6729C243.233 68.4065 242.096 65.7529 241.642 62.9449C241.498 62.0612 241.425 61.1676 241.423 60.2723C241.427 59.3123 241.507 58.3541 241.661 57.4065C242.227 53.9543 243.827 50.7549 246.25 48.2311C248.673 45.7073 251.804 43.9777 255.23 43.2707C257.867 42.7621 260.585 42.8635 263.177 43.567C265.9 44.3015 268.396 45.7076 270.435 47.6564C273.514 50.5906 275.399 54.5602 275.726 58.8008C276.054 63.0415 274.801 67.2535 272.209 70.6257C269.617 73.998 265.869 76.2922 261.687 77.0666C257.505 77.841 253.184 77.0409 249.556 74.8203C249.549 74.8169 249.542 74.8151 249.534 74.8151C249.526 74.8151 249.518 74.8169 249.511 74.8203L245.242 75.3484L244.134 75.4965L243.748 75.548H244.108L245.203 75.4321L249.531 74.9813H249.486C251.933 76.5018 254.723 77.3852 257.6 77.5508C261.176 77.7584 264.73 76.8617 267.779 74.9822C270.829 73.1028 273.227 70.3314 274.649 67.0434C276.071 63.7555 276.448 60.11 275.728 56.6007C275.009 53.0915 273.229 49.8881 270.628 47.4245L269.836 46.6904C269.553 46.465 269.263 46.2524 268.973 46.0464C268.397 45.6165 267.795 45.2229 267.17 44.8678C266.867 44.6811 266.526 44.5458 266.217 44.3848C265.903 44.2185 265.581 44.0701 265.251 43.9405C264.599 43.6856 263.932 43.4706 263.254 43.2965C260.614 42.582 257.844 42.4829 255.159 43.0067C252.748 43.5111 250.47 44.5171 248.473 45.9595C246.475 47.4018 244.804 49.2482 243.567 51.3787C242.496 53.2336 241.778 55.2707 241.449 57.3872C241.296 58.3477 241.22 59.319 241.223 60.2916C241.247 64.0921 242.532 67.7771 244.875 70.7695L244.958 70.6794C244.953 70.6726 244.946 70.6672 244.938 70.6635C244.93 70.6598 244.922 70.6578 244.913 70.6578C244.905 70.6578 244.896 70.6598 244.888 70.6635C244.88 70.6672 244.874 70.6726 244.868 70.6794C244.507 72.2572 244.224 73.4743 244.037 74.3115C243.954 74.7108 243.883 75.0199 243.831 75.2389C243.78 75.4578 243.748 75.5416 243.748 75.5416Z" fill="#263238"/>
<path d="M256.01 50.5599L256.641 61.3889C256.674 61.8114 256.847 62.2067 257.128 62.5021C257.409 62.7975 257.779 62.9732 258.17 62.9968C258.587 63.0241 258.997 62.8763 259.315 62.5842C259.633 62.2921 259.835 61.8783 259.878 61.4291L260.992 50.5277C261.012 50.3334 260.994 50.1367 260.938 49.9507C260.882 49.7647 260.791 49.5938 260.669 49.4492C260.548 49.3046 260.399 49.1898 260.233 49.1124C260.067 49.035 259.888 48.9967 259.707 49.0002H257.264C257.084 49.0033 256.907 49.0473 256.743 49.1295C256.58 49.2117 256.434 49.3302 256.316 49.4773C256.198 49.6244 256.109 49.7968 256.056 49.9833C256.004 50.1698 255.988 50.3662 256.01 50.5599Z" fill="rgba(var(--primary-color), 1)"/>
<path d="M260.872 69.9476C260.716 70.5107 260.424 71.0055 260.033 71.3695C259.643 71.7335 259.171 71.9502 258.678 71.9924C258.184 72.0346 257.692 71.9003 257.262 71.6064C256.832 71.3126 256.485 70.8724 256.264 70.3416C256.043 69.8109 255.958 69.2133 256.02 68.6245C256.082 68.0357 256.288 67.4822 256.612 67.034C256.936 66.5857 257.363 66.2629 257.84 66.1063C258.317 65.9497 258.822 65.9664 259.291 66.1543C259.92 66.4061 260.44 66.9471 260.736 67.6584C261.032 68.3697 261.081 69.1931 260.872 69.9476Z" fill="rgba(var(--primary-color), 1)"/>
<path d="M217.28 154.185H43.8344C37.3017 154.185 32.0059 159.48 32.0059 166.013V285.404C32.0059 291.936 37.3017 297.232 43.8344 297.232H217.28C223.813 297.232 229.109 291.936 229.109 285.404V166.013C229.109 159.48 223.813 154.185 217.28 154.185Z" fill="#CCCCCC"/>
<path d="M229.109 166.013C229.109 166.013 229.109 165.871 229.109 165.586C229.096 165.161 229.056 164.737 228.987 164.318C228.749 162.666 228.156 161.086 227.251 159.685C226.587 158.655 225.773 157.729 224.836 156.938C223.691 156 222.383 155.283 220.977 154.822C220.597 154.693 220.197 154.619 219.797 154.503C219.396 154.388 218.969 154.375 218.542 154.307L217.233 154.246H209.921L139.201 154.3H90.3682H63.1573H45.3128C44.1086 154.252 42.9025 154.32 41.7114 154.503C39.3128 154.944 37.1147 156.131 35.4308 157.895C34.5805 158.773 33.8774 159.783 33.3487 160.886C32.8035 161.988 32.4459 163.173 32.2906 164.392C32.1735 165.632 32.135 166.878 32.1753 168.122V187.242C32.1753 197.578 32.1753 208.12 32.1753 218.868V285.336C32.1795 288.173 33.2106 290.912 35.0782 293.047C36.9202 295.171 39.4745 296.548 42.2607 296.92C43.6499 297.04 45.045 297.079 46.4387 297.035H153.709H209.765H216.29C217.355 297.068 218.42 296.998 219.471 296.825C220.504 296.626 221.506 296.289 222.449 295.821C222.916 295.592 223.369 295.333 223.805 295.048C224.229 294.75 224.637 294.428 225.026 294.085C226.181 293.069 227.121 291.834 227.793 290.45C228.465 289.067 228.855 287.563 228.939 286.028C229.007 277.889 228.939 270.062 228.98 262.601C228.98 232.759 229.027 208.586 229.041 191.888C229.041 183.539 229.041 177.062 229.075 172.66C229.075 170.469 229.075 168.794 229.075 167.661C229.075 166.529 229.075 165.959 229.075 165.959C229.075 165.959 229.075 166.535 229.075 167.661C229.075 168.787 229.075 170.469 229.075 172.66C229.075 177.062 229.075 183.512 229.109 191.888C229.109 208.586 229.109 232.745 229.163 262.601C229.163 270.062 229.211 277.882 229.163 286.041C229.049 288.132 228.384 290.156 227.237 291.908C226.665 292.788 225.981 293.591 225.202 294.295C224.804 294.647 224.385 294.976 223.947 295.279C223.511 295.57 223.058 295.835 222.591 296.072C221.628 296.555 220.603 296.901 219.546 297.103C218.477 297.284 217.393 297.356 216.311 297.32H209.786H153.729H91.779H46.4115C45.0019 297.364 43.5909 297.323 42.1861 297.198C39.3155 296.821 36.6827 295.405 34.7865 293.217C32.8719 291.024 31.8124 288.213 31.8023 285.302C31.8023 262.52 31.8023 240.287 31.8023 218.834V187.242C31.8023 182.078 31.8023 176.969 31.8023 171.914V168.136C31.7617 166.875 31.8025 165.614 31.9244 164.358C32.0847 163.105 32.4538 161.888 33.0163 160.757C33.5584 159.621 34.2823 158.58 35.1596 157.678C36.0281 156.784 37.0247 156.026 38.1167 155.426C39.2143 154.843 40.3945 154.431 41.6164 154.205L42.532 154.063L43.4476 154.015C44.0648 153.981 44.6685 154.015 45.2721 154.015H90.3275H139.161L209.881 154.076H217.158L218.481 154.144C218.908 154.219 219.335 154.266 219.742 154.354C220.149 154.442 220.549 154.544 220.929 154.68C222.347 155.146 223.665 155.873 224.816 156.823C225.757 157.621 226.574 158.556 227.237 159.597C228.139 161.01 228.722 162.602 228.946 164.263C229.015 164.685 229.052 165.111 229.055 165.538C229.109 165.871 229.109 166.013 229.109 166.013Z" fill="#1F1F1F"/>
<path d="M222.204 163.002C223.551 162.767 224.928 162.767 226.274 163.002C224.928 163.238 223.551 163.238 222.204 163.002Z" fill="#1F1F1F"/>
<path d="M205.601 163.003C208.363 162.767 211.141 162.767 213.903 163.003C211.141 163.238 208.363 163.238 205.601 163.003Z" fill="#1F1F1F"/>
<path d="M189.005 163.002C191.765 162.766 194.54 162.766 197.3 163.002C194.54 163.237 191.765 163.237 189.005 163.002Z" fill="#1F1F1F"/>
<path d="M172.401 163.003C175.164 162.767 177.941 162.767 180.703 163.003C177.941 163.238 175.164 163.238 172.401 163.003Z" fill="#1F1F1F"/>
<path d="M155.805 163.002C158.565 162.766 161.34 162.766 164.1 163.002C161.34 163.237 158.565 163.237 155.805 163.002Z" fill="#1F1F1F"/>
<path d="M139.202 163.003C141.964 162.767 144.741 162.767 147.503 163.003C144.741 163.238 141.964 163.238 139.202 163.003Z" fill="#1F1F1F"/>
<path d="M122.605 163.002C125.365 162.766 128.14 162.766 130.9 163.002C128.14 163.237 125.365 163.237 122.605 163.002Z" fill="#1F1F1F"/>
<path d="M106.002 163.003C108.764 162.767 111.541 162.767 114.303 163.003C111.541 163.238 108.764 163.238 106.002 163.003Z" fill="#1F1F1F"/>
<path d="M89.3984 163.003C92.1607 162.767 94.9379 162.767 97.7001 163.003C94.9379 163.238 92.1607 163.238 89.3984 163.003Z" fill="#1F1F1F"/>
<path d="M72.8019 163.002C74.1714 162.829 75.553 162.77 76.9324 162.826C78.3185 162.769 79.7069 162.828 81.0832 163.002C79.7072 163.18 78.3185 163.239 76.9324 163.178C75.553 163.238 74.1711 163.179 72.8019 163.002Z" fill="#1F1F1F"/>
<path d="M56.1986 163.002C57.5749 162.828 58.9633 162.769 60.3494 162.826C61.7355 162.769 63.124 162.828 64.5003 163.002C63.1243 163.18 61.7355 163.239 60.3494 163.178C58.9633 163.239 57.5745 163.18 56.1986 163.002Z" fill="#1F1F1F"/>
<path d="M43.8343 167.072C43.6556 165.723 43.5966 164.362 43.658 163.003L43.8343 162.826H45.4146L46.7101 162.867C47.1117 162.852 47.5134 162.893 47.9038 162.989C47.5142 163.089 47.1121 163.133 46.7101 163.118L45.4146 163.152H44.655H43.8343L44.0107 162.975C44.0694 164.343 44.0104 165.714 43.8343 167.072Z" fill="#1F1F1F"/>
<path d="M43.8343 182.284C43.6559 181.024 43.5969 179.75 43.658 178.479C43.5971 177.21 43.6561 175.938 43.8343 174.681C44.0084 175.939 44.0675 177.21 44.0106 178.479C44.0676 179.75 44.0086 181.023 43.8343 182.284Z" fill="#1F1F1F"/>
<path d="M43.8343 197.497C43.5992 194.968 43.5992 192.422 43.8343 189.894C44.0694 192.422 44.0694 194.968 43.8343 197.497Z" fill="#1F1F1F"/>
<path d="M43.8343 212.709C43.5992 210.178 43.5992 207.631 43.8343 205.1C44.0694 207.631 44.0694 210.178 43.8343 212.709Z" fill="#1F1F1F"/>
<path d="M43.8343 227.936C43.5992 225.405 43.5992 222.857 43.8343 220.326C44.0694 222.857 44.0694 225.405 43.8343 227.936Z" fill="#1F1F1F"/>
<path d="M43.8343 243.128C43.5992 240.6 43.5992 238.054 43.8343 235.525C44.0694 238.054 44.0694 240.6 43.8343 243.128Z" fill="#1F1F1F"/>
<path d="M43.8343 258.341C43.5992 255.812 43.5992 253.267 43.8343 250.738C44.0694 253.267 44.0694 255.812 43.8343 258.341Z" fill="#1F1F1F"/>
<path d="M43.8343 273.555C43.5992 271.026 43.5992 268.481 43.8343 265.952C44.0694 268.481 44.0694 271.026 43.8343 273.555Z" fill="#1F1F1F"/>
<path d="M47.9038 285.234C46.5548 285.408 45.1934 285.467 43.8344 285.41C43.4817 285.057 43.7326 285.308 43.658 285.227V284.42C43.658 284.155 43.658 283.904 43.658 283.653C43.658 283.206 43.658 282.778 43.658 282.358C43.6385 281.958 43.682 281.557 43.7869 281.171C43.8829 281.559 43.924 281.958 43.909 282.358C43.909 282.778 43.909 283.206 43.9497 283.653C43.9497 283.904 43.9497 284.155 43.9497 284.42C43.9497 284.549 43.9497 284.684 43.9497 284.82V285.227C43.8683 285.152 44.126 285.41 43.7733 285.057C45.1527 284.993 46.535 285.052 47.9038 285.234Z" fill="#1F1F1F"/>
<path d="M64.2629 285.234C62.9138 285.407 61.5525 285.466 60.1935 285.41C58.8344 285.466 57.4731 285.407 56.124 285.234C57.4728 285.057 58.8344 284.998 60.1935 285.058C61.5525 284.998 62.9141 285.057 64.2629 285.234Z" fill="#1F1F1F"/>
<path d="M80.622 285.234C79.2729 285.407 77.9116 285.466 76.5526 285.41C75.1936 285.466 73.8323 285.407 72.4832 285.234C73.8319 285.057 75.1936 284.998 76.5526 285.058C77.9116 284.998 79.2733 285.057 80.622 285.234Z" fill="#1F1F1F"/>
<path d="M96.9812 285.234C94.2597 285.469 91.5231 285.469 88.8016 285.234C91.5231 284.999 94.2597 284.999 96.9812 285.234Z" fill="#1F1F1F"/>
<path d="M113.34 285.234C110.619 285.469 107.882 285.469 105.161 285.234C107.882 284.999 110.619 284.999 113.34 285.234Z" fill="#1F1F1F"/>
<path d="M129.699 285.234C126.978 285.469 124.241 285.469 121.52 285.234C124.241 284.999 126.978 284.999 129.699 285.234Z" fill="#1F1F1F"/>
<path d="M146.058 285.234C143.337 285.469 140.6 285.469 137.879 285.234C140.6 284.999 143.337 284.999 146.058 285.234Z" fill="#1F1F1F"/>
<path d="M162.391 285.234C159.669 285.469 156.932 285.469 154.211 285.234C156.932 284.999 159.669 284.999 162.391 285.234Z" fill="#1F1F1F"/>
<path d="M178.777 285.234C176.055 285.469 173.319 285.469 170.597 285.234C173.319 284.999 176.055 284.999 178.777 285.234Z" fill="#1F1F1F"/>
<path d="M195.136 285.234C192.414 285.469 189.678 285.469 186.956 285.234C189.678 284.999 192.414 284.999 195.136 285.234Z" fill="#1F1F1F"/>
<path d="M211.502 285.234C208.78 285.469 206.044 285.469 203.322 285.234C206.044 284.999 208.78 284.999 211.502 285.234Z" fill="#1F1F1F"/>
<path d="M223.751 285.234C222.405 285.469 221.028 285.469 219.681 285.234C221.028 284.999 222.405 284.999 223.751 285.234Z" fill="#1F1F1F"/>
<g opacity="0.3">
<path d="M99.9925 233.525C99.9925 233.525 100.033 240.308 97.9578 244.377C95.8824 248.447 95.2448 250.061 90.9041 251.634C86.5634 253.208 31.9515 259.21 31.9515 259.21V240.783L99.9925 233.525Z" fill="#1F1F1F"/>
</g>
<g opacity="0.3">
<path d="M99.0362 207.955C99.0362 207.955 99.6602 201.031 82.2905 198.46C62.4249 195.523 32.0059 191.915 32.0059 191.915V205.012L99.0362 207.955Z" fill="#1F1F1F"/>
</g>
<path d="M90.3141 201.675H33.81C28.4497 201.675 24.1044 206.02 24.1044 211.38V236.679C24.1044 242.039 28.4497 246.384 33.81 246.384H90.3141C95.6744 246.384 100.02 242.039 100.02 236.679V211.38C100.02 206.02 95.6744 201.675 90.3141 201.675Z" fill="#CCCCCC"/>
<path d="M33.8099 246.378C33.8099 246.378 33.6132 246.378 33.2334 246.378C32.6643 246.356 32.0987 246.278 31.5446 246.147C30.6382 245.943 29.7672 245.604 28.9605 245.143C27.8555 244.519 26.885 243.682 26.1051 242.681C25.1171 241.426 24.4533 239.947 24.1721 238.374C24.0308 237.477 23.9763 236.569 24.0094 235.661C24.0094 234.725 24.0094 233.749 24.0094 232.738C24.0094 228.703 24.0094 224.111 24.0094 219.031C24.0094 216.488 24.0094 213.836 24.0094 211.055C24.055 209.589 24.4283 208.152 25.102 206.849C25.7757 205.546 26.7326 204.411 27.9025 203.526C29.1321 202.581 30.5727 201.948 32.1008 201.682C32.876 201.553 33.6618 201.498 34.4475 201.519H46.6558H90.3615C91.8338 201.516 93.288 201.843 94.6168 202.477C95.9457 203.111 97.1152 204.035 98.0392 205.181C99.2628 206.681 100.013 208.511 100.196 210.438C100.271 211.394 100.243 212.323 100.25 213.252C100.25 215.111 100.25 216.953 100.25 218.78V229.544C100.25 231.3 100.25 233.043 100.25 234.759C100.25 235.627 100.284 236.468 100.25 237.337C100.225 237.767 100.173 238.195 100.094 238.618C100.002 239.035 99.8887 239.447 99.7551 239.853C99.2029 241.441 98.2547 242.861 97.0002 243.981C95.7457 245.1 94.2265 245.88 92.5861 246.249C92.1944 246.339 91.7982 246.409 91.3992 246.459C90.9991 246.493 90.5989 246.506 90.1987 246.52H83.3146H66.6978L42.6338 246.459L36.0888 246.425H34.3932H33.8099C33.8099 246.425 34.0066 246.425 34.3932 246.425H36.0888L42.6338 246.391L66.6978 246.337H83.3146H87.8656C89.412 246.296 90.9923 246.466 92.5115 246.066C94.0843 245.69 95.5362 244.922 96.7318 243.833C97.9273 242.744 98.8274 241.37 99.3482 239.839C99.9315 238.273 99.8501 236.57 99.8501 234.847V229.632C99.8501 226.119 99.8501 222.524 99.8501 218.868V213.341C99.8501 212.411 99.8501 211.469 99.8026 210.56C99.6199 208.701 98.8959 206.937 97.7204 205.487C97.1288 204.769 96.4446 204.132 95.6857 203.594C94.8974 203.075 94.0416 202.667 93.1423 202.38C92.2317 202.115 91.2895 201.974 90.3412 201.96H46.6354H34.4271C33.6575 201.94 32.8877 201.992 32.1279 202.116C30.6482 202.372 29.2522 202.982 28.0585 203.893C26.9206 204.75 25.989 205.851 25.3318 207.115C24.6746 208.379 24.3085 209.774 24.2603 211.197C24.2264 213.958 24.2603 216.623 24.2603 219.167C24.2603 224.247 24.2603 228.838 24.2603 232.874C24.2603 233.884 24.2603 234.861 24.2603 235.797C24.2261 236.693 24.2761 237.59 24.4095 238.476C24.735 240.325 25.5901 242.04 26.8711 243.412C28.1521 244.785 29.8038 245.756 31.626 246.208C32.1753 246.345 32.7361 246.432 33.3012 246.466L33.8099 246.378Z" fill="#1F1F1F"/>
<path d="M77.1494 241.962C86.1244 241.962 93.4 234.687 93.4 225.712C93.4 216.737 86.1244 209.461 77.1494 209.461C68.1745 209.461 60.8988 216.737 60.8988 225.712C60.8988 234.687 68.1745 241.962 77.1494 241.962Z" fill="#1F1F1F"/>
<path d="M81.3138 238.986C82.6885 238.476 83.9923 237.792 85.1934 236.951C86.4711 236.014 87.581 234.867 88.476 233.56C89.5904 231.973 90.3279 230.153 90.6323 228.239C90.9367 226.324 90.8 224.365 90.2327 222.511C89.7894 220.989 89.0873 219.555 88.1573 218.272C87.2808 217.099 86.2547 216.046 85.1052 215.139C85.1052 215.139 85.2069 215.179 85.3697 215.288C85.6207 215.444 85.863 215.614 86.0954 215.797C86.9495 216.469 87.7111 217.251 88.3608 218.123C89.3357 219.414 90.075 220.868 90.5447 222.416C91.1479 224.314 91.2989 226.327 90.9856 228.293C90.6724 230.26 89.9036 232.126 88.7406 233.743C87.8178 235.063 86.6699 236.211 85.3494 237.134C84.4629 237.761 83.4955 238.265 82.4736 238.633C82.199 238.738 81.9181 238.827 81.6326 238.897C81.5331 238.947 81.4248 238.977 81.3138 238.986Z" fill="#FAFAFA"/>
<path opacity="0.3" d="M196.98 320.06C196.942 318.92 196.897 286.797 196.858 285.664L196.53 276.384C196.371 271.828 196.212 267.275 196.053 262.724L195.461 246.064L195.035 234.028C195.296 234.007 195.538 233.889 195.715 233.698C195.892 233.506 195.991 233.255 195.991 232.994C195.991 232.733 195.892 232.482 195.715 232.29C195.538 232.099 195.296 231.981 195.035 231.96H194.99C194.939 230.557 194.894 229.153 194.842 227.742C194.623 221.577 194.409 215.414 194.198 209.253C193.992 203.526 193.788 197.8 193.586 192.077C193.419 187.213 193.249 182.355 193.078 177.504C192.958 174.013 192.833 170.523 192.704 167.032C192.646 165.384 192.614 163.735 192.53 162.086C192.53 162.016 192.53 161.945 192.53 161.874C192.485 160.547 190.418 160.547 190.463 161.874C190.502 163.014 190.547 164.147 190.585 165.287L190.914 174.561L191.397 188.226C191.513 191.584 191.631 194.939 191.751 198.292H158.424L158.379 196.92C158.203 191.64 158.031 186.361 157.864 181.084L157.497 169.621C157.439 167.824 157.407 166.028 157.323 164.231C157.323 164.147 157.323 164.07 157.323 163.993C157.278 162.666 155.211 162.66 155.256 163.993C155.301 165.326 155.333 166.485 155.378 167.728C155.481 171.09 155.588 174.449 155.7 177.806L156.183 192.805C156.385 198.859 156.582 204.915 156.775 210.972C156.99 217.657 157.205 224.338 157.419 231.014C157.634 237.69 157.849 244.387 158.063 251.107C158.265 257.392 158.48 263.68 158.707 269.969C158.875 275.246 159.044 280.522 159.216 285.799C159.336 289.616 159.461 293.437 159.59 297.262C159.648 299.059 159.68 301.313 159.764 303.11L161.824 302.672C161.786 301.429 161.754 300.405 161.715 299.155L161.386 289.083L160.903 274.084C160.852 272.552 160.807 271.025 160.755 269.499H194.243L194.379 273.447C194.507 276.937 194.632 280.428 194.752 283.918C194.81 285.561 194.926 314.978 194.926 314.908L196.98 320.06ZM159.5 232.012L158.978 215.815L158.476 200.392H191.783C191.835 201.898 191.893 203.412 191.944 204.9C192.155 211.005 192.369 217.11 192.588 223.215L192.897 231.973H159.712C159.64 231.982 159.569 231.994 159.5 232.012ZM168.29 267.432H160.646C160.517 263.594 160.393 259.753 160.272 255.911C160.053 249.23 159.839 242.55 159.628 235.869L159.57 234.015H159.693H192.981C193.065 236.591 193.161 239.128 193.245 241.678C193.451 247.41 193.655 253.137 193.857 258.86C193.956 261.715 194.057 264.568 194.16 267.419L168.29 267.432Z" fill="#1F1F1F"/>
<path d="M154.657 160.418C154.7 161.032 154.788 161.641 154.921 162.241C155.107 163.374 155.307 164.508 155.507 165.635C156.224 169.662 156.951 173.681 157.69 177.691C158.759 183.512 159.832 189.334 160.91 195.156C162.198 202.201 163.512 209.249 164.851 216.298C166.294 224.026 167.738 231.739 169.185 239.437L173.552 262.653C174.904 269.853 176.259 277.055 177.615 284.26L181.054 302.491L183.54 315.59C183.933 317.657 184.268 319.744 184.712 321.798C184.712 321.889 184.751 321.979 184.764 322.069C184.877 322.48 185.15 322.83 185.521 323.041C185.892 323.252 186.332 323.306 186.744 323.193C187.156 323.079 187.505 322.807 187.716 322.435C187.927 322.064 187.981 321.624 187.868 321.212C187.604 319.796 187.333 318.379 187.069 316.962C186.344 313.098 185.614 309.234 184.88 305.37C183.806 299.656 182.733 293.943 181.66 288.233L177.718 267.29C176.276 259.635 174.835 251.976 173.397 244.312L169.018 221.064C167.665 213.825 166.315 206.587 164.967 199.348C163.812 193.166 162.666 186.981 161.528 180.795C160.695 176.287 159.871 171.779 159.055 167.271C158.649 164.997 158.237 162.724 157.877 160.438C157.806 160.006 157.922 160.934 157.877 160.573C157.877 160.521 157.877 160.47 157.877 160.425C157.877 158.351 154.657 158.345 154.657 160.425V160.418Z" fill="#1F1F1F"/>
<path d="M190.521 160.418C190.559 161.032 190.645 161.641 190.779 162.241C190.965 163.374 191.165 164.508 191.365 165.635C192.082 169.662 192.811 173.681 193.554 177.691C194.623 183.512 195.697 189.334 196.774 195.156L200.716 216.298C202.158 224.026 203.605 231.739 205.056 239.437C206.507 247.135 207.96 254.874 209.416 262.653C210.768 269.853 212.125 277.055 213.486 284.26C214.624 290.339 215.77 296.416 216.925 302.491C217.741 306.858 218.565 311.224 219.398 315.59C219.784 317.657 220.126 319.744 220.57 321.798C220.57 321.889 220.602 321.979 220.622 322.069C220.739 322.477 221.012 322.823 221.381 323.033C221.751 323.242 222.188 323.299 222.599 323.189C223.005 323.069 223.35 322.796 223.56 322.428C223.77 322.059 223.829 321.624 223.726 321.212C223.455 319.796 223.191 318.379 222.921 316.962L220.737 305.37C219.656 299.656 218.582 293.943 217.517 288.233C216.195 281.252 214.879 274.271 213.57 267.29C212.127 259.635 210.687 251.976 209.249 244.312C207.789 236.541 206.333 228.792 204.882 221.064C203.521 213.825 202.169 206.587 200.825 199.348C199.674 193.166 198.528 186.981 197.386 180.795C196.553 176.287 195.729 171.779 194.913 167.271C194.507 164.997 194.095 162.724 193.735 160.438C193.664 160.006 193.786 160.934 193.735 160.573C193.735 160.521 193.735 160.47 193.735 160.425C193.735 158.351 190.515 158.345 190.515 160.425L190.521 160.418Z" fill="#1F1F1F"/>
<path d="M163.357 195.825H196.6C198.674 195.825 198.68 192.605 196.6 192.605H163.357C161.29 192.605 161.283 195.825 163.357 195.825Z" fill="#1F1F1F"/>
<path d="M169.694 231.439H202.937C205.011 231.439 205.017 228.219 202.937 228.219H169.694C167.627 228.219 167.62 231.439 169.694 231.439Z" fill="#1F1F1F"/>
<path d="M182.703 297.855H215.946C218.02 297.855 218.02 294.635 215.946 294.635H182.703C180.629 294.635 180.629 297.855 182.703 297.855Z" fill="#1F1F1F"/>
<path d="M176.785 266.363H210.028C212.101 266.363 212.101 263.143 210.028 263.143H176.785C174.711 263.143 174.711 266.363 176.785 266.363Z" fill="#1F1F1F"/>
<path d="M239.6 105.021C238.467 104.126 236.895 103.972 235.549 103.398C233.025 102.323 231.486 99.8178 230.893 97.3577C230.301 94.8976 230.462 92.3925 230.294 89.9002C230.127 87.4079 230.224 85.2312 228.581 82.7325C225.69 78.3275 218.786 77.0781 217.189 81.3929L218.728 85.8237C215.175 91.2663 213.667 97.7923 214.471 104.242C214.632 105.53 214.922 106.895 215.914 107.868C216.906 108.84 218.799 109.156 219.604 108.112C220.609 110.102 221.665 112.131 223.352 113.715C225.039 115.3 227.519 116.356 229.76 115.879C232.001 115.403 233.585 112.994 232.529 111.023C234.77 111.841 237.449 111.944 239.259 110.669C241.069 109.394 241.448 106.477 239.6 105.021Z" fill="#1F1F1F"/>
<path d="M206.724 74.8113C209.622 74.2703 212.198 75.3458 214.671 76.9494C217.192 78.6595 219.131 81.0977 220.23 83.9388C221.329 86.7798 221.535 89.8884 220.821 92.8497C220.422 94.3535 219.724 95.7612 218.768 96.9884C217.812 98.2157 216.618 99.2372 215.257 99.9917C211.503 101.969 206.66 101.376 203.234 98.8711C201.551 97.5684 200.173 95.9135 199.198 94.0223C198.222 92.1311 197.672 90.0494 197.586 87.9231C197.38 84.9822 198.111 82.0517 199.672 79.5511C200.459 78.319 201.491 77.2622 202.704 76.4467C203.918 75.6312 205.286 75.0745 206.724 74.8113Z" fill="#1F1F1F"/>
<path d="M215.148 84.536C214.703 83.4347 214.851 82.1854 214.665 81.0133C214.252 78.4373 213.254 76.0803 210.8 75.1078C208.534 74.1998 204.663 74.7407 201.965 75.6617C200.094 76.2585 198.433 77.3753 197.173 78.8817C196.372 79.9055 195.828 81.1065 195.588 82.3839C195.347 83.6614 195.416 84.978 195.789 86.2233L209.036 84.0852C210.242 85.1577 211.615 86.0277 213.1 86.6612C213.538 86.848 214.017 86.9168 214.491 86.8608C214.726 86.8288 214.947 86.7299 215.127 86.5757C215.308 86.4215 215.44 86.2187 215.508 85.9914C215.531 85.4817 215.405 84.9762 215.148 84.536Z" fill="#1F1F1F"/>
<path d="M215.701 108.809C215.057 104.069 215.238 93.9967 215.444 83.6927C215.425 83.1508 215.204 82.6356 214.823 82.2492C214.443 81.8627 213.931 81.6333 213.389 81.6061L201.759 79.3844C198.062 79.1976 195.866 83.8537 195.834 87.5503C195.834 91.6654 195.924 96.6822 196.575 99.7154C197.863 105.808 202.641 106.336 202.641 106.336C202.641 106.336 202.641 106.568 202.796 108.802C202.796 108.802 201.211 113.903 206.376 113.31C209.738 112.872 215.701 108.809 215.701 108.809Z" fill="#FFBF9D"/>
<path d="M197.624 92.4442C197.633 92.6503 197.722 92.8449 197.872 92.9858C198.023 93.1268 198.223 93.2029 198.429 93.1976C198.53 93.2002 198.63 93.1826 198.724 93.1459C198.817 93.1092 198.903 93.0541 198.975 92.9839C199.047 92.9137 199.104 92.8297 199.143 92.737C199.182 92.6443 199.202 92.5448 199.202 92.4442C199.194 92.238 199.105 92.0435 198.954 91.9025C198.803 91.7615 198.603 91.6854 198.397 91.6907C198.297 91.6881 198.196 91.7057 198.103 91.7424C198.009 91.7791 197.924 91.8342 197.852 91.9044C197.78 91.9746 197.722 92.0586 197.683 92.1513C197.644 92.244 197.624 92.3436 197.624 92.4442Z" fill="#1F1F1F"/>
<path d="M204.721 92.4442C204.73 92.6503 204.819 92.8449 204.969 92.9858C205.12 93.1268 205.32 93.2029 205.526 93.1976C205.627 93.2002 205.727 93.1826 205.82 93.1459C205.914 93.1092 205.999 93.0541 206.072 92.9839C206.144 92.9137 206.201 92.8297 206.24 92.737C206.279 92.6443 206.299 92.5448 206.299 92.4442C206.291 92.238 206.201 92.0435 206.051 91.9025C205.9 91.7615 205.7 91.6854 205.494 91.6907C205.393 91.6881 205.293 91.7057 205.2 91.7424C205.106 91.7791 205.021 91.8342 204.949 91.9044C204.877 91.9746 204.819 92.0586 204.78 92.1513C204.741 92.244 204.721 92.3436 204.721 92.4442Z" fill="#1F1F1F"/>
<path d="M197.064 89.8683C197.167 89.9649 197.74 89.4884 198.59 89.4433C199.44 89.3982 200.084 89.7911 200.168 89.6816C200.252 89.5721 200.104 89.4562 199.82 89.2694C199.435 89.0316 198.984 88.9212 198.532 88.9539C198.09 88.9768 197.666 89.1391 197.322 89.4175C197.096 89.6301 197.012 89.8233 197.064 89.8683Z" fill="#1F1F1F"/>
<path d="M204.592 89.5982C204.695 89.6948 205.269 89.2247 206.119 89.1796C206.969 89.1345 207.613 89.5274 207.697 89.4179C207.78 89.3084 207.632 89.1861 207.349 89.0057C206.963 88.7679 206.513 88.6575 206.061 88.6902C205.618 88.7131 205.195 88.8754 204.85 89.1539C204.625 89.3664 204.541 89.5596 204.592 89.5982Z" fill="#1F1F1F"/>
<path d="M202.68 96.2373C202.225 96.1212 201.758 96.0627 201.289 96.0634C201.07 96.0634 200.864 96.0184 200.819 95.8767C200.787 95.6559 200.826 95.4308 200.928 95.2327L201.475 93.5454C201.993 92.1157 202.396 90.647 202.68 89.1533C202.05 90.5398 201.531 91.9739 201.128 93.4424C200.941 94.0284 200.767 94.5951 200.6 95.1361C200.481 95.4058 200.458 95.7081 200.535 95.9926C200.572 96.0661 200.625 96.1307 200.689 96.1819C200.754 96.2331 200.829 96.2696 200.909 96.2888C201.032 96.311 201.157 96.3218 201.282 96.321C201.75 96.3479 202.219 96.3198 202.68 96.2373Z" fill="#1F1F1F"/>
<path d="M202.641 106.31C205.537 106.194 208.343 105.278 210.749 103.663C210.749 103.663 208.914 108.029 202.731 107.791L202.641 106.31Z" fill="#FF9A6C"/>
<path d="M203.15 98.2593C203.299 98.0462 203.501 97.8751 203.736 97.7624C203.97 97.6496 204.23 97.599 204.489 97.6153C204.677 97.6222 204.862 97.6668 205.032 97.7465C205.203 97.8261 205.355 97.9392 205.481 98.079C205.602 98.2136 205.679 98.3823 205.701 98.562C205.723 98.7417 205.689 98.9238 205.603 99.0836C205.475 99.2438 205.301 99.3619 205.105 99.4227C204.909 99.4835 204.699 99.4843 204.502 99.4249C204.094 99.3056 203.713 99.1064 203.382 98.8389C203.285 98.7749 203.2 98.6942 203.131 98.6006C203.099 98.5539 203.083 98.499 203.083 98.4428C203.083 98.3867 203.099 98.3317 203.131 98.2851" fill="#FF9A6C"/>
<path d="M205.204 96.6886C205.069 96.6886 205.114 97.6095 204.361 98.3051C203.607 99.0006 202.628 98.9491 202.628 99.0843C202.628 99.2195 202.854 99.2517 203.272 99.2389C203.813 99.2183 204.329 99.006 204.728 98.6399C205.108 98.2886 205.339 97.8043 205.372 97.2875C205.384 96.9011 205.269 96.6822 205.204 96.6886Z" fill="#1F1F1F"/>
<path d="M204.586 86.6353C204.683 86.8607 205.52 86.7061 206.518 86.7705C207.516 86.8349 208.341 87.0667 208.45 86.8542C208.502 86.7512 208.347 86.5387 208.012 86.3326C207.563 86.0851 207.064 85.9421 206.553 85.9142C206.041 85.8863 205.529 85.9743 205.056 86.1716C204.715 86.339 204.541 86.5322 204.586 86.6353Z" fill="#1F1F1F"/>
<path d="M197.109 86.352C197.27 86.5387 197.843 86.3069 198.545 86.2554C199.247 86.2039 199.833 86.3134 199.975 86.1073C200.033 86.0042 199.93 85.8175 199.659 85.65C199.3 85.4448 198.886 85.357 198.474 85.3989C198.06 85.4242 197.665 85.5822 197.347 85.8497C197.109 86.0558 197.064 86.2618 197.109 86.352Z" fill="#1F1F1F"/>
<path d="M217.241 82.739C215.985 79.2292 210.665 74.5022 206.937 74.895L201.141 78.6624C201.371 79.6687 201.868 80.5943 202.58 81.3422C203.291 82.09 204.191 82.6326 205.185 82.9129C206.247 83.1898 207.516 83.2348 208.173 84.1171C208.83 84.9994 208.514 86.3711 209.145 87.2985C210.015 88.5865 212.256 88.4448 212.926 89.8745C213.216 90.5185 213.106 91.2398 213.409 91.8451C213.808 92.6566 215.927 93.6226 216.783 93.3199C217.64 93.0172 217.582 91.5489 217.839 90.7439C218.154 89.8609 218.154 88.8963 217.839 88.0133C217.427 86.2874 217.839 84.4134 217.241 82.739Z" fill="#1F1F1F"/>
<path d="M214.265 94.1119C214.265 93.6546 214.71 92.5469 215.16 92.4503C216.358 92.1992 218.535 92.1734 218.728 95.2389C218.979 99.4313 214.723 98.8195 214.71 98.7036C214.697 98.5877 214.349 95.6897 214.265 94.1119Z" fill="#FFBF9D"/>
<path d="M215.888 97.0359C215.888 97.0359 215.965 97.0809 216.094 97.1325C216.271 97.1993 216.465 97.1993 216.642 97.1325C216.901 96.9432 217.106 96.6885 217.235 96.3944C217.364 96.1002 217.412 95.7772 217.376 95.4581C217.364 95.0986 217.272 94.7464 217.105 94.4277C217.06 94.2984 216.984 94.1825 216.882 94.0903C216.781 93.9981 216.659 93.9326 216.526 93.8996C216.441 93.8814 216.352 93.8941 216.275 93.9354C216.198 93.9767 216.139 94.0439 216.107 94.125C216.056 94.2473 216.107 94.3311 216.069 94.3375C216.03 94.3439 215.972 94.2731 215.998 94.0992C216.014 93.9927 216.066 93.8949 216.146 93.8223C216.258 93.7305 216.401 93.6844 216.545 93.6935C216.719 93.7169 216.884 93.785 217.024 93.8911C217.164 93.9971 217.274 94.1376 217.344 94.2989C217.544 94.6508 217.655 95.0467 217.666 95.4516C217.71 95.8232 217.643 96.1996 217.473 96.5331C217.303 96.8666 217.039 97.1424 216.713 97.3257C216.606 97.3599 216.494 97.3713 216.383 97.3591C216.272 97.3469 216.165 97.3114 216.069 97.2548C215.901 97.1389 215.875 97.0488 215.888 97.0359Z" fill="#FF9A6C"/>
<path d="M202.338 77.3807C201.984 79.0938 199.421 81.322 198.307 82.668C196.169 85.244 195.731 86.0876 195.866 91.7548C194.81 89.8228 193.992 87.8908 194.037 85.6948C194.051 83.4623 194.88 81.3118 196.369 79.6476C197.119 78.8312 198.049 78.2012 199.085 77.8076C200.122 77.4141 201.236 77.2679 202.338 77.3807Z" fill="#1F1F1F"/>
<path d="M218.38 80.8204C218.277 80.9042 219.668 82.3725 220.428 84.6844C221.188 86.9964 221.027 88.9735 221.163 88.9735C221.298 88.9735 221.665 86.9384 220.834 84.5492C220.003 82.1599 218.432 80.7303 218.38 80.8204Z" fill="rgba(var(--primary-color), 1)"/>
<path d="M204.148 245.323L204.947 257.025C204.947 257.025 193.322 261.764 193.258 263.941L216.004 263.207L215.508 244.924L204.148 245.323Z" fill="#1F1F1F"/>
<g opacity="0.6">
<path d="M215.991 263.207L215.869 261.365L194.108 262.756C194.108 262.756 193.11 263.233 193.245 263.941L215.991 263.207Z" fill="rgba(var(--primary-color), 1)"/>
</g>
<path d="M204.567 256.922C204.567 257.031 205.127 257.064 205.687 257.405C206.248 257.746 206.55 258.197 206.653 258.152C206.756 258.107 206.563 257.469 205.88 257.07C205.198 256.671 204.534 256.819 204.567 256.922Z" fill="rgba(var(--primary-color), 1)"/>
<path d="M202.216 257.985C202.216 258.094 202.68 258.268 203.073 258.725C203.465 259.182 203.594 259.672 203.717 259.665C203.839 259.659 203.878 259.021 203.375 258.468C202.873 257.914 202.216 257.875 202.216 257.985Z" fill="rgba(var(--primary-color), 1)"/>
<path d="M200.928 260.882C201.031 260.882 201.166 260.341 200.864 259.742C200.561 259.144 200.026 258.918 199.988 259.015C199.949 259.111 200.271 259.42 200.516 259.916C200.761 260.412 200.838 260.876 200.928 260.882Z" fill="rgba(var(--primary-color), 1)"/>
<path d="M204.676 254.23C204.728 254.333 205.23 254.165 205.861 254.185C206.492 254.204 206.988 254.391 207.04 254.294C207.091 254.197 206.615 253.811 205.874 253.798C205.133 253.785 204.618 254.146 204.676 254.23Z" fill="#1F1F1F"/>
<path d="M181.363 245.49L182.162 257.192C182.162 257.192 170.531 261.938 170.473 264.115L193.2 263.381L192.704 245.098L181.363 245.49Z" fill="#1F1F1F"/>
<path d="M193.2 263.381L193.078 261.539L171.304 262.924C171.304 262.924 170.306 263.4 170.447 264.109L193.2 263.381Z" fill="rgba(var(--primary-color), 1)"/>
<path d="M181.788 257.089C181.788 257.205 182.349 257.237 182.909 257.572C183.469 257.907 183.772 258.371 183.875 258.326C183.978 258.281 183.791 257.643 183.109 257.244C182.426 256.844 181.763 256.993 181.788 257.089Z" fill="rgba(var(--primary-color), 1)"/>
<path d="M179.431 258.158C179.431 258.261 179.901 258.435 180.294 258.893C180.687 259.35 180.809 259.846 180.938 259.839C181.067 259.833 181.099 259.195 180.603 258.641C180.107 258.088 179.431 258.049 179.431 258.158Z" fill="rgba(var(--primary-color), 1)"/>
<path d="M178.169 261.056C178.272 261.056 178.407 260.515 178.105 259.916C177.802 259.317 177.274 259.092 177.229 259.182C177.184 259.272 177.519 259.594 177.757 260.09C177.995 260.586 178.06 261.05 178.169 261.056Z" fill="rgba(var(--primary-color), 1)"/>
<path d="M181.904 254.403C181.949 254.507 182.458 254.333 183.083 254.358C183.707 254.384 184.21 254.564 184.268 254.461C184.326 254.358 183.836 253.985 183.096 253.972C182.355 253.959 181.846 254.32 181.904 254.403Z" fill="#1F1F1F"/>
<path d="M180.964 255.621C180.964 255.737 183.63 255.769 186.915 255.685C190.199 255.602 192.859 255.447 192.852 255.331C192.846 255.215 190.186 255.19 186.902 255.267C183.617 255.344 180.964 255.505 180.964 255.621Z" fill="rgba(var(--primary-color), 1)"/>
<path d="M204.148 255.37C204.148 255.486 206.982 255.512 210.472 255.428C213.963 255.344 216.79 255.177 216.783 255.061C216.777 254.945 213.95 254.926 210.459 255.009C206.969 255.093 204.148 255.254 204.148 255.37Z" fill="rgba(var(--primary-color), 1)"/>
<path d="M204.914 120.6C204.399 120.6 181.73 128.644 183.018 128.058L182.374 127.414L173.829 115.178L166.429 119.815C166.429 119.815 174.228 133.867 175.509 136.069C176.126 137.149 177.024 138.04 178.109 138.647C179.194 139.254 180.424 139.554 181.666 139.514C183.347 139.469 197.611 136.726 197.611 136.726L204.914 120.6Z" fill="rgba(var(--primary-color), 1)"/>
<path d="M181.608 133.332C182.252 132.652 182.734 131.836 183.019 130.944C183.303 130.052 183.382 129.107 183.25 128.18C183.141 128.18 183.147 129.416 182.684 130.846C182.22 132.276 181.492 133.267 181.608 133.332Z" fill="#1F1F1F"/>
<path d="M180.964 180.53L178.079 180.601C178.079 180.601 183.192 163.516 184.693 156.773C185.749 152.033 186.47 140.235 186.811 133.589C186.973 130.412 187.896 127.319 189.503 124.573L198.223 111.861L202.184 109.246L186.76 165.409L180.964 180.53Z" fill="rgba(var(--primary-color), 1)"/>
<path d="M212.52 158.21C215.289 163.826 217.253 168.739 216.777 174.954C216.526 178.174 213.731 182.585 213.493 186.256C212.984 194.132 213.261 208.378 213.654 210.284C215.664 219.434 216.711 228.769 216.777 238.137C216.777 251.281 216.552 255.583 216.552 255.583H203.504C203.504 255.583 202.609 230.589 198.59 216.138C194.855 202.71 190.56 182.289 190.56 173.434V161.43L212.494 158.21H212.52Z" fill="#1F1F1F"/>
<path d="M187.23 160.431C187.23 160.431 171.89 201.538 172.167 212.756C172.231 215.332 180.99 255.621 180.99 255.621L193.979 255.215C194.134 244.911 187.997 213.645 187.997 213.645L199.202 184.233L198.5 155.595L187.784 154.307L187.23 160.431Z" fill="#1F1F1F"/>
<path d="M190.843 182.244C190.875 182.584 190.94 182.921 191.036 183.249C191.191 183.957 191.397 184.872 191.642 185.973C192.163 188.343 192.859 191.486 193.632 194.989C194.404 198.492 195.145 201.674 195.725 203.96C196.014 205.106 196.259 206.027 196.446 206.665C196.527 206.998 196.639 207.324 196.781 207.637C196.749 207.295 196.684 206.956 196.588 206.626C196.427 205.918 196.227 205.003 195.982 203.902C195.454 201.538 194.759 198.389 193.992 194.886C193.226 191.383 192.479 188.22 191.912 185.915C191.622 184.769 191.371 183.848 191.191 183.217C191.105 182.882 190.989 182.557 190.843 182.244Z" fill="rgba(var(--primary-color), 1)"/>
<path d="M177.397 103.762C178.811 107.225 179.165 111.03 178.415 114.695C177.665 118.36 175.844 121.72 173.183 124.349C170.522 126.978 167.141 128.759 163.467 129.465C159.793 130.171 155.993 129.771 152.547 128.316C149.101 126.86 146.164 124.415 144.108 121.29C142.053 118.164 140.971 114.499 141.001 110.758C141.03 107.017 142.168 103.369 144.272 100.276C146.376 97.1831 149.351 94.7838 152.819 93.3824C157.455 91.5035 162.647 91.5413 167.255 93.4873C171.863 95.4334 175.511 99.1287 177.397 103.762Z" fill="#999999"/>
<path d="M173.249 105.452C174.325 108.091 174.593 110.99 174.021 113.782C173.449 116.574 172.061 119.133 170.033 121.136C168.006 123.139 165.43 124.495 162.631 125.033C159.832 125.571 156.937 125.267 154.311 124.159C151.686 123.05 149.448 121.188 147.881 118.808C146.314 116.427 145.489 113.635 145.51 110.785C145.53 107.935 146.396 105.156 147.997 102.798C149.598 100.441 151.863 98.6109 154.504 97.5408C158.039 96.1044 162 96.131 165.515 97.6148C169.03 99.0985 171.812 101.918 173.249 105.452Z" fill="#999999"/>
<path d="M173.249 105.452C173.209 105.386 173.172 105.318 173.139 105.248L172.835 104.63L172.616 104.181C172.526 104.017 172.416 103.847 172.302 103.658C172.053 103.219 171.774 102.799 171.464 102.401C170.647 101.284 169.665 100.298 168.553 99.4749C167.086 98.3784 165.422 97.5729 163.652 97.1019C161.509 96.5218 159.26 96.4535 157.086 96.9025C153.923 97.5746 151.072 99.2771 148.98 101.743C148.761 102.007 148.567 102.292 148.352 102.571C148.142 102.847 147.951 103.137 147.779 103.438C147.404 104.041 147.071 104.669 146.782 105.318C146.507 105.985 146.281 106.672 146.104 107.372C145.726 108.805 145.585 110.29 145.685 111.769C145.867 114.839 147.051 117.765 149.055 120.099C150.016 121.229 151.152 122.197 152.42 122.966C153.034 123.342 153.674 123.675 154.335 123.963C154.985 124.227 155.651 124.45 156.329 124.631C157.654 124.986 159.026 125.134 160.397 125.069C162.945 124.974 165.423 124.203 167.576 122.836C169.281 121.744 170.736 120.304 171.846 118.609C172.955 116.915 173.693 115.005 174.012 113.005C174.241 111.64 174.262 110.248 174.071 108.877C174.017 108.373 173.926 107.873 173.797 107.382C173.747 107.167 173.712 106.968 173.663 106.793C173.613 106.619 173.548 106.459 173.503 106.295C173.413 106.021 173.344 105.796 173.294 105.642C173.264 105.569 173.242 105.494 173.229 105.417C173.266 105.486 173.296 105.557 173.319 105.632C173.378 105.791 173.458 106.001 173.558 106.275L173.732 106.748C173.787 106.928 173.832 107.127 173.887 107.342C174.025 107.832 174.125 108.332 174.186 108.837C174.402 110.218 174.402 111.624 174.186 113.005C173.877 115.038 173.139 116.982 172.022 118.709C170.904 120.436 169.433 121.905 167.705 123.021C165.534 124.426 163.03 125.231 160.447 125.354C159.755 125.38 159.062 125.362 158.373 125.299C157.672 125.217 156.977 125.089 156.294 124.915C155.593 124.734 154.906 124.508 154.235 124.237C153.562 123.949 152.909 123.616 152.281 123.24C150.985 122.454 149.824 121.466 148.841 120.313C146.794 117.932 145.585 114.944 145.401 111.809C145.302 110.3 145.447 108.785 145.83 107.322C146.179 105.909 146.754 104.562 147.535 103.334C147.707 103.023 147.903 102.726 148.123 102.446C148.337 102.167 148.537 101.878 148.761 101.609C149.208 101.077 149.691 100.578 150.207 100.113C152.144 98.3827 154.506 97.1989 157.052 96.6831C159.068 96.2819 161.146 96.314 163.148 96.7773C165.151 97.2406 167.032 98.1244 168.667 99.3702C169.786 100.21 170.766 101.219 171.574 102.361C171.882 102.765 172.157 103.194 172.396 103.643C172.506 103.837 172.616 104.007 172.7 104.176C172.785 104.346 172.845 104.495 172.905 104.635C173.02 104.899 173.114 105.133 173.179 105.263C173.207 105.324 173.23 105.388 173.249 105.452Z" fill="#1F1F1F"/>
<g opacity="0.3">
<path d="M173.204 105.63C173.124 105.665 172.83 105.101 172.207 104.169C171.334 102.848 170.261 101.671 169.026 100.679C168.18 100.008 167.262 99.431 166.289 98.9595C165.18 98.4283 164.007 98.0428 162.8 97.8129C162.142 97.6821 161.475 97.6038 160.805 97.5786C160.115 97.5448 159.424 97.5631 158.737 97.6335C158.027 97.7086 157.323 97.8369 156.633 98.0173C155.925 98.2107 155.232 98.4539 154.559 98.7452C153.887 99.0469 153.239 99.3985 152.62 99.7971C152.02 100.184 151.452 100.618 150.92 101.093C150.405 101.554 149.926 102.054 149.489 102.589C149.063 103.099 148.676 103.64 148.332 104.209C147.691 105.26 147.189 106.39 146.837 107.569C146.531 108.605 146.339 109.672 146.263 110.75C146.166 112.326 146.31 113.908 146.692 115.441C146.961 116.533 147.191 117.131 147.101 117.166C147.011 117.201 146.692 116.667 146.283 115.566C145.727 114.012 145.458 112.37 145.491 110.72C145.524 109.573 145.692 108.433 145.989 107.325C146.321 106.048 146.824 104.822 147.485 103.681C147.841 103.064 148.244 102.475 148.691 101.921C149.641 100.738 150.772 99.7114 152.041 98.8798C152.706 98.4482 153.402 98.0682 154.125 97.7431C154.853 97.4285 155.602 97.1686 156.368 96.9654C157.832 96.5858 159.346 96.4394 160.855 96.5317C161.566 96.5732 162.273 96.6699 162.969 96.8209C164.259 97.0936 165.505 97.5415 166.673 98.1519C167.687 98.6844 168.636 99.3336 169.5 100.086C170.747 101.17 171.782 102.477 172.551 103.94C173.099 104.982 173.259 105.605 173.204 105.63Z" fill="#1F1F1F"/>
</g>
<g opacity="0.3">
<path d="M161.71 119.264L161.764 121.782L159.523 121.815L159.472 119.356C157.253 119.257 155.118 118.59 153.88 117.625L155.07 114.879C156.369 115.76 157.875 116.288 159.441 116.411L159.387 112.672C156.892 112.1 154.104 111.307 154.059 108.104C154.027 105.729 155.725 103.669 159.268 103.224L159.234 100.735L161.475 100.703L161.51 103.149C163.113 103.22 164.676 103.67 166.072 104.463L164.984 107.25C163.922 106.653 162.752 106.273 161.542 106.132L161.615 109.928C164.088 110.464 166.85 111.268 166.898 114.424C166.894 116.752 165.222 118.79 161.71 119.264ZM159.335 109.395L159.292 106.214C158.102 106.495 157.644 107.159 157.657 107.896C157.669 108.633 158.343 109.095 159.335 109.395ZM163.256 114.753C163.246 113.969 162.592 113.553 161.62 113.229L161.666 116.325C162.798 116.053 163.271 115.459 163.261 114.739L163.256 114.753Z" fill="#1F1F1F"/>
</g>
<path d="M187.771 154.5L205.919 156.129L212.237 116.201L216.262 110.064L215.785 105.556L202.995 110.347L202.77 108.415L196.201 117.431L191.693 122.461C189.279 125.1 187.691 128.389 187.127 131.921C186.863 133.666 188.737 137.717 188.737 137.717L187.855 147.847L187.771 154.5Z" fill="#E0E0E0"/>
<g opacity="0.3">
<path d="M213.969 183.39C213.969 183.39 198.964 185.174 194.926 184.434C194.25 184.307 193.598 184.074 192.994 183.744C192.075 183.217 191.3 182.471 190.738 181.572C190.176 180.673 189.845 179.65 189.774 178.592C189.433 174.728 189.413 167.207 189.465 164.907C189.529 161.591 191.629 154.745 191.629 154.745L215.064 180.582L213.969 183.39Z" fill="#1F1F1F"/>
</g>
<path d="M221.021 113.638C224.64 117.2 224.402 121.547 221.665 128.695C221.214 129.88 217.949 139.443 217.337 140.828C214.671 146.875 214.297 148.06 214.974 150.243C218.954 163.123 223.829 179.481 223.829 179.481C223.829 179.481 196.227 183.931 193.818 181.529C191.41 179.127 190.837 163.497 191.423 156.587C192.067 148.987 194.765 136.945 196.227 132.166C197.109 129.288 198.642 122.551 202.28 117.799C204.998 114.244 206.544 113.355 210.227 110.811L216.191 107.533L216.938 109.852L221.021 113.638Z" fill="rgba(var(--primary-color), 1)"/>
<path d="M215.566 162.975L213.216 158.486L197.521 159.15L199.382 163.806L215.566 162.975Z" fill="rgba(var(--primary-color), 1)"/>
<path d="M215.566 162.975C215.566 162.975 215.444 162.975 215.225 162.975H214.291L210.878 163.098C207.98 163.207 203.968 163.368 199.376 163.594L199.55 163.71L197.779 159.26L197.695 159.047L197.534 159.305C203.845 159.034 209.487 158.777 213.222 158.577L213.106 158.513L214.884 161.733C215.083 162.087 215.251 162.377 215.379 162.615L215.566 162.93C215.534 162.829 215.491 162.732 215.437 162.641L215.012 161.765L213.319 158.39L213.286 158.319H213.209C209.474 158.435 203.833 158.648 197.515 158.912H197.251L197.354 159.157L197.438 159.363C198.049 160.902 198.648 162.389 199.215 163.806L199.267 163.929H199.395C204.084 163.677 208.167 163.42 211.039 163.239L214.401 163.014L215.283 162.95C215.376 162.971 215.471 162.98 215.566 162.975Z" fill="#1F1F1F"/>
<path d="M197.354 150.385C197.354 150.488 201.141 150.237 205.79 149.825C210.44 149.413 214.207 148.994 214.194 148.891C214.182 148.788 210.414 149.039 205.758 149.452C201.102 149.864 197.347 150.282 197.354 150.385Z" fill="#1F1F1F"/>
<g opacity="0.3">
<path d="M214.31 163.033L214.619 164.404L198.378 165.261L197.521 159.149L199.382 163.806L214.31 163.033Z" fill="#1F1F1F"/>
</g>
<path d="M200.284 111.906C200.438 112.371 200.54 112.853 200.587 113.342L200.406 113.29C200.986 112.595 201.804 111.635 202.757 110.547L203.021 110.244V110.65C203.021 111.114 203.066 111.597 203.092 112.099C203.13 113 203.163 113.863 203.195 114.675L202.982 114.54C204.071 114.108 204.992 113.754 205.649 113.516C205.989 113.365 206.345 113.255 206.711 113.187C206.402 113.394 206.069 113.563 205.719 113.69C205.075 113.979 204.174 114.372 203.098 114.823L202.899 114.907V114.688C202.86 113.889 202.815 113.026 202.77 112.112C202.77 111.616 202.731 111.133 202.705 110.663L202.995 110.766C202.029 111.841 201.179 112.769 200.554 113.426L200.4 113.599V113.374C200.313 112.89 200.275 112.398 200.284 111.906Z" fill="#1F1F1F"/>
<path d="M175.445 126.975C175.163 126.143 174.726 125.372 174.157 124.702C173.448 124.105 172.781 123.459 172.161 122.77C172.045 122.474 171.974 121.591 171.317 121.688C170.66 121.785 169.688 122.854 170.641 124.554L171.484 125.726C170.933 126.217 170.313 126.625 169.643 126.937C168.96 127.13 160.697 128.611 160.697 128.611C160.5 128.603 160.306 128.662 160.146 128.779C159.987 128.896 159.873 129.064 159.822 129.255C159.628 129.957 160.697 130.324 160.697 130.324C160.592 130.627 160.607 130.959 160.74 131.25C160.874 131.542 161.114 131.771 161.412 131.889C161.49 132.488 162.198 133.01 163.602 132.849C163.602 132.849 163.563 133.596 165.18 133.744C166.796 133.892 174.157 132.559 174.157 132.559L176.855 128.012L175.445 126.975Z" fill="#FFBF9D"/>
<path d="M180.848 128.74L175.445 126.976L174.157 132.572L179.811 136.436C179.811 136.436 184.635 132.327 180.848 128.74Z" fill="#FFBF9D"/>
<path d="M168.586 132.031C167.733 132.109 166.885 132.242 166.049 132.431C165.199 132.523 164.355 132.671 163.525 132.875C164.386 132.958 165.256 132.904 166.101 132.714C166.96 132.617 167.798 132.387 168.586 132.031Z" fill="#FF9A6C"/>
<path d="M168.432 130.543C167.215 130.58 166.006 130.762 164.832 131.084C162.9 131.528 161.283 131.825 161.296 131.902C162.513 131.86 163.721 131.679 164.896 131.361C166.848 130.904 168.438 130.614 168.432 130.543Z" fill="#FF9A6C"/>
<path d="M160.62 130.305C160.961 130.377 161.312 130.39 161.657 130.343C162.484 130.272 163.306 130.147 164.117 129.97C165.274 129.769 166.407 129.45 167.498 129.017C166.341 129.166 165.192 129.381 164.059 129.661C163.119 129.86 162.262 130.021 161.638 130.111C161.293 130.145 160.953 130.21 160.62 130.305Z" fill="#FF9A6C"/>
<path d="M214.896 113.387C221.929 112.009 226.656 120.529 222.013 125.99C217.009 131.87 206.879 143.004 200.567 144.602C191.912 146.791 174.524 135.65 174.524 135.65L178.04 127.278L196.42 133.48C196.42 133.48 208.823 116.208 212.971 114.044C213.578 113.733 214.226 113.512 214.896 113.387Z" fill="rgba(var(--primary-color), 1)"/>
<path d="M220.506 114.16C219.774 113.816 218.998 113.575 218.2 113.445C217.245 113.306 216.271 113.354 215.334 113.586C214.072 113.896 212.88 114.44 211.818 115.19C211.193 115.63 210.608 116.126 210.073 116.671C209.498 117.286 208.956 117.931 208.45 118.603L204.921 123.04L196.51 133.57L196.446 133.653L196.343 133.621L177.976 127.432L178.188 127.336L176.855 130.504L174.672 135.695L174.608 135.489C177.635 137.311 180.687 138.921 183.682 140.338C186.543 141.722 189.511 142.874 192.556 143.784C193.963 144.195 195.402 144.486 196.858 144.653C198.219 144.836 199.604 144.73 200.922 144.344C203.246 143.535 205.422 142.349 207.362 140.834C210.189 138.67 212.82 136.26 215.225 133.634C216.075 132.713 216.725 131.992 217.157 131.49L217.646 130.929C217.7 130.861 217.758 130.796 217.82 130.736C217.775 130.81 217.725 130.881 217.672 130.949L217.202 131.535C216.79 132.043 216.152 132.784 215.315 133.718C212.939 136.386 210.322 138.828 207.497 141.014C205.538 142.563 203.336 143.776 200.979 144.601C199.632 145.007 198.214 145.119 196.819 144.93C195.346 144.773 193.889 144.486 192.466 144.073C189.404 143.17 186.419 142.025 183.54 140.647C180.421 139.182 177.377 137.562 174.421 135.792L174.299 135.714L174.357 135.585L176.54 130.388L177.873 127.226L177.931 127.085L178.079 127.136L196.42 133.351L196.253 133.402C199.324 129.577 202.164 126.048 204.702 122.899L208.257 118.481C208.773 117.807 209.326 117.162 209.912 116.549C210.457 115.995 211.055 115.495 211.696 115.055C212.782 114.305 213.998 113.766 215.283 113.464C216.239 113.24 217.231 113.207 218.2 113.367C218.799 113.468 219.383 113.644 219.939 113.889C220.325 114.076 220.506 114.16 220.506 114.16Z" fill="#1F1F1F"/>
<path d="M298.676 286.357C300.013 289.636 300.347 293.238 299.635 296.706C298.924 300.175 297.2 303.355 294.681 305.843C292.162 308.331 288.962 310.017 285.484 310.685C282.007 311.353 278.41 310.975 275.148 309.598C271.886 308.222 269.105 305.908 267.159 302.95C265.212 299.992 264.187 296.524 264.213 292.983C264.238 289.442 265.314 285.989 267.303 283.06C269.293 280.13 272.106 277.857 275.388 276.528C277.563 275.644 279.89 275.197 282.237 275.212C284.585 275.228 286.906 275.706 289.068 276.618C291.231 277.531 293.192 278.861 294.841 280.532C296.489 282.203 297.792 284.183 298.676 286.357Z" fill="#C8C8C8"/>
<path d="M294.726 287.952C295.743 290.45 295.997 293.193 295.455 295.835C294.912 298.476 293.599 300.898 291.68 302.793C289.761 304.688 287.324 305.971 284.675 306.481C282.027 306.99 279.287 306.703 276.803 305.655C274.318 304.607 272.2 302.846 270.716 300.594C269.232 298.342 268.45 295.7 268.468 293.003C268.486 290.307 269.303 287.676 270.816 285.444C272.329 283.212 274.471 281.478 276.969 280.463C278.627 279.789 280.401 279.447 282.191 279.458C283.98 279.469 285.75 279.833 287.399 280.529C289.048 281.224 290.544 282.238 291.801 283.511C293.059 284.785 294.052 286.294 294.726 287.952Z" fill="#C8C8C8"/>
<path d="M294.726 287.951C294.682 287.892 294.646 287.827 294.618 287.758L294.33 287.178L294.127 286.748C294.042 286.597 293.933 286.432 293.83 286.276C293.594 285.86 293.329 285.461 293.037 285.082C292.259 284.029 291.328 283.097 290.276 282.317C287.765 280.43 284.676 279.475 281.538 279.615C278.4 279.756 275.409 280.983 273.076 283.086C272.6 283.516 272.152 283.976 271.736 284.464C271.528 284.714 271.344 284.983 271.146 285.243C270.943 285.503 270.762 285.779 270.603 286.069C270.25 286.64 269.934 287.234 269.66 287.848C269.403 288.479 269.189 289.127 269.018 289.787C268.665 291.146 268.531 292.553 268.621 293.954C268.794 296.86 269.917 299.628 271.816 301.834C272.724 302.905 273.798 303.823 274.997 304.552C275.58 304.906 276.185 305.221 276.809 305.496C277.431 305.748 278.069 305.957 278.72 306.124C279.354 306.289 279.999 306.41 280.65 306.487C281.288 306.547 281.93 306.564 282.57 306.539C285.707 306.421 288.707 305.219 291.057 303.138C293.406 301.056 294.962 298.224 295.458 295.124C295.673 293.832 295.692 292.515 295.514 291.217C295.461 290.739 295.374 290.266 295.255 289.801C295.207 289.598 295.17 289.41 295.123 289.24C295.075 289.07 295.019 288.924 294.972 288.768C294.891 288.508 294.825 288.296 294.773 288.154C294.747 288.084 294.729 288.011 294.717 287.937C294.749 288.003 294.778 288.071 294.802 288.14L295.028 288.749C295.075 288.886 295.132 289.037 295.193 289.221C295.255 289.405 295.283 289.575 295.335 289.778C295.467 290.241 295.563 290.715 295.623 291.193C295.824 292.501 295.824 293.831 295.623 295.138C295.366 296.877 294.773 298.549 293.877 300.06C292.378 302.631 290.079 304.64 287.331 305.781C284.583 306.922 281.537 307.132 278.658 306.379C277.997 306.211 277.347 305.998 276.714 305.741C276.075 305.461 275.455 305.138 274.86 304.774C273.632 304.034 272.534 303.099 271.608 302.004C269.667 299.752 268.521 296.923 268.348 293.954C268.253 292.525 268.392 291.091 268.758 289.707C268.93 289.032 269.149 288.369 269.414 287.725C269.688 287.101 270.003 286.495 270.358 285.913C270.524 285.621 270.71 285.34 270.915 285.073C271.118 284.804 271.311 284.53 271.519 284.28C271.943 283.777 272.402 283.304 272.892 282.865C274.722 281.225 276.958 280.104 279.366 279.618C281.276 279.235 283.245 279.264 285.142 279.701C287.04 280.139 288.822 280.976 290.371 282.157C291.429 282.953 292.359 283.908 293.126 284.988C293.415 285.374 293.673 285.781 293.9 286.205C294.004 286.385 294.108 286.55 294.188 286.706L294.382 287.145C294.495 287.395 294.58 287.593 294.646 287.739C294.678 287.808 294.705 287.879 294.726 287.951Z" fill="#1F1F1F"/>
<g opacity="0.3">
<path d="M294.679 288.125C294.603 288.158 294.325 287.625 293.735 286.738C292.905 285.489 291.888 284.375 290.72 283.435C289.919 282.801 289.052 282.257 288.134 281.811C287.084 281.309 285.974 280.943 284.831 280.721C284.208 280.603 283.577 280.528 282.943 280.5C282.292 280.469 281.638 280.488 280.99 280.556C280.317 280.625 279.651 280.746 278.998 280.92C277.651 281.274 276.368 281.841 275.2 282.599C274.083 283.326 273.082 284.217 272.231 285.242C271.83 285.723 271.465 286.234 271.141 286.771C270.536 287.766 270.06 288.835 269.726 289.951C269.438 290.933 269.258 291.942 269.188 292.962C269.092 294.454 269.229 295.952 269.594 297.402C269.848 298.441 270.065 299.007 269.981 299.035C269.896 299.064 269.589 298.563 269.207 297.52C268.674 296.05 268.42 294.493 268.456 292.929C268.479 291.844 268.628 290.766 268.9 289.715C269.214 288.51 269.69 287.353 270.316 286.275C270.652 285.69 271.035 285.133 271.462 284.61C271.898 284.058 272.38 283.543 272.902 283.071C273.44 282.579 274.018 282.13 274.629 281.731C275.259 281.322 275.92 280.962 276.606 280.655C277.294 280.355 278.004 280.107 278.729 279.914C279.435 279.733 280.155 279.608 280.881 279.542C281.58 279.472 282.284 279.461 282.986 279.509C283.661 279.553 284.331 279.649 284.991 279.796C287.283 280.274 289.412 281.34 291.168 282.887C292.347 283.914 293.328 285.149 294.061 286.53C294.585 287.512 294.736 288.102 294.679 288.125Z" fill="#1F1F1F"/>
</g>
<path opacity="0.3" d="M284.148 286.61C285.14 287.538 285.707 288.718 285.851 290.149H287.819L287.411 291.589H285.851C285.739 292.705 285.355 293.673 284.7 294.491C284.06 295.309 283.236 295.891 282.228 296.237L285.659 301.215H283.14L279.949 296.567H276.494V294.632H280.117C281.029 294.632 281.804 294.349 282.444 293.783C283.1 293.217 283.508 292.485 283.668 291.589H276.494V290.149H283.668C283.508 289.237 283.1 288.506 282.444 287.955C281.804 287.389 281.029 287.106 280.117 287.106H276.494V285.171H287.819L287.411 286.61H284.148Z" fill="#1F1F1F"/>
<path d="M68.1572 302.536C67.0883 305.904 65.0441 308.88 62.2834 311.086C59.5227 313.292 56.1696 314.63 52.6484 314.93C49.1272 315.229 45.5962 314.478 42.5022 312.77C39.4083 311.063 36.8905 308.475 35.2675 305.336C33.6444 302.197 32.9891 298.647 33.3845 295.135C33.7798 291.623 35.208 288.308 37.4884 285.608C39.7688 282.908 42.7988 280.946 46.195 279.969C49.5912 278.992 53.2009 279.044 56.5673 280.119C58.8007 280.829 60.8723 281.973 62.6637 283.484C64.4551 284.995 65.9311 286.844 67.0075 288.926C68.0838 291.008 68.7394 293.281 68.9367 295.616C69.1339 297.952 68.8691 300.303 68.1572 302.536Z" fill="#AFAFAF"/>
<path d="M64.1101 301.255C63.2968 303.824 61.7395 306.094 59.6354 307.777C57.5313 309.46 54.975 310.482 52.2902 310.711C49.6054 310.941 46.9128 310.369 44.5532 309.068C42.1937 307.766 40.2734 305.794 39.0355 303.401C37.7975 301.007 37.2975 298.3 37.5988 295.623C37.9002 292.945 38.9893 290.417 40.7282 288.358C42.4672 286.3 44.7778 284.804 47.3675 284.059C49.9573 283.315 52.7097 283.355 55.2763 284.176C58.7116 285.271 61.5719 287.685 63.2283 290.887C64.8848 294.09 65.2019 297.819 64.1101 301.255Z" fill="#AFAFAF"/>
<path d="M64.1102 301.255C64.1179 301.182 64.1321 301.109 64.1526 301.038C64.1903 300.883 64.2374 300.675 64.3034 300.412C64.3364 300.27 64.3741 300.119 64.4165 299.94C64.4589 299.761 64.473 299.578 64.506 299.37C64.5907 298.904 64.6411 298.431 64.6567 297.957C64.7394 296.651 64.6218 295.34 64.3081 294.07C63.5851 291.019 61.8241 288.314 59.3265 286.418C56.829 284.522 53.7501 283.553 50.6169 283.677C49.977 283.699 49.3395 283.765 48.7088 283.875C48.3931 283.936 48.0774 284.025 47.7665 284.096C47.4458 284.169 47.1309 284.265 46.8242 284.383C46.1905 284.598 45.5719 284.854 44.9727 285.151C44.3721 285.473 43.793 285.834 43.2389 286.23C42.1 287.047 41.0995 288.041 40.2754 289.175C39.4339 290.346 38.7747 291.637 38.3202 293.005C37.9012 294.38 37.6884 295.809 37.6889 297.246C37.7011 298.648 37.9413 300.038 38.4003 301.363C38.6192 302.008 38.8805 302.638 39.1824 303.248C39.4988 303.838 39.8545 304.406 40.2472 304.949C40.6285 305.479 41.0456 305.983 41.4957 306.456C43.9146 308.94 47.1938 310.401 50.6579 310.538C54.1219 310.676 57.5067 309.48 60.115 307.196C61.1063 306.344 61.9625 305.346 62.6544 304.237C62.9179 303.838 63.1525 303.421 63.3564 302.989C63.4459 302.805 63.5402 302.635 63.6108 302.475C63.6815 302.315 63.7333 302.169 63.7851 302.032C63.8888 301.783 63.9689 301.561 64.0254 301.434C64.0504 301.364 64.082 301.296 64.1196 301.231C64.1041 301.304 64.082 301.375 64.0537 301.443L63.8417 302.056L63.6768 302.503C63.6108 302.668 63.5213 302.838 63.4318 303.026C63.2362 303.465 63.0079 303.889 62.7486 304.294C62.0661 305.425 61.2145 306.445 60.2233 307.318C58.7712 308.608 57.0619 309.574 55.2084 310.153C53.355 310.732 51.3998 310.911 49.472 310.678C47.0358 310.377 44.7244 309.43 42.7772 307.936C42.2577 307.54 41.7665 307.109 41.3072 306.645C40.8478 306.162 40.4212 305.649 40.0304 305.109C39.6299 304.555 39.2664 303.976 38.9421 303.375C38.6309 302.752 38.3633 302.108 38.1412 301.448C37.6714 300.096 37.4247 298.677 37.4109 297.246C37.3672 294.284 38.2939 291.39 40.0493 289.005C40.8923 287.848 41.9169 286.834 43.0834 286.004C44.1909 285.18 45.426 284.544 46.7394 284.12C47.0541 284.001 47.3769 283.905 47.7052 283.832C48.0303 283.757 48.3507 283.667 48.6758 283.606C49.3192 283.496 49.9693 283.43 50.6216 283.408C53.0738 283.321 55.5051 283.888 57.6651 285.052C59.3713 285.981 60.8609 287.261 62.0353 288.808C63.2097 290.356 64.0422 292.135 64.4777 294.028C64.7796 295.314 64.8828 296.639 64.7839 297.957C64.76 298.432 64.7002 298.904 64.6049 299.37C64.5672 299.578 64.539 299.771 64.5013 299.94L64.3741 300.412C64.2987 300.675 64.2374 300.883 64.195 301.033C64.1754 301.11 64.1469 301.185 64.1102 301.255Z" fill="#1F1F1F"/>
<g opacity="0.3">
<path d="M63.964 301.344C63.884 301.344 64.0112 300.736 64.1242 299.676C64.2813 298.191 64.2098 296.691 63.9122 295.228C63.7037 294.231 63.3878 293.26 62.9699 292.331C62.2252 290.698 61.1597 289.232 59.8369 288.02C58.8557 287.123 57.7436 286.381 56.5389 285.82C55.9078 285.528 55.2558 285.284 54.5884 285.09C53.9193 284.903 53.2375 284.766 52.5484 284.68C51.2284 284.527 49.8931 284.572 48.5861 284.812C47.9706 284.923 47.3642 285.08 46.7723 285.283C45.6693 285.656 44.6193 286.171 43.6486 286.814C42.7933 287.38 42.0033 288.039 41.2929 288.779C40.2673 289.863 39.4155 291.099 38.7676 292.444C38.2965 293.386 38.0986 293.97 38.0185 293.947C37.9384 293.923 38.0185 293.325 38.3954 292.288C38.927 290.82 39.7257 289.462 40.7511 288.284C41.4601 287.465 42.2635 286.733 43.1445 286.102C44.1622 285.382 45.2713 284.801 46.4425 284.373C47.0793 284.14 47.7329 283.956 48.3977 283.822C49.8035 283.536 51.2457 283.474 52.6709 283.638C53.4141 283.73 54.1495 283.876 54.8711 284.077C55.5913 284.285 56.294 284.549 56.9724 284.868C57.6287 285.178 58.2589 285.54 58.8569 285.952C59.4393 286.347 59.9877 286.79 60.4965 287.276C60.9883 287.734 61.4435 288.23 61.8581 288.76C63.3096 290.594 64.2638 292.772 64.6284 295.082C64.8756 296.623 64.8373 298.196 64.5153 299.723C64.2844 300.811 64.0206 301.363 63.964 301.344Z" fill="#1F1F1F"/>
</g>
<g opacity="0.3">
<path d="M56.1307 300.506L54.8969 302.358C54.6341 302.547 54.365 302.52 52.9624 302.021C52.6212 301.903 52.2393 301.749 51.8323 301.641C51.9336 300.786 51.9499 299.923 51.8809 299.065C51.8579 298.861 51.8178 298.659 51.7612 298.462L53.9018 298.391L53.8047 295.353L49.9622 295.478C49.7427 295.16 49.5526 294.822 49.3942 294.469C49.2446 294.051 49.1855 293.607 49.2209 293.165C49.2562 292.723 49.3851 292.293 49.599 291.905C50.0157 291.251 50.7955 290.901 51.9082 290.868C52.2462 290.833 52.5878 290.867 52.9119 290.969C53.2361 291.071 53.5358 291.239 53.7927 291.461C54.709 292.32 54.7851 293.897 54.786 293.917L54.798 294.312L57.8343 294.24L57.8241 293.835C57.8196 293.723 57.7437 291.013 55.8912 289.262C55.3449 288.757 54.7011 288.37 53.9994 288.123C53.2977 287.877 52.5529 287.777 51.8111 287.829C49.1051 287.919 47.7225 289.201 47.0416 290.265C46.5638 291.06 46.2716 291.953 46.1868 292.876C46.102 293.8 46.2268 294.731 46.5519 295.6L45.3959 295.636L45.5083 298.66L48.4335 298.563C48.6265 298.807 48.7728 299.085 48.865 299.382C48.9102 299.968 48.8996 300.556 48.8334 301.14C47.9634 301.215 47.1388 301.561 46.4758 302.129C45.8129 302.697 45.3452 303.459 45.1386 304.308L45.0448 304.696L47.9935 305.404L48.0931 305.019C48.2219 304.488 48.6368 303.958 49.8233 304.232C50.547 304.409 51.2598 304.628 51.9581 304.887C52.8396 305.265 53.7824 305.479 54.7404 305.518C55.2783 305.506 55.8048 305.361 56.2742 305.098C56.7435 304.835 57.1414 304.462 57.4332 304.01L58.6783 302.178L56.1307 300.506Z" fill="#1F1F1F"/>
</g>
<path d="M263.155 311.161H223.897V315.643H263.155V311.161Z" fill="#AAA9A9"/>
<path d="M304.641 310.994H265.383V315.476H304.641V310.994Z" fill="#C8C8C8"/>
<path d="M303.624 311.02C303.624 311.11 294.994 311.187 284.355 311.187C273.717 311.187 265.087 311.11 265.087 311.02C265.087 310.93 273.71 310.853 284.355 310.853C295.001 310.853 303.624 310.904 303.624 311.02Z" fill="#1F1F1F"/>
<path d="M263.155 306.679H223.897V311.161H263.155V306.679Z" fill="#AAA9A9"/>
<path d="M262.498 311.162C262.498 311.252 253.875 311.329 243.23 311.329C232.584 311.329 223.961 311.252 223.961 311.162C223.961 311.071 232.591 310.994 243.23 310.994C253.868 310.994 262.498 311.065 262.498 311.162Z" fill="#1F1F1F"/>
<path d="M261.735 279.78C262.361 283.498 261.871 287.318 260.327 290.756C258.782 294.195 256.251 297.098 253.056 299.099C249.861 301.099 246.144 302.107 242.375 301.994C238.607 301.882 234.957 300.654 231.887 298.466C228.817 296.278 226.465 293.229 225.128 289.704C223.791 286.179 223.53 282.337 224.378 278.663C225.225 274.99 227.144 271.651 229.89 269.068C232.636 266.485 236.086 264.774 239.805 264.153C242.271 263.739 244.795 263.814 247.232 264.375C249.669 264.936 251.971 265.972 254.008 267.423C256.044 268.874 257.775 270.712 259.101 272.833C260.427 274.953 261.322 277.314 261.735 279.78Z" fill="#AAA9A9"/>
<path d="M257.266 280.515C257.745 283.348 257.373 286.259 256.196 288.88C255.02 291.502 253.093 293.715 250.658 295.241C248.223 296.766 245.391 297.535 242.519 297.45C239.647 297.365 236.865 296.43 234.524 294.763C232.184 293.096 230.391 290.773 229.372 288.087C228.352 285.4 228.153 282.472 228.798 279.673C229.444 276.873 230.905 274.328 232.998 272.359C235.09 270.39 237.72 269.086 240.554 268.612C244.348 267.975 248.24 268.871 251.374 271.103C254.508 273.335 256.628 276.721 257.266 280.515Z" fill="#AAA9A9"/>
<path d="M257.266 280.514C257.236 280.441 257.212 280.365 257.196 280.288C257.156 280.122 257.106 279.901 257.035 279.614C257 279.468 256.96 279.303 256.92 279.112C256.879 278.921 256.794 278.74 256.729 278.528C256.576 278.043 256.391 277.568 256.176 277.106C255.616 275.827 254.865 274.641 253.949 273.588C252.617 272.042 250.974 270.796 249.128 269.93C247.281 269.064 245.272 268.597 243.233 268.561C240.662 268.517 238.126 269.157 235.884 270.416C235.29 270.751 234.719 271.126 234.175 271.537C233.899 271.748 233.647 271.984 233.376 272.21C233.108 272.435 232.856 272.679 232.622 272.939C232.125 273.452 231.664 273.998 231.24 274.573C230.828 275.171 230.456 275.796 230.124 276.443C229.44 277.772 228.975 279.202 228.747 280.68C228.257 283.743 228.787 286.883 230.255 289.617C230.952 290.94 231.858 292.142 232.939 293.175C233.965 294.201 235.154 295.05 236.457 295.689C237.078 296.01 237.721 296.285 238.382 296.513C239.032 296.726 239.695 296.894 240.368 297.015C243.657 297.621 247.054 297.067 249.98 295.447C252.906 293.827 255.179 291.243 256.412 288.134C256.932 286.849 257.257 285.494 257.377 284.113C257.43 283.612 257.449 283.108 257.432 282.605C257.432 282.384 257.432 282.178 257.432 281.992C257.432 281.806 257.397 281.64 257.382 281.489C257.352 281.202 257.332 280.986 257.317 280.805C257.308 280.727 257.308 280.648 257.317 280.569C257.335 280.645 257.348 280.723 257.357 280.8C257.357 280.966 257.412 281.197 257.452 281.484C257.452 281.635 257.493 281.806 257.518 281.987C257.543 282.168 257.518 282.379 257.518 282.6C257.544 283.113 257.534 283.627 257.488 284.138C257.393 285.543 257.081 286.925 256.563 288.234C255.82 290.167 254.673 291.92 253.2 293.375C251.726 294.83 249.96 295.955 248.018 296.674C244.888 297.804 241.47 297.857 238.307 296.824C237.633 296.592 236.977 296.313 236.342 295.99C235.692 295.661 235.066 295.288 234.467 294.874C233.867 294.436 233.298 293.957 232.763 293.442C231.662 292.384 230.737 291.157 230.023 289.808C228.539 287.012 228.01 283.809 228.516 280.685C228.751 279.176 229.228 277.715 229.928 276.357C230.267 275.698 230.648 275.062 231.069 274.452C231.478 273.852 231.928 273.281 232.416 272.743C232.656 272.477 232.915 272.229 233.19 271.999C233.466 271.768 233.723 271.527 234.004 271.316C234.561 270.896 235.145 270.515 235.754 270.175C238.038 268.897 240.621 268.252 243.238 268.305C245.31 268.352 247.348 268.839 249.217 269.734C251.087 270.63 252.744 271.912 254.08 273.497C254.995 274.569 255.74 275.776 256.286 277.076C256.488 277.544 256.656 278.026 256.789 278.518C256.854 278.73 256.92 278.926 256.97 279.106C257.02 279.287 257.04 279.458 257.07 279.609C257.126 279.896 257.171 280.112 257.206 280.288C257.231 280.362 257.251 280.437 257.266 280.514Z" fill="#1F1F1F"/>
<g opacity="0.3">
<path d="M257.176 280.68C257.091 280.68 256.925 280.082 256.512 279.021C255.941 277.535 255.143 276.146 254.145 274.905C253.46 274.059 252.685 273.29 251.833 272.613C250.854 271.854 249.784 271.222 248.646 270.733C248.035 270.462 247.403 270.24 246.756 270.069C246.086 269.884 245.402 269.752 244.711 269.672C243.995 269.59 243.274 269.562 242.554 269.587C241.815 269.622 241.079 269.709 240.353 269.848C239.626 269.997 238.912 270.2 238.216 270.456C237.54 270.706 236.885 271.008 236.256 271.361C235.649 271.699 235.07 272.084 234.522 272.512C233.986 272.919 233.482 273.366 233.014 273.849C231.387 275.531 230.195 277.584 229.541 279.831C229.096 281.361 228.891 282.952 228.933 284.545C228.958 285.681 229.038 286.315 228.933 286.33C228.827 286.345 228.641 285.737 228.48 284.575C228.272 282.921 228.369 281.243 228.767 279.624C229.36 277.197 230.572 274.964 232.285 273.145C232.772 272.607 233.303 272.111 233.874 271.663C234.46 271.193 235.081 270.769 235.733 270.396C236.405 270.004 237.108 269.667 237.834 269.391C239.333 268.821 240.916 268.505 242.519 268.456C244.769 268.383 247.005 268.831 249.053 269.763C251.324 270.796 253.291 272.398 254.763 274.412C255.749 275.754 256.482 277.265 256.925 278.87C257.221 280.022 257.241 280.67 257.176 280.68Z" fill="#1F1F1F"/>
</g>
<g opacity="0.3">
<path d="M248.551 286.39L250.993 288.456C249.581 290.371 247.359 291.471 244.59 291.607C240.569 291.803 237.281 289.682 236.07 286.304L233.507 286.425L233.416 284.52L235.638 284.409C235.608 284.208 235.598 284.002 235.588 283.801C235.575 283.595 235.575 283.389 235.588 283.183L233.371 283.298L233.28 281.388L235.844 281.268C236.728 277.785 239.8 275.362 243.816 275.171C246.59 275.04 248.907 275.93 250.491 277.684L248.259 279.976C247.739 279.412 247.1 278.971 246.39 278.682C245.679 278.394 244.913 278.266 244.147 278.307C243.232 278.317 242.337 278.582 241.565 279.073C240.792 279.565 240.172 280.262 239.774 281.087L245.52 280.815L245.61 282.72L239.297 283.022C239.297 283.228 239.297 283.434 239.297 283.635C239.301 283.84 239.318 284.045 239.347 284.248L245.66 283.947L245.751 285.857L240.006 286.128C240.48 286.912 241.163 287.548 241.98 287.964C242.796 288.379 243.712 288.558 244.625 288.481C245.394 288.448 246.146 288.243 246.825 287.881C247.505 287.519 248.094 287.01 248.551 286.39Z" fill="#1F1F1F"/>
</g>
<path d="M263.155 302.196H223.897V306.679H263.155V302.196Z" fill="#AAA9A9"/>
<path d="M262.176 302.125C262.176 302.222 253.546 302.293 242.908 302.293C232.269 302.293 223.639 302.222 223.639 302.125C223.639 302.029 232.262 301.958 242.908 301.958C253.553 301.958 262.176 302.035 262.176 302.125Z" fill="#1F1F1F"/>
<path d="M262.498 306.679C262.498 306.769 253.875 306.847 243.23 306.847C232.584 306.847 223.961 306.769 223.961 306.679C223.961 306.589 232.591 306.512 243.23 306.512C253.868 306.512 262.498 306.583 262.498 306.679Z" fill="#1F1F1F"/>
</g>
<defs>
<clipPath id="clip0_8864_11555">
<rect width="322" height="322" fill="rgba(var(--white), 1)"/>
</clipPath>
</defs>
</svg>
