<svg viewBox="0 0 236 222" id="notification" xmlns="http://www.w3.org/2000/svg">
<path fill-rule="evenodd" clip-rule="evenodd" d="M2.72439 160.102C3.63814 159.777 4.59969 159.344 5.34119 158.718C6.22185 157.974 6.58001 157.015 6.82052 156.006C7.1293 154.71 7.25269 153.33 7.62711 152.032C7.76575 151.549 8.03255 151.367 8.14703 151.286C8.43638 151.082 8.72886 151.027 9.00404 151.048C9.33015 151.072 9.77812 151.195 10.0727 151.742C10.1147 151.82 10.1693 151.939 10.2061 152.102C10.2329 152.222 10.2502 152.597 10.2786 152.751C10.3495 153.131 10.4088 153.511 10.4645 153.894C10.6498 155.166 10.7565 156.247 11.342 157.416C12.1365 159.003 12.9326 159.974 14.0123 160.404C15.0563 160.82 16.3046 160.742 17.8994 160.415C18.0512 160.379 18.2014 160.347 18.35 160.321C19.0531 160.199 19.7253 160.66 19.8635 161.361C20.0016 162.061 19.5547 162.743 18.8578 162.897C18.7124 162.929 18.569 162.959 18.4272 162.987C16.272 163.521 13.7771 165.425 12.3271 167.092C11.8802 167.606 11.2259 169.044 10.5585 169.96C10.0659 170.637 9.51238 171.083 9.04763 171.24C8.73622 171.346 8.47366 171.33 8.25678 171.276C7.94169 171.199 7.68018 171.028 7.47958 170.757C7.37035 170.608 7.26897 170.409 7.22066 170.155C7.19755 170.032 7.19494 169.721 7.19547 169.581C7.05945 169.113 6.89298 168.656 6.77167 168.184C6.48232 167.057 5.91463 166.344 5.24035 165.402C4.60966 164.52 3.93225 163.966 2.9392 163.524C2.81002 163.493 1.76761 163.238 1.39948 163.091C0.861739 162.876 0.605456 162.517 0.512506 162.323C0.354438 161.994 0.338173 161.707 0.369682 161.467C0.416419 161.114 0.575013 160.811 0.856489 160.567C1.03084 160.415 1.29131 160.268 1.64 160.196C1.9094 160.14 2.62409 160.107 2.72439 160.102ZM8.83968 158.267C8.88799 158.374 8.93946 158.482 8.99407 158.592C10.1578 160.916 11.4591 162.214 13.0408 162.843L13.0939 162.864C12.0357 163.649 11.0778 164.527 10.3458 165.369C10.0443 165.716 9.64525 166.436 9.21411 167.174C8.82235 165.901 8.18168 165 7.37611 163.874C6.76065 163.014 6.11577 162.367 5.32333 161.84C5.93828 161.525 6.52485 161.155 7.03581 160.723C7.88654 160.004 8.44897 159.171 8.83968 158.267Z" fill="rgba(var(--content-color), 1)"/>
<circle cx="25.957" cy="5.12013" r="5.12013" fill="rgba(var(--content-color), 1)"/>
<circle cx="229.909" cy="111.789" r="5.12013" fill="rgba(var(--content-color), 1)"/>
<path d="M110.5 185C158.825 185 198 145.825 198 97.5C198 49.1751 158.825 10 110.5 10C62.1751 10 23 49.1751 23 97.5C23 145.825 62.1751 185 110.5 185Z" fill="rgba(var(--primary-color), 1)" fill-opacity="0.07"/>
<path d="M110.012 0C120.616 0 129.213 8.59619 129.213 19.2002C129.213 29.8043 120.616 38.4014 110.012 38.4014C99.4077 38.4012 90.8115 29.8042 90.8115 19.2002C90.8117 8.59629 99.4078 0.000159782 110.012 0ZM109.585 9.38672C103.929 9.38672 99.3448 13.9715 99.3447 19.627C99.3447 25.2825 103.929 29.8672 109.585 29.8672C115.241 29.8672 119.825 25.2825 119.825 19.627C119.825 13.9715 115.24 9.38672 109.585 9.38672Z" fill="rgba(var(--title-color), 1)"/>
<path d="M109.627 173.316C130.388 173.316 147.218 156.486 147.218 135.726C147.218 114.965 130.388 98.1357 109.627 98.1357C88.8668 98.1357 72.0371 114.965 72.0371 135.726C72.0371 156.486 88.8668 173.316 109.627 173.316Z" fill="rgba(var(--primary-color), 1)"/>
<path d="M169.121 107.778V78.9384C169.121 63.208 162.872 48.1219 151.749 36.9989C140.626 25.8758 125.54 19.627 109.809 19.627C94.079 19.627 78.9929 25.8758 67.8699 36.9989C56.7468 48.1219 50.498 63.208 50.498 78.9384V107.778C50.4986 114.403 48.6243 120.894 45.0917 126.499C41.559 132.104 36.5123 136.595 30.5347 139.453C29.1609 140.107 28.0011 141.138 27.1905 142.426C26.3799 143.714 25.9518 145.206 25.9561 146.727V146.884C25.9551 147.433 26.0624 147.978 26.272 148.486C26.4817 148.994 26.7894 149.456 27.1777 149.845C27.5659 150.234 28.0271 150.542 28.5348 150.753C29.0424 150.963 29.5866 151.072 30.1363 151.072H189.475C190.024 151.072 190.569 150.963 191.076 150.753C191.584 150.542 192.045 150.234 192.433 149.845C192.822 149.456 193.129 148.994 193.339 148.486C193.549 147.978 193.656 147.433 193.655 146.884V146.727C193.655 145.211 193.226 143.725 192.418 142.441C191.609 141.158 190.453 140.13 189.084 139.477C183.103 136.617 178.054 132.122 174.521 126.512C170.988 120.903 169.116 114.407 169.121 107.778Z" fill="rgba(var(--primary-color), 1)"/>
<path fill-rule="evenodd" clip-rule="evenodd" d="M194.067 151.044H25.9561V145.924H194.067V151.044Z" fill="rgba(var(--title-color), 1)"/>
<path d="M157.372 74.242C170.569 74.242 181.266 63.5443 181.266 50.3481C181.266 37.1518 170.569 26.4541 157.372 26.4541C144.176 26.4541 133.479 37.1518 133.479 50.3481C133.479 63.5443 144.176 74.242 157.372 74.242Z" fill="rgba(var(--light-gray), 1)"/>
<path d="M151.399 50.3391C151.399 48.2197 151.884 46.5536 152.853 45.3408C153.835 44.1279 155.342 43.5215 157.373 43.5215C159.391 43.5215 160.891 44.134 161.873 45.3591C162.855 46.572 163.346 48.232 163.346 50.3391C163.346 52.4586 162.855 54.1308 161.873 55.3559C160.891 56.5687 159.391 57.1752 157.373 57.1752C155.342 57.1752 153.835 56.5687 152.853 55.3559C151.884 54.1308 151.399 52.4586 151.399 50.3391ZM158.986 50.3391C158.986 49.3591 158.88 48.624 158.667 48.134C158.455 47.6317 158.023 47.3805 157.373 47.3805C156.709 47.3805 156.271 47.6317 156.059 48.134C155.846 48.624 155.74 49.3591 155.74 50.3391C155.74 51.3315 155.846 52.0788 156.059 52.5811C156.271 53.0711 156.709 53.3161 157.373 53.3161C158.023 53.3161 158.455 53.0711 158.667 52.5811C158.88 52.0788 158.986 51.3315 158.986 50.3391Z" fill="rgba(var(--title-color), 1)"/>
<path fill-rule="evenodd" clip-rule="evenodd" d="M63.5964 164.102C59.5084 167.8 55.4319 171.422 51.4534 175.236C50.5945 176.054 50.5622 177.402 51.3747 178.251C52.1899 179.108 53.5453 179.135 54.3961 178.32C58.3554 174.53 62.3964 170.938 66.4572 167.267C67.3321 166.471 67.3998 165.121 66.6171 164.253C65.8237 163.379 64.4713 163.306 63.5964 164.102Z" fill="rgba(var(--title-color), 1)"/>
<path fill-rule="evenodd" clip-rule="evenodd" d="M155.943 164.104C160.008 167.802 164.061 171.425 168.016 175.24C168.87 176.057 168.896 177.404 168.08 178.252C167.261 179.108 165.907 179.133 165.061 178.318C161.125 174.528 157.107 170.934 153.069 167.263C152.199 166.467 152.138 165.118 152.924 164.251C153.721 163.379 155.073 163.308 155.943 164.104Z" fill="rgba(var(--title-color), 1)"/>
<path fill-rule="evenodd" clip-rule="evenodd" d="M107.155 187.991C107.09 193.491 106.978 198.932 107.073 204.431C107.09 205.614 108.056 206.549 109.23 206.527C110.412 206.509 111.351 205.532 111.332 204.357C111.241 198.888 111.351 193.494 111.416 188.032C111.427 186.852 110.483 185.889 109.315 185.876C108.137 185.868 107.166 186.811 107.155 187.991Z" fill="rgba(var(--title-color), 1)"/>
</svg>
