<svg width="64" height="22" viewBox="0 0 64 22" fill="none" xmlns="http://www.w3.org/2000/svg">
    <path d="M27.0726 12.6357H0V21.6546H27.0726V12.6357Z" fill="#84B740"/>
    <path d="M27.0726 0.32959H0V9.35647H27.0726V0.32959Z" fill="#259BD6"/>
    <path d="M54.1452 19.822L54.0246 19.8461C53.6066 19.9265 53.4539 19.9587 53.1484 19.9587C52.4411 19.9587 51.6051 19.5969 51.6051 17.8929C51.6051 17.0167 51.7498 15.8512 53.0681 15.8512H53.0761C53.3012 15.8672 53.5584 15.8913 54.0407 16.036L54.1452 16.0682V19.822ZM54.3622 11.3257L54.1452 11.3659V14.5168L53.9523 14.4605L53.896 14.4445C53.679 14.3802 53.1806 14.2355 52.6983 14.2355C50.0618 14.2355 49.5071 16.229 49.5071 17.9009C49.5071 20.1918 50.7933 21.51 53.0359 21.51C53.9844 21.51 54.6837 21.4136 55.3911 21.1805C56.0422 20.9715 56.2753 20.6741 56.2753 20.039V10.9961C55.6483 11.1086 54.9972 11.2212 54.3622 11.3257Z" fill="#27292D"/>
    <path d="M61.9824 19.8783L61.8699 19.9105L61.468 20.015C61.0902 20.1114 60.7526 20.1677 60.4954 20.1677C59.8764 20.1677 59.5067 19.8622 59.5067 19.3397C59.5067 19.0021 59.6594 18.4314 60.6722 18.4314H61.9824V19.8783ZM61.058 14.1953C60.2462 14.1953 59.4102 14.34 58.3733 14.6615L57.6981 14.8625L57.9231 16.3897L58.5823 16.1727C59.2736 15.9476 60.1336 15.8029 60.7767 15.8029C61.0661 15.8029 61.9503 15.803 61.9503 16.7595V17.1775H60.7204C58.4778 17.1775 57.4409 17.8929 57.4409 19.4282C57.4409 20.7384 58.3974 21.5261 60.005 21.5261C60.5034 21.5261 61.1947 21.4297 61.7895 21.285L61.8217 21.277L61.8538 21.285L62.0548 21.3171C62.6817 21.4297 63.3328 21.5422 63.9679 21.6628V16.647C63.9679 15.0232 62.9872 14.1953 61.058 14.1953Z" fill="#27292D"/>
    <path d="M46.3643 19.8783L46.2517 19.9105L45.8498 20.015C45.472 20.1114 45.1425 20.1677 44.8772 20.1677C44.2583 20.1677 43.8885 19.8622 43.8885 19.3397C43.8885 19.0021 44.0412 18.4314 45.046 18.4314H46.3562V19.8783H46.3643ZM45.4479 14.1953C44.628 14.1953 43.8001 14.34 42.7632 14.6615L42.088 14.8625L42.313 16.3897L42.9722 16.1727C43.6634 15.9476 44.5235 15.8029 45.1666 15.8029C45.4559 15.8029 46.3401 15.803 46.3401 16.7595V17.1775H45.1103C42.8677 17.1775 41.8227 17.8929 41.8227 19.4282C41.8227 20.7384 42.7792 21.5261 44.3949 21.5261C44.8933 21.5261 45.5846 21.4297 46.1794 21.285L46.2115 21.277L46.2437 21.285L46.4366 21.3171C47.0716 21.4297 47.7147 21.5422 48.3497 21.6708V16.655C48.3577 15.0152 47.3771 14.1953 45.4479 14.1953Z" fill="#27292D"/>
    <path d="M37.9 14.2116C36.8792 14.2116 36.0352 14.5493 35.7217 14.6939L35.6413 14.7341L35.5689 14.6779C35.1349 14.3644 34.4999 14.2036 33.6157 14.2036C32.836 14.2036 32.1045 14.3161 31.3087 14.5493C30.6255 14.7582 30.3602 15.0878 30.3602 15.7067V21.438H32.4984V16.1408L32.6029 16.1087C33.0369 15.964 33.2941 15.9399 33.5433 15.9399C34.1623 15.9399 34.4757 16.2694 34.4757 16.9125V21.446H36.5818V16.8241C36.5818 16.5508 36.5255 16.39 36.5174 16.3578L36.4451 16.2212L36.5898 16.1569C36.9113 16.0122 37.265 15.9399 37.6348 15.9399C38.0608 15.9399 38.5672 16.1087 38.5672 16.9125V21.446H40.6651V16.7035C40.6651 15.0235 39.7649 14.2116 37.9 14.2116Z" fill="#27292D"/>
    <path d="M60.4069 6.21354C60.0934 6.21354 59.5709 6.18139 59.161 6.101L59.0404 6.07689V2.98219C59.0404 2.72497 58.9922 2.5642 58.9842 2.54009L58.9199 2.41148L59.0565 2.35521C59.0887 2.33914 59.1208 2.3311 59.161 2.31502L59.1851 2.29894C59.2333 2.28287 59.2816 2.26679 59.3298 2.25072C59.3539 2.24268 59.37 2.23464 59.3861 2.23464C59.8603 2.10603 60.2944 2.1221 60.4873 2.10603H60.4953C61.8056 2.10603 61.9583 3.27156 61.9583 4.14773C61.9503 5.85182 61.1062 6.21354 60.4069 6.21354ZM60.3989 0.32959C60.3828 0.32959 60.3587 0.32959 60.3426 0.32959C59.1128 0.32959 57.8508 0.667195 57.4006 1.32633C57.1595 1.64785 57.0229 2.04976 57.0148 2.52401V5.71517C57.0148 5.98847 56.9585 6.09296 56.9505 6.11708L56.8782 6.25373H52.9957V4.03519H52.9877C52.9395 1.69608 51.5569 0.409972 49.5554 0.409972H49.3223H47.6021C47.5217 0.980682 47.4574 1.38259 47.377 1.9533H49.3223C50.3431 1.9533 50.8817 2.82143 50.8817 4.15576V6.39038L50.745 6.31803C50.7209 6.31 50.5521 6.25373 50.2869 6.25373H46.9269C46.8626 6.67975 46.7822 7.23439 46.6938 7.78902H57.0228C57.3765 7.71668 57.7865 7.65237 58.1402 7.59611C58.6626 7.85333 59.6353 7.98998 60.3024 7.98998C62.5451 7.98998 64 6.48684 64 4.17184C63.9919 1.88096 62.5853 0.377819 60.3989 0.32959Z" fill="#27292D"/>
    <path d="M42.2889 8.72896H42.3853C44.628 8.72896 45.6729 7.98945 45.6729 6.16478C45.6729 4.85456 44.7164 3.80959 43.1088 3.80959H41.0429C40.424 3.80959 40.0542 3.45591 40.0542 2.86109C40.0542 2.45918 40.207 1.96081 41.2198 1.96081H45.7372C45.8337 1.37402 45.8819 1.00427 45.9703 0.41748H41.276C39.0897 0.41748 37.9884 1.33383 37.9884 2.86109C37.9884 4.37226 38.945 5.16001 40.5526 5.16001H42.6184C43.2374 5.16001 43.6071 5.65034 43.6071 6.16478C43.6071 6.50238 43.4544 7.2017 42.4496 7.2017H42.104L35.4886 7.18563H34.2828C33.262 7.18563 32.5466 6.60688 32.5466 5.2645V4.34011C32.5466 2.94147 33.1012 2.07335 34.2828 2.07335H36.2441C36.3326 1.47852 36.3888 1.10073 36.4692 0.538053H34.0256H33.7925C31.791 0.538053 30.4084 1.88043 30.3602 4.21954V4.30796V5.2645C30.4084 7.60362 31.791 8.72092 33.7925 8.72092H34.0256H35.7458L39.3308 8.72896H41.469H42.2889Z" fill="#27292D"/>
</svg>
