<svg xmlns="http://www.w3.org/2000/svg" width="640" height="480"><defs><clipPath id="a"><path fill-opacity=".67" d="M-85.333 0h682.67v512h-682.67z"/></clipPath></defs><g fill-rule="evenodd" clip-path="url(#a)" transform="translate(80)scale(.9375)"><path fill="#009" d="M-85.333 0h682.67v512h-682.67z"/><path fill="#FC0" d="m56.489 0 510.978 512.267v-512z"/><path fill="#FFF" d="m439.883 481.532-27.865-20.359-28.639 20.261 10.828-33.243-28.18-20.528 34.914.071 10.855-33.192 10.725 33.233 34.923.099-27.942 20.657zm81.294 10.343-34.923-.099-10.725-33.233-10.855 33.192-34.914-.071 28.18 20.528-10.828 33.243 28.639-20.261 27.865 20.359-10.38-33zM365.636 384.666l27.942-20.657-34.923-.099-10.725-33.233-10.855 33.192-34.914-.071 28.18 20.528-10.828 33.243 28.639-20.261 27.865 20.359zm-64.355-64.445 27.942-20.657-34.923-.099-10.725-33.233-10.855 33.192-34.914-.071 28.18 20.528-10.828 33.243 28.639-20.261 27.865 20.359zm-63.645-63.644 27.941-20.658-34.922-.099-10.725-33.233-10.855 33.192-34.914-.071 28.18 20.528-10.828 33.243 28.639-20.263 27.865 20.36zm-64.445-64.267 27.941-20.658-34.922-.099-10.725-33.233-10.855 33.192-34.914-.071 28.18 20.528-10.828 33.243 28.639-20.262 27.865 20.36zm-63.644-63.912 27.941-20.658-34.922-.099L91.84 74.408 80.985 107.6l-34.914-.071 28.18 20.528L63.423 161.3l28.639-20.262 27.865 20.36zm-64-64L73.488 43.74l-34.922-.099L27.84 10.408 16.985 43.6l-34.914-.071 28.18 20.528L-.576 97.3l28.639-20.262 27.865 20.36zm-64-64L9.488-20.259l-34.922-.099-10.726-33.234L-47.015-20.4l-34.914-.071L-53.749.057-64.576 33.3l28.639-20.263 27.865 20.36z"/></g></svg>