<svg width="51" height="26" viewBox="0 0 51 26" fill="none" xmlns="http://www.w3.org/2000/svg">
    <g clip-path="url(#clip0_607_320)">
        <path d="M9.66584 5.56501C10.2594 4.82245 10.6833 3.83237 10.5561 2.84229C9.66584 2.88354 8.60599 3.41983 7.97008 4.12114C7.41896 4.73994 6.91023 5.77127 7.03741 6.7201C8.05487 6.84386 9.02993 6.30757 9.66584 5.56501ZM10.5561 6.96762C9.11472 6.88511 7.88529 7.75144 7.20699 7.75144C6.52868 7.75144 5.46883 7.00887 4.32419 7.00887C2.8404 7.05013 1.48379 7.83394 0.720702 9.15405C-0.805483 11.753 0.296762 15.5896 1.82295 17.6935C2.54364 18.7248 3.43392 19.8799 4.57856 19.8387C5.6808 19.7974 6.10474 19.1374 7.41896 19.1374C8.73317 19.1374 9.11472 19.8387 10.3017 19.7974C11.4888 19.7562 12.2519 18.7661 12.9726 17.6935C13.8205 16.4971 14.1596 15.3421 14.1596 15.3008C14.1172 15.2595 11.8279 14.4345 11.8279 11.8768C11.7855 9.7316 13.6085 8.70026 13.6933 8.65901C12.7182 7.17389 11.1072 7.00887 10.5561 6.96762Z" fill="black"/>
        <path d="M23.02 4.03857C26.1571 4.03857 28.3192 6.1425 28.3192 9.15399C28.3192 12.2067 26.1147 14.3107 22.9352 14.3107H19.5013V19.6323H17V4.03857H23.02ZM19.5013 12.2892H22.3417C24.5037 12.2892 25.7332 11.1342 25.7332 9.19524C25.7332 7.21508 24.5037 6.10124 22.3417 6.10124H19.4589V12.2892H19.5013ZM28.9551 16.4558C28.9551 14.4757 30.5237 13.2381 33.3217 13.0731L36.5436 12.908V12.0417C36.5436 10.7629 35.6534 10.0203 34.212 10.0203C32.813 10.0203 31.9651 10.6804 31.7531 11.6704H29.4638C29.591 9.60778 31.414 8.0814 34.2968 8.0814C37.1372 8.0814 38.9601 9.52527 38.9601 11.8355V19.6736H36.6708V17.8172H36.6284C35.9501 19.096 34.4663 19.8799 32.9402 19.8799C30.5661 19.8799 28.9551 18.4773 28.9551 16.4558ZM36.5436 15.4245V14.5169L33.6609 14.6819C32.2195 14.7644 31.414 15.3832 31.414 16.3733C31.414 17.3634 32.2619 18.0235 33.5337 18.0235C35.2294 18.0235 36.5436 16.9096 36.5436 15.4245ZM41.0798 23.8814V21.9838C41.2494 22.025 41.6733 22.025 41.8429 22.025C42.9451 22.025 43.5387 21.5713 43.9202 20.4162C43.9202 20.3749 44.1322 19.7149 44.1322 19.7149L39.8928 8.32892H42.4788L45.4464 17.6109H45.4888L48.4564 8.32892H51L46.6334 20.3337C45.616 23.0976 44.4713 23.9639 42.0549 23.9639C41.8853 23.9227 41.2918 23.9227 41.0798 23.8814Z" fill="black"/>
    </g>
    <defs>
        <clipPath id="clip0_607_320">
            <rect width="51" height="25" fill="white" transform="translate(0 0.5)"/>
        </clipPath>
    </defs>
</svg>
